G04 #@! TF.GenerationSoftware,KiCad,Pcbnew,6.0.8-f2edbf62ab~116~ubuntu20.04.1*
G04 #@! TF.CreationDate,2022-10-17T13:25:48+07:00*
G04 #@! TF.ProjectId,IN-8,494e2d38-2e6b-4696-9361-645f70636258,rev?*
G04 #@! TF.SameCoordinates,Original*
G04 #@! TF.FileFunction,Soldermask,Bot*
G04 #@! TF.FilePolarity,Negative*
%FSLAX46Y46*%
G04 Gerber Fmt 4.6, Leading zero omitted, Abs format (unit mm)*
G04 Created by KiCad (PCBNEW 6.0.8-f2edbf62ab~116~ubuntu20.04.1) date 2022-10-17 13:25:48*
%MOMM*%
%LPD*%
G01*
G04 APERTURE LIST*
G04 Aperture macros list*
%AMRoundRect*
0 Rectangle with rounded corners*
0 $1 Rounding radius*
0 $2 $3 $4 $5 $6 $7 $8 $9 X,Y pos of 4 corners*
0 Add a 4 corners polygon primitive as box body*
4,1,4,$2,$3,$4,$5,$6,$7,$8,$9,$2,$3,0*
0 Add four circle primitives for the rounded corners*
1,1,$1+$1,$2,$3*
1,1,$1+$1,$4,$5*
1,1,$1+$1,$6,$7*
1,1,$1+$1,$8,$9*
0 Add four rect primitives between the rounded corners*
20,1,$1+$1,$2,$3,$4,$5,0*
20,1,$1+$1,$4,$5,$6,$7,0*
20,1,$1+$1,$6,$7,$8,$9,0*
20,1,$1+$1,$8,$9,$2,$3,0*%
G04 Aperture macros list end*
%ADD10C,1.143000*%
%ADD11C,0.889000*%
%ADD12RoundRect,0.325000X-0.325000X-1.675000X0.325000X-1.675000X0.325000X1.675000X-0.325000X1.675000X0*%
%ADD13R,1.600000X1.600000*%
%ADD14C,1.600000*%
%ADD15C,1.200000*%
%ADD16R,1.800000X1.800000*%
%ADD17C,1.800000*%
%ADD18O,0.600000X0.850000*%
%ADD19C,0.600000*%
%ADD20O,2.300000X1.300000*%
%ADD21O,2.600000X1.300000*%
%ADD22C,1.308000*%
%ADD23C,2.600000*%
%ADD24C,2.200000*%
%ADD25C,1.700000*%
%ADD26RoundRect,0.375000X-1.125000X0.375000X-1.125000X-0.375000X1.125000X-0.375000X1.125000X0.375000X0*%
%ADD27RoundRect,0.250000X-0.450000X0.262500X-0.450000X-0.262500X0.450000X-0.262500X0.450000X0.262500X0*%
%ADD28RoundRect,0.250000X0.450000X-0.262500X0.450000X0.262500X-0.450000X0.262500X-0.450000X-0.262500X0*%
%ADD29RoundRect,0.500000X0.500000X1.500000X-0.500000X1.500000X-0.500000X-1.500000X0.500000X-1.500000X0*%
%ADD30RoundRect,0.150000X-0.150000X0.587500X-0.150000X-0.587500X0.150000X-0.587500X0.150000X0.587500X0*%
%ADD31RoundRect,0.150000X0.587500X0.150000X-0.587500X0.150000X-0.587500X-0.150000X0.587500X-0.150000X0*%
%ADD32RoundRect,0.250000X0.262500X0.450000X-0.262500X0.450000X-0.262500X-0.450000X0.262500X-0.450000X0*%
%ADD33RoundRect,0.150000X-0.587500X-0.150000X0.587500X-0.150000X0.587500X0.150000X-0.587500X0.150000X0*%
%ADD34RoundRect,0.250000X-0.475000X0.250000X-0.475000X-0.250000X0.475000X-0.250000X0.475000X0.250000X0*%
%ADD35RoundRect,0.250000X-0.250000X-0.475000X0.250000X-0.475000X0.250000X0.475000X-0.250000X0.475000X0*%
%ADD36RoundRect,0.150000X0.825000X0.150000X-0.825000X0.150000X-0.825000X-0.150000X0.825000X-0.150000X0*%
%ADD37R,2.200000X1.200000*%
%ADD38R,6.400000X5.800000*%
%ADD39R,1.600000X0.550000*%
%ADD40R,0.550000X1.600000*%
%ADD41RoundRect,0.042000X0.943000X0.258000X-0.943000X0.258000X-0.943000X-0.258000X0.943000X-0.258000X0*%
%ADD42R,2.413000X3.302000*%
%ADD43R,1.900000X0.400000*%
G04 APERTURE END LIST*
D10*
X185032000Y-43430500D02*
G75*
G03*
X185032000Y-43430500I-571500J0D01*
G01*
D11*
X187405000Y-44680500D02*
G75*
G03*
X187405000Y-44680500I-444500J0D01*
G01*
X187405000Y-49180500D02*
G75*
G03*
X187405000Y-49180500I-444500J0D01*
G01*
D10*
X185032000Y-50430500D02*
G75*
G03*
X185032000Y-50430500I-571500J0D01*
G01*
D12*
X171060500Y-70480500D03*
D13*
X153917250Y-19273388D03*
D14*
X153917250Y-21273388D03*
D15*
X159860500Y-70480500D03*
X175860500Y-70480500D03*
D12*
X148660500Y-70480500D03*
D15*
X163060500Y-70480500D03*
D12*
X155060500Y-70480500D03*
X151860500Y-70480500D03*
D16*
X186260500Y-54680500D03*
D17*
X183720500Y-54680500D03*
D12*
X158260500Y-70480500D03*
X164660500Y-70480500D03*
X142260500Y-70480500D03*
D15*
X156660500Y-70480500D03*
D12*
X145460500Y-70480500D03*
D15*
X166260500Y-70480500D03*
D12*
X161460500Y-70480500D03*
D15*
X147060500Y-70480500D03*
D18*
X134786250Y-49880500D03*
D19*
X134786250Y-43880500D03*
D20*
X135511250Y-42560500D03*
D21*
X131686250Y-51200500D03*
X131686250Y-42560500D03*
D20*
X135511250Y-51200500D03*
D13*
X165855250Y-19273388D03*
D14*
X165855250Y-21273388D03*
D15*
X143860500Y-70480500D03*
D13*
X136772250Y-57058500D03*
D14*
X134272250Y-57058500D03*
D22*
X174060500Y-83777764D03*
X174810500Y-77527764D03*
X169060500Y-76277764D03*
X167310500Y-77527764D03*
X166560500Y-79527764D03*
X166810500Y-81777764D03*
X168060500Y-83777764D03*
X170060500Y-84777764D03*
X172060500Y-84777764D03*
X175310500Y-81777764D03*
X175560500Y-79527764D03*
X173060500Y-76277764D03*
D15*
X150460500Y-70480500D03*
D12*
X174260500Y-70480500D03*
D23*
X135629250Y-35468500D03*
X135629250Y-38468500D03*
D24*
X184460500Y-50430500D03*
X184460500Y-43430500D03*
D25*
X186960500Y-44680500D03*
X186960500Y-49180500D03*
D16*
X186260500Y-39080500D03*
D17*
X183720500Y-39080500D03*
D26*
X175634250Y-23022500D03*
D15*
X153460500Y-70480500D03*
X169460500Y-70480500D03*
D22*
X151660500Y-83777764D03*
X152410500Y-77527764D03*
X146660500Y-76277764D03*
X144910500Y-77527764D03*
X144160500Y-79527764D03*
X144410500Y-81777764D03*
X145660500Y-83777764D03*
X147660500Y-84777764D03*
X149660500Y-84777764D03*
X152910500Y-81777764D03*
X153160500Y-79527764D03*
X150660500Y-76277764D03*
D26*
X175634250Y-25308500D03*
D12*
X177460500Y-70480500D03*
X167860500Y-70480500D03*
D15*
X172660500Y-70480500D03*
D27*
X172260500Y-53568000D03*
X172260500Y-55393000D03*
D28*
X171060500Y-66993000D03*
X171060500Y-65168000D03*
D29*
X164260500Y-38280500D03*
D27*
X181603250Y-38112000D03*
X181603250Y-39937000D03*
X157260500Y-61368000D03*
X157260500Y-63193000D03*
D29*
X159460500Y-38280500D03*
D27*
X173060500Y-61368000D03*
X173060500Y-63193000D03*
D30*
X153710500Y-64943000D03*
X155610500Y-64943000D03*
X154660500Y-66818000D03*
D31*
X170198000Y-56930500D03*
X170198000Y-58830500D03*
X168323000Y-57880500D03*
D30*
X157110500Y-64943000D03*
X159010500Y-64943000D03*
X158060500Y-66818000D03*
D27*
X167460500Y-61368000D03*
X167460500Y-63193000D03*
D31*
X147798000Y-56930500D03*
X147798000Y-58830500D03*
X145923000Y-57880500D03*
D30*
X141260500Y-64880500D03*
X143160500Y-64880500D03*
X142210500Y-66755500D03*
D32*
X159173000Y-35080500D03*
X157348000Y-35080500D03*
D33*
X168323000Y-55430500D03*
X168323000Y-53530500D03*
X170198000Y-54480500D03*
D27*
X164060500Y-61368000D03*
X164060500Y-63193000D03*
D30*
X167310500Y-64943000D03*
X169210500Y-64943000D03*
X168260500Y-66818000D03*
X176310500Y-64943000D03*
X178210500Y-64943000D03*
X177260500Y-66818000D03*
D27*
X144810500Y-61305500D03*
X144810500Y-63130500D03*
D28*
X181603250Y-55558000D03*
X181603250Y-53733000D03*
D30*
X172910500Y-64943000D03*
X174810500Y-64943000D03*
X173860500Y-66818000D03*
D27*
X143860500Y-53568000D03*
X143860500Y-55393000D03*
D30*
X160510500Y-64943000D03*
X162410500Y-64943000D03*
X161460500Y-66818000D03*
D32*
X144923750Y-41437500D03*
X143098750Y-41437500D03*
D28*
X157854250Y-21291500D03*
X157854250Y-19466500D03*
D29*
X166660500Y-38280500D03*
D27*
X149860500Y-53568000D03*
X149860500Y-55393000D03*
D34*
X150260500Y-45330500D03*
X150260500Y-47230500D03*
D28*
X171860500Y-40193000D03*
X171860500Y-38368000D03*
D35*
X164510500Y-35080500D03*
X166410500Y-35080500D03*
D27*
X171860500Y-41968000D03*
X171860500Y-43793000D03*
D30*
X163910500Y-64943000D03*
X165810500Y-64943000D03*
X164860500Y-66818000D03*
D27*
X176460500Y-61368000D03*
X176460500Y-63193000D03*
D36*
X179135500Y-39175500D03*
X179135500Y-40445500D03*
X179135500Y-41715500D03*
X179135500Y-42985500D03*
X174185500Y-42985500D03*
X174185500Y-41715500D03*
X174185500Y-40445500D03*
X174185500Y-39175500D03*
D27*
X183860500Y-45968000D03*
X183860500Y-47793000D03*
X172260500Y-56968000D03*
X172260500Y-58793000D03*
D37*
X143113250Y-39399500D03*
D38*
X149413250Y-37119500D03*
D37*
X143113250Y-34839500D03*
D27*
X153860500Y-61368000D03*
X153860500Y-63193000D03*
D28*
X148460500Y-66993000D03*
X148460500Y-65168000D03*
D33*
X145923000Y-55430500D03*
X145923000Y-53530500D03*
X147798000Y-54480500D03*
D39*
X160712000Y-44080500D03*
X160712000Y-44880500D03*
X160712000Y-45680500D03*
X160712000Y-46480500D03*
X160712000Y-47280500D03*
X160712000Y-48080500D03*
X160712000Y-48880500D03*
X160712000Y-49680500D03*
D40*
X159262000Y-51130500D03*
X158462000Y-51130500D03*
X157662000Y-51130500D03*
X156862000Y-51130500D03*
X156062000Y-51130500D03*
X155262000Y-51130500D03*
X154462000Y-51130500D03*
X153662000Y-51130500D03*
D39*
X152212000Y-49680500D03*
X152212000Y-48880500D03*
X152212000Y-48080500D03*
X152212000Y-47280500D03*
X152212000Y-46480500D03*
X152212000Y-45680500D03*
X152212000Y-44880500D03*
X152212000Y-44080500D03*
D40*
X153662000Y-42630500D03*
X154462000Y-42630500D03*
X155262000Y-42630500D03*
X156062000Y-42630500D03*
X156862000Y-42630500D03*
X157662000Y-42630500D03*
X158462000Y-42630500D03*
X159262000Y-42630500D03*
D29*
X157060500Y-38280500D03*
D41*
X162335500Y-27175500D03*
X162335500Y-28445500D03*
X162335500Y-29715500D03*
X162335500Y-30985500D03*
X157385500Y-30985500D03*
X157385500Y-29715500D03*
X157385500Y-28445500D03*
X157385500Y-27175500D03*
D42*
X159860500Y-29080500D03*
D43*
X163495452Y-51280500D03*
X163495452Y-50080500D03*
X163495452Y-48880500D03*
D27*
X150460500Y-61368000D03*
X150460500Y-63193000D03*
X149860500Y-56968000D03*
X149860500Y-58793000D03*
D34*
X163823250Y-19278500D03*
X163823250Y-21178500D03*
D27*
X160660500Y-61368000D03*
X160660500Y-63193000D03*
X166260500Y-53568000D03*
X166260500Y-55393000D03*
X164660500Y-27480500D03*
X164660500Y-29305500D03*
D30*
X150310500Y-64943000D03*
X152210500Y-64943000D03*
X151260500Y-66818000D03*
D34*
X155949250Y-19344500D03*
X155949250Y-21244500D03*
D27*
X141610500Y-61305500D03*
X141610500Y-63130500D03*
D30*
X144660500Y-64880500D03*
X146560500Y-64880500D03*
X145610500Y-66755500D03*
D29*
X161860500Y-38280500D03*
M02*
