G04 #@! TF.GenerationSoftware,KiCad,Pcbnew,6.0.8-f2edbf62ab~116~ubuntu20.04.1*
G04 #@! TF.CreationDate,2022-10-17T13:25:48+07:00*
G04 #@! TF.ProjectId,IN-8,494e2d38-2e6b-4696-9361-645f70636258,rev?*
G04 #@! TF.SameCoordinates,Original*
G04 #@! TF.FileFunction,Legend,Bot*
G04 #@! TF.FilePolarity,Positive*
%FSLAX46Y46*%
G04 Gerber Fmt 4.6, Leading zero omitted, Abs format (unit mm)*
G04 Created by KiCad (PCBNEW 6.0.8-f2edbf62ab~116~ubuntu20.04.1) date 2022-10-17 13:25:48*
%MOMM*%
%LPD*%
G01*
G04 APERTURE LIST*
%ADD10C,0.150000*%
%ADD11C,0.120000*%
%ADD12C,0.127000*%
%ADD13C,0.200000*%
G04 APERTURE END LIST*
D10*
X136041678Y-41889880D02*
X136613107Y-41889880D01*
X136327392Y-41889880D02*
X136327392Y-40889880D01*
X136422630Y-41032738D01*
X136517869Y-41127976D01*
X136613107Y-41175595D01*
X135136916Y-40889880D02*
X135613107Y-40889880D01*
X135660726Y-41366071D01*
X135613107Y-41318452D01*
X135517869Y-41270833D01*
X135279773Y-41270833D01*
X135184535Y-41318452D01*
X135136916Y-41366071D01*
X135089297Y-41461309D01*
X135089297Y-41699404D01*
X135136916Y-41794642D01*
X135184535Y-41842261D01*
X135279773Y-41889880D01*
X135517869Y-41889880D01*
X135613107Y-41842261D01*
X135660726Y-41794642D01*
X134660726Y-41794642D02*
X134613107Y-41842261D01*
X134660726Y-41889880D01*
X134708345Y-41842261D01*
X134660726Y-41794642D01*
X134660726Y-41889880D01*
X133660726Y-41889880D02*
X134232154Y-41889880D01*
X133946440Y-41889880D02*
X133946440Y-40889880D01*
X134041678Y-41032738D01*
X134136916Y-41127976D01*
X134232154Y-41175595D01*
X133041678Y-40889880D02*
X132946440Y-40889880D01*
X132851202Y-40937500D01*
X132803583Y-40985119D01*
X132755964Y-41080357D01*
X132708345Y-41270833D01*
X132708345Y-41508928D01*
X132755964Y-41699404D01*
X132803583Y-41794642D01*
X132851202Y-41842261D01*
X132946440Y-41889880D01*
X133041678Y-41889880D01*
X133136916Y-41842261D01*
X133184535Y-41794642D01*
X133232154Y-41699404D01*
X133279773Y-41508928D01*
X133279773Y-41270833D01*
X133232154Y-41080357D01*
X133184535Y-40985119D01*
X133136916Y-40937500D01*
X133041678Y-40889880D01*
X132279773Y-41794642D02*
X132232154Y-41842261D01*
X132279773Y-41889880D01*
X132327392Y-41842261D01*
X132279773Y-41794642D01*
X132279773Y-41889880D01*
X131851202Y-40985119D02*
X131803583Y-40937500D01*
X131708345Y-40889880D01*
X131470250Y-40889880D01*
X131375011Y-40937500D01*
X131327392Y-40985119D01*
X131279773Y-41080357D01*
X131279773Y-41175595D01*
X131327392Y-41318452D01*
X131898821Y-41889880D01*
X131279773Y-41889880D01*
X130898821Y-40985119D02*
X130851202Y-40937500D01*
X130755964Y-40889880D01*
X130517869Y-40889880D01*
X130422630Y-40937500D01*
X130375011Y-40985119D01*
X130327392Y-41080357D01*
X130327392Y-41175595D01*
X130375011Y-41318452D01*
X130946440Y-41889880D01*
X130327392Y-41889880D01*
X149965514Y-31976511D02*
X150013133Y-31928892D01*
X150108371Y-31881273D01*
X150203609Y-31881273D01*
X150298848Y-31928892D01*
X150346467Y-31976511D01*
X150394086Y-32071749D01*
X150394086Y-32166987D01*
X150346467Y-32262225D01*
X150298848Y-32309844D01*
X150203609Y-32357463D01*
X150108371Y-32357463D01*
X150013133Y-32309844D01*
X149965514Y-32262225D01*
X149965514Y-31881273D02*
X149965514Y-32262225D01*
X149917895Y-32309844D01*
X149870276Y-32309844D01*
X149775038Y-32262225D01*
X149727419Y-32166987D01*
X149727419Y-31928892D01*
X149822657Y-31786035D01*
X149965514Y-31690797D01*
X150155990Y-31643178D01*
X150346467Y-31690797D01*
X150489324Y-31786035D01*
X150584562Y-31928892D01*
X150632181Y-32119368D01*
X150584562Y-32309844D01*
X150489324Y-32452701D01*
X150346467Y-32547940D01*
X150155990Y-32595559D01*
X149965514Y-32547940D01*
X149822657Y-32452701D01*
X148727419Y-32357463D02*
X148775038Y-32405082D01*
X148917895Y-32452701D01*
X149013133Y-32452701D01*
X149155990Y-32405082D01*
X149251228Y-32309844D01*
X149298848Y-32214606D01*
X149346467Y-32024130D01*
X149346467Y-31881273D01*
X149298848Y-31690797D01*
X149251228Y-31595559D01*
X149155990Y-31500321D01*
X149013133Y-31452701D01*
X148917895Y-31452701D01*
X148775038Y-31500321D01*
X148727419Y-31547940D01*
X147870276Y-31786035D02*
X147870276Y-32452701D01*
X148298848Y-31786035D02*
X148298848Y-32309844D01*
X148251228Y-32405082D01*
X148155990Y-32452701D01*
X148013133Y-32452701D01*
X147917895Y-32405082D01*
X147870276Y-32357463D01*
X147632181Y-32547940D02*
X146870276Y-32547940D01*
X146679800Y-32405082D02*
X146536943Y-32452701D01*
X146298848Y-32452701D01*
X146203609Y-32405082D01*
X146155990Y-32357463D01*
X146108371Y-32262225D01*
X146108371Y-32166987D01*
X146155990Y-32071749D01*
X146203609Y-32024130D01*
X146298848Y-31976511D01*
X146489324Y-31928892D01*
X146584562Y-31881273D01*
X146632181Y-31833654D01*
X146679800Y-31738416D01*
X146679800Y-31643178D01*
X146632181Y-31547940D01*
X146584562Y-31500321D01*
X146489324Y-31452701D01*
X146251228Y-31452701D01*
X146108371Y-31500321D01*
X145775038Y-31786035D02*
X145536943Y-32452701D01*
X145298848Y-31786035D02*
X145536943Y-32452701D01*
X145632181Y-32690797D01*
X145679800Y-32738416D01*
X145775038Y-32786035D01*
X144917895Y-31786035D02*
X144917895Y-32452701D01*
X144917895Y-31881273D02*
X144870276Y-31833654D01*
X144775038Y-31786035D01*
X144632181Y-31786035D01*
X144536943Y-31833654D01*
X144489324Y-31928892D01*
X144489324Y-32452701D01*
X144155990Y-31786035D02*
X143775038Y-31786035D01*
X144013133Y-31452701D02*
X144013133Y-32309844D01*
X143965514Y-32405082D01*
X143870276Y-32452701D01*
X143775038Y-32452701D01*
X143441705Y-32452701D02*
X143441705Y-31452701D01*
X143013133Y-32452701D02*
X143013133Y-31928892D01*
X143060752Y-31833654D01*
X143155990Y-31786035D01*
X143298848Y-31786035D01*
X143394086Y-31833654D01*
X143441705Y-31881273D01*
X174312880Y-53837642D02*
X173836690Y-53504309D01*
X174312880Y-53266214D02*
X173312880Y-53266214D01*
X173312880Y-53647166D01*
X173360500Y-53742404D01*
X173408119Y-53790023D01*
X173503357Y-53837642D01*
X173646214Y-53837642D01*
X173741452Y-53790023D01*
X173789071Y-53742404D01*
X173836690Y-53647166D01*
X173836690Y-53266214D01*
X174312880Y-54790023D02*
X174312880Y-54218595D01*
X174312880Y-54504309D02*
X173312880Y-54504309D01*
X173455738Y-54409071D01*
X173550976Y-54313833D01*
X173598595Y-54218595D01*
X173408119Y-55170976D02*
X173360500Y-55218595D01*
X173312880Y-55313833D01*
X173312880Y-55551928D01*
X173360500Y-55647166D01*
X173408119Y-55694785D01*
X173503357Y-55742404D01*
X173598595Y-55742404D01*
X173741452Y-55694785D01*
X174312880Y-55123357D01*
X174312880Y-55742404D01*
X171512880Y-62437642D02*
X171036690Y-62104309D01*
X171512880Y-61866214D02*
X170512880Y-61866214D01*
X170512880Y-62247166D01*
X170560500Y-62342404D01*
X170608119Y-62390023D01*
X170703357Y-62437642D01*
X170846214Y-62437642D01*
X170941452Y-62390023D01*
X170989071Y-62342404D01*
X171036690Y-62247166D01*
X171036690Y-61866214D01*
X171512880Y-63390023D02*
X171512880Y-62818595D01*
X171512880Y-63104309D02*
X170512880Y-63104309D01*
X170655738Y-63009071D01*
X170750976Y-62913833D01*
X170798595Y-62818595D01*
X170941452Y-63961452D02*
X170893833Y-63866214D01*
X170846214Y-63818595D01*
X170750976Y-63770976D01*
X170703357Y-63770976D01*
X170608119Y-63818595D01*
X170560500Y-63866214D01*
X170512880Y-63961452D01*
X170512880Y-64151928D01*
X170560500Y-64247166D01*
X170608119Y-64294785D01*
X170703357Y-64342404D01*
X170750976Y-64342404D01*
X170846214Y-64294785D01*
X170893833Y-64247166D01*
X170941452Y-64151928D01*
X170941452Y-63961452D01*
X170989071Y-63866214D01*
X171036690Y-63818595D01*
X171131928Y-63770976D01*
X171322404Y-63770976D01*
X171417642Y-63818595D01*
X171465261Y-63866214D01*
X171512880Y-63961452D01*
X171512880Y-64151928D01*
X171465261Y-64247166D01*
X171417642Y-64294785D01*
X171322404Y-64342404D01*
X171131928Y-64342404D01*
X171036690Y-64294785D01*
X170989071Y-64247166D01*
X170941452Y-64151928D01*
X163512880Y-33785261D02*
X162512880Y-33785261D01*
X162512880Y-34166214D01*
X162560500Y-34261452D01*
X162608119Y-34309071D01*
X162703357Y-34356690D01*
X162846214Y-34356690D01*
X162941452Y-34309071D01*
X162989071Y-34261452D01*
X163036690Y-34166214D01*
X163036690Y-33785261D01*
X162846214Y-34690023D02*
X163512880Y-34880500D01*
X163036690Y-35070976D01*
X163512880Y-35261452D01*
X162846214Y-35451928D01*
X163512880Y-35832880D02*
X162846214Y-35832880D01*
X163036690Y-35832880D02*
X162941452Y-35880500D01*
X162893833Y-35928119D01*
X162846214Y-36023357D01*
X162846214Y-36118595D01*
X182246107Y-37317880D02*
X182579440Y-36841690D01*
X182817535Y-37317880D02*
X182817535Y-36317880D01*
X182436583Y-36317880D01*
X182341345Y-36365500D01*
X182293726Y-36413119D01*
X182246107Y-36508357D01*
X182246107Y-36651214D01*
X182293726Y-36746452D01*
X182341345Y-36794071D01*
X182436583Y-36841690D01*
X182817535Y-36841690D01*
X181865154Y-36413119D02*
X181817535Y-36365500D01*
X181722297Y-36317880D01*
X181484202Y-36317880D01*
X181388964Y-36365500D01*
X181341345Y-36413119D01*
X181293726Y-36508357D01*
X181293726Y-36603595D01*
X181341345Y-36746452D01*
X181912773Y-37317880D01*
X181293726Y-37317880D01*
X180436583Y-36651214D02*
X180436583Y-37317880D01*
X180674678Y-36270261D02*
X180912773Y-36984547D01*
X180293726Y-36984547D01*
X157427166Y-60732880D02*
X157760500Y-60256690D01*
X157998595Y-60732880D02*
X157998595Y-59732880D01*
X157617642Y-59732880D01*
X157522404Y-59780500D01*
X157474785Y-59828119D01*
X157427166Y-59923357D01*
X157427166Y-60066214D01*
X157474785Y-60161452D01*
X157522404Y-60209071D01*
X157617642Y-60256690D01*
X157998595Y-60256690D01*
X156855738Y-60161452D02*
X156950976Y-60113833D01*
X156998595Y-60066214D01*
X157046214Y-59970976D01*
X157046214Y-59923357D01*
X156998595Y-59828119D01*
X156950976Y-59780500D01*
X156855738Y-59732880D01*
X156665261Y-59732880D01*
X156570023Y-59780500D01*
X156522404Y-59828119D01*
X156474785Y-59923357D01*
X156474785Y-59970976D01*
X156522404Y-60066214D01*
X156570023Y-60113833D01*
X156665261Y-60161452D01*
X156855738Y-60161452D01*
X156950976Y-60209071D01*
X156998595Y-60256690D01*
X157046214Y-60351928D01*
X157046214Y-60542404D01*
X156998595Y-60637642D01*
X156950976Y-60685261D01*
X156855738Y-60732880D01*
X156665261Y-60732880D01*
X156570023Y-60685261D01*
X156522404Y-60637642D01*
X156474785Y-60542404D01*
X156474785Y-60351928D01*
X156522404Y-60256690D01*
X156570023Y-60209071D01*
X156665261Y-60161452D01*
X160912880Y-35185261D02*
X160436690Y-34851928D01*
X160912880Y-34613833D02*
X159912880Y-34613833D01*
X159912880Y-34994785D01*
X159960500Y-35090023D01*
X160008119Y-35137642D01*
X160103357Y-35185261D01*
X160246214Y-35185261D01*
X160341452Y-35137642D01*
X160389071Y-35090023D01*
X160436690Y-34994785D01*
X160436690Y-34613833D01*
X160912880Y-35518595D02*
X160246214Y-36042404D01*
X160246214Y-35518595D02*
X160912880Y-36042404D01*
X173703357Y-60732880D02*
X174036690Y-60256690D01*
X174274785Y-60732880D02*
X174274785Y-59732880D01*
X173893833Y-59732880D01*
X173798595Y-59780500D01*
X173750976Y-59828119D01*
X173703357Y-59923357D01*
X173703357Y-60066214D01*
X173750976Y-60161452D01*
X173798595Y-60209071D01*
X173893833Y-60256690D01*
X174274785Y-60256690D01*
X172750976Y-60732880D02*
X173322404Y-60732880D01*
X173036690Y-60732880D02*
X173036690Y-59732880D01*
X173131928Y-59875738D01*
X173227166Y-59970976D01*
X173322404Y-60018595D01*
X171893833Y-59732880D02*
X172084309Y-59732880D01*
X172179547Y-59780500D01*
X172227166Y-59828119D01*
X172322404Y-59970976D01*
X172370023Y-60161452D01*
X172370023Y-60542404D01*
X172322404Y-60637642D01*
X172274785Y-60685261D01*
X172179547Y-60732880D01*
X171989071Y-60732880D01*
X171893833Y-60685261D01*
X171846214Y-60637642D01*
X171798595Y-60542404D01*
X171798595Y-60304309D01*
X171846214Y-60209071D01*
X171893833Y-60161452D01*
X171989071Y-60113833D01*
X172179547Y-60113833D01*
X172274785Y-60161452D01*
X172322404Y-60209071D01*
X172370023Y-60304309D01*
X156208119Y-62785261D02*
X156160500Y-62690023D01*
X156065261Y-62594785D01*
X155922404Y-62451928D01*
X155874785Y-62356690D01*
X155874785Y-62261452D01*
X156112880Y-62309071D02*
X156065261Y-62213833D01*
X155970023Y-62118595D01*
X155779547Y-62070976D01*
X155446214Y-62070976D01*
X155255738Y-62118595D01*
X155160500Y-62213833D01*
X155112880Y-62309071D01*
X155112880Y-62499547D01*
X155160500Y-62594785D01*
X155255738Y-62690023D01*
X155446214Y-62737642D01*
X155779547Y-62737642D01*
X155970023Y-62690023D01*
X156065261Y-62594785D01*
X156112880Y-62499547D01*
X156112880Y-62309071D01*
X155112880Y-63642404D02*
X155112880Y-63166214D01*
X155589071Y-63118595D01*
X155541452Y-63166214D01*
X155493833Y-63261452D01*
X155493833Y-63499547D01*
X155541452Y-63594785D01*
X155589071Y-63642404D01*
X155684309Y-63690023D01*
X155922404Y-63690023D01*
X156017642Y-63642404D01*
X156065261Y-63594785D01*
X156112880Y-63499547D01*
X156112880Y-63261452D01*
X156065261Y-63166214D01*
X156017642Y-63118595D01*
X167408119Y-57309071D02*
X167360500Y-57213833D01*
X167265261Y-57118595D01*
X167122404Y-56975738D01*
X167074785Y-56880500D01*
X167074785Y-56785261D01*
X167312880Y-56832880D02*
X167265261Y-56737642D01*
X167170023Y-56642404D01*
X166979547Y-56594785D01*
X166646214Y-56594785D01*
X166455738Y-56642404D01*
X166360500Y-56737642D01*
X166312880Y-56832880D01*
X166312880Y-57023357D01*
X166360500Y-57118595D01*
X166455738Y-57213833D01*
X166646214Y-57261452D01*
X166979547Y-57261452D01*
X167170023Y-57213833D01*
X167265261Y-57118595D01*
X167312880Y-57023357D01*
X167312880Y-56832880D01*
X167312880Y-58213833D02*
X167312880Y-57642404D01*
X167312880Y-57928119D02*
X166312880Y-57928119D01*
X166455738Y-57832880D01*
X166550976Y-57737642D01*
X166598595Y-57642404D01*
X166646214Y-59070976D02*
X167312880Y-59070976D01*
X166265261Y-58832880D02*
X166979547Y-58594785D01*
X166979547Y-59213833D01*
X159608119Y-62785261D02*
X159560500Y-62690023D01*
X159465261Y-62594785D01*
X159322404Y-62451928D01*
X159274785Y-62356690D01*
X159274785Y-62261452D01*
X159512880Y-62309071D02*
X159465261Y-62213833D01*
X159370023Y-62118595D01*
X159179547Y-62070976D01*
X158846214Y-62070976D01*
X158655738Y-62118595D01*
X158560500Y-62213833D01*
X158512880Y-62309071D01*
X158512880Y-62499547D01*
X158560500Y-62594785D01*
X158655738Y-62690023D01*
X158846214Y-62737642D01*
X159179547Y-62737642D01*
X159370023Y-62690023D01*
X159465261Y-62594785D01*
X159512880Y-62499547D01*
X159512880Y-62309071D01*
X158512880Y-63594785D02*
X158512880Y-63404309D01*
X158560500Y-63309071D01*
X158608119Y-63261452D01*
X158750976Y-63166214D01*
X158941452Y-63118595D01*
X159322404Y-63118595D01*
X159417642Y-63166214D01*
X159465261Y-63213833D01*
X159512880Y-63309071D01*
X159512880Y-63499547D01*
X159465261Y-63594785D01*
X159417642Y-63642404D01*
X159322404Y-63690023D01*
X159084309Y-63690023D01*
X158989071Y-63642404D01*
X158941452Y-63594785D01*
X158893833Y-63499547D01*
X158893833Y-63309071D01*
X158941452Y-63213833D01*
X158989071Y-63166214D01*
X159084309Y-63118595D01*
X168103357Y-60732880D02*
X168436690Y-60256690D01*
X168674785Y-60732880D02*
X168674785Y-59732880D01*
X168293833Y-59732880D01*
X168198595Y-59780500D01*
X168150976Y-59828119D01*
X168103357Y-59923357D01*
X168103357Y-60066214D01*
X168150976Y-60161452D01*
X168198595Y-60209071D01*
X168293833Y-60256690D01*
X168674785Y-60256690D01*
X167150976Y-60732880D02*
X167722404Y-60732880D01*
X167436690Y-60732880D02*
X167436690Y-59732880D01*
X167531928Y-59875738D01*
X167627166Y-59970976D01*
X167722404Y-60018595D01*
X166293833Y-60066214D02*
X166293833Y-60732880D01*
X166531928Y-59685261D02*
X166770023Y-60399547D01*
X166150976Y-60399547D01*
X145008119Y-57785261D02*
X144960500Y-57690023D01*
X144865261Y-57594785D01*
X144722404Y-57451928D01*
X144674785Y-57356690D01*
X144674785Y-57261452D01*
X144912880Y-57309071D02*
X144865261Y-57213833D01*
X144770023Y-57118595D01*
X144579547Y-57070976D01*
X144246214Y-57070976D01*
X144055738Y-57118595D01*
X143960500Y-57213833D01*
X143912880Y-57309071D01*
X143912880Y-57499547D01*
X143960500Y-57594785D01*
X144055738Y-57690023D01*
X144246214Y-57737642D01*
X144579547Y-57737642D01*
X144770023Y-57690023D01*
X144865261Y-57594785D01*
X144912880Y-57499547D01*
X144912880Y-57309071D01*
X144912880Y-58690023D02*
X144912880Y-58118595D01*
X144912880Y-58404309D02*
X143912880Y-58404309D01*
X144055738Y-58309071D01*
X144150976Y-58213833D01*
X144198595Y-58118595D01*
X143758119Y-62722761D02*
X143710500Y-62627523D01*
X143615261Y-62532285D01*
X143472404Y-62389428D01*
X143424785Y-62294190D01*
X143424785Y-62198952D01*
X143662880Y-62246571D02*
X143615261Y-62151333D01*
X143520023Y-62056095D01*
X143329547Y-62008476D01*
X142996214Y-62008476D01*
X142805738Y-62056095D01*
X142710500Y-62151333D01*
X142662880Y-62246571D01*
X142662880Y-62437047D01*
X142710500Y-62532285D01*
X142805738Y-62627523D01*
X142996214Y-62675142D01*
X143329547Y-62675142D01*
X143520023Y-62627523D01*
X143615261Y-62532285D01*
X143662880Y-62437047D01*
X143662880Y-62246571D01*
X142662880Y-63008476D02*
X142662880Y-63627523D01*
X143043833Y-63294190D01*
X143043833Y-63437047D01*
X143091452Y-63532285D01*
X143139071Y-63579904D01*
X143234309Y-63627523D01*
X143472404Y-63627523D01*
X143567642Y-63579904D01*
X143615261Y-63532285D01*
X143662880Y-63437047D01*
X143662880Y-63151333D01*
X143615261Y-63056095D01*
X143567642Y-63008476D01*
X158903357Y-34132880D02*
X159236690Y-33656690D01*
X159474785Y-34132880D02*
X159474785Y-33132880D01*
X159093833Y-33132880D01*
X158998595Y-33180500D01*
X158950976Y-33228119D01*
X158903357Y-33323357D01*
X158903357Y-33466214D01*
X158950976Y-33561452D01*
X158998595Y-33609071D01*
X159093833Y-33656690D01*
X159474785Y-33656690D01*
X158522404Y-33228119D02*
X158474785Y-33180500D01*
X158379547Y-33132880D01*
X158141452Y-33132880D01*
X158046214Y-33180500D01*
X157998595Y-33228119D01*
X157950976Y-33323357D01*
X157950976Y-33418595D01*
X157998595Y-33561452D01*
X158570023Y-34132880D01*
X157950976Y-34132880D01*
X157046214Y-33132880D02*
X157522404Y-33132880D01*
X157570023Y-33609071D01*
X157522404Y-33561452D01*
X157427166Y-33513833D01*
X157189071Y-33513833D01*
X157093833Y-33561452D01*
X157046214Y-33609071D01*
X156998595Y-33704309D01*
X156998595Y-33942404D01*
X157046214Y-34037642D01*
X157093833Y-34085261D01*
X157189071Y-34132880D01*
X157427166Y-34132880D01*
X157522404Y-34085261D01*
X157570023Y-34037642D01*
X169831928Y-52628119D02*
X169927166Y-52580500D01*
X170022404Y-52485261D01*
X170165261Y-52342404D01*
X170260500Y-52294785D01*
X170355738Y-52294785D01*
X170308119Y-52532880D02*
X170403357Y-52485261D01*
X170498595Y-52390023D01*
X170546214Y-52199547D01*
X170546214Y-51866214D01*
X170498595Y-51675738D01*
X170403357Y-51580500D01*
X170308119Y-51532880D01*
X170117642Y-51532880D01*
X170022404Y-51580500D01*
X169927166Y-51675738D01*
X169879547Y-51866214D01*
X169879547Y-52199547D01*
X169927166Y-52390023D01*
X170022404Y-52485261D01*
X170117642Y-52532880D01*
X170308119Y-52532880D01*
X168927166Y-52532880D02*
X169498595Y-52532880D01*
X169212880Y-52532880D02*
X169212880Y-51532880D01*
X169308119Y-51675738D01*
X169403357Y-51770976D01*
X169498595Y-51818595D01*
X168593833Y-51532880D02*
X167974785Y-51532880D01*
X168308119Y-51913833D01*
X168165261Y-51913833D01*
X168070023Y-51961452D01*
X168022404Y-52009071D01*
X167974785Y-52104309D01*
X167974785Y-52342404D01*
X168022404Y-52437642D01*
X168070023Y-52485261D01*
X168165261Y-52532880D01*
X168450976Y-52532880D01*
X168546214Y-52485261D01*
X168593833Y-52437642D01*
X164703357Y-60732880D02*
X165036690Y-60256690D01*
X165274785Y-60732880D02*
X165274785Y-59732880D01*
X164893833Y-59732880D01*
X164798595Y-59780500D01*
X164750976Y-59828119D01*
X164703357Y-59923357D01*
X164703357Y-60066214D01*
X164750976Y-60161452D01*
X164798595Y-60209071D01*
X164893833Y-60256690D01*
X165274785Y-60256690D01*
X163750976Y-60732880D02*
X164322404Y-60732880D01*
X164036690Y-60732880D02*
X164036690Y-59732880D01*
X164131928Y-59875738D01*
X164227166Y-59970976D01*
X164322404Y-60018595D01*
X163417642Y-59732880D02*
X162798595Y-59732880D01*
X163131928Y-60113833D01*
X162989071Y-60113833D01*
X162893833Y-60161452D01*
X162846214Y-60209071D01*
X162798595Y-60304309D01*
X162798595Y-60542404D01*
X162846214Y-60637642D01*
X162893833Y-60685261D01*
X162989071Y-60732880D01*
X163274785Y-60732880D01*
X163370023Y-60685261D01*
X163417642Y-60637642D01*
X169808119Y-62785261D02*
X169760500Y-62690023D01*
X169665261Y-62594785D01*
X169522404Y-62451928D01*
X169474785Y-62356690D01*
X169474785Y-62261452D01*
X169712880Y-62309071D02*
X169665261Y-62213833D01*
X169570023Y-62118595D01*
X169379547Y-62070976D01*
X169046214Y-62070976D01*
X168855738Y-62118595D01*
X168760500Y-62213833D01*
X168712880Y-62309071D01*
X168712880Y-62499547D01*
X168760500Y-62594785D01*
X168855738Y-62690023D01*
X169046214Y-62737642D01*
X169379547Y-62737642D01*
X169570023Y-62690023D01*
X169665261Y-62594785D01*
X169712880Y-62499547D01*
X169712880Y-62309071D01*
X169712880Y-63213833D02*
X169712880Y-63404309D01*
X169665261Y-63499547D01*
X169617642Y-63547166D01*
X169474785Y-63642404D01*
X169284309Y-63690023D01*
X168903357Y-63690023D01*
X168808119Y-63642404D01*
X168760500Y-63594785D01*
X168712880Y-63499547D01*
X168712880Y-63309071D01*
X168760500Y-63213833D01*
X168808119Y-63166214D01*
X168903357Y-63118595D01*
X169141452Y-63118595D01*
X169236690Y-63166214D01*
X169284309Y-63213833D01*
X169331928Y-63309071D01*
X169331928Y-63499547D01*
X169284309Y-63594785D01*
X169236690Y-63642404D01*
X169141452Y-63690023D01*
X178808119Y-62109071D02*
X178760500Y-62013833D01*
X178665261Y-61918595D01*
X178522404Y-61775738D01*
X178474785Y-61680500D01*
X178474785Y-61585261D01*
X178712880Y-61632880D02*
X178665261Y-61537642D01*
X178570023Y-61442404D01*
X178379547Y-61394785D01*
X178046214Y-61394785D01*
X177855738Y-61442404D01*
X177760500Y-61537642D01*
X177712880Y-61632880D01*
X177712880Y-61823357D01*
X177760500Y-61918595D01*
X177855738Y-62013833D01*
X178046214Y-62061452D01*
X178379547Y-62061452D01*
X178570023Y-62013833D01*
X178665261Y-61918595D01*
X178712880Y-61823357D01*
X178712880Y-61632880D01*
X178712880Y-63013833D02*
X178712880Y-62442404D01*
X178712880Y-62728119D02*
X177712880Y-62728119D01*
X177855738Y-62632880D01*
X177950976Y-62537642D01*
X177998595Y-62442404D01*
X177712880Y-63632880D02*
X177712880Y-63728119D01*
X177760500Y-63823357D01*
X177808119Y-63870976D01*
X177903357Y-63918595D01*
X178093833Y-63966214D01*
X178331928Y-63966214D01*
X178522404Y-63918595D01*
X178617642Y-63870976D01*
X178665261Y-63823357D01*
X178712880Y-63728119D01*
X178712880Y-63632880D01*
X178665261Y-63537642D01*
X178617642Y-63490023D01*
X178522404Y-63442404D01*
X178331928Y-63394785D01*
X178093833Y-63394785D01*
X177903357Y-63442404D01*
X177808119Y-63490023D01*
X177760500Y-63537642D01*
X177712880Y-63632880D01*
X144977166Y-60532880D02*
X145310500Y-60056690D01*
X145548595Y-60532880D02*
X145548595Y-59532880D01*
X145167642Y-59532880D01*
X145072404Y-59580500D01*
X145024785Y-59628119D01*
X144977166Y-59723357D01*
X144977166Y-59866214D01*
X145024785Y-59961452D01*
X145072404Y-60009071D01*
X145167642Y-60056690D01*
X145548595Y-60056690D01*
X144024785Y-60532880D02*
X144596214Y-60532880D01*
X144310500Y-60532880D02*
X144310500Y-59532880D01*
X144405738Y-59675738D01*
X144500976Y-59770976D01*
X144596214Y-59818595D01*
X182246107Y-52938880D02*
X182579440Y-52462690D01*
X182817535Y-52938880D02*
X182817535Y-51938880D01*
X182436583Y-51938880D01*
X182341345Y-51986500D01*
X182293726Y-52034119D01*
X182246107Y-52129357D01*
X182246107Y-52272214D01*
X182293726Y-52367452D01*
X182341345Y-52415071D01*
X182436583Y-52462690D01*
X182817535Y-52462690D01*
X181865154Y-52034119D02*
X181817535Y-51986500D01*
X181722297Y-51938880D01*
X181484202Y-51938880D01*
X181388964Y-51986500D01*
X181341345Y-52034119D01*
X181293726Y-52129357D01*
X181293726Y-52224595D01*
X181341345Y-52367452D01*
X181912773Y-52938880D01*
X181293726Y-52938880D01*
X180960392Y-51938880D02*
X180341345Y-51938880D01*
X180674678Y-52319833D01*
X180531821Y-52319833D01*
X180436583Y-52367452D01*
X180388964Y-52415071D01*
X180341345Y-52510309D01*
X180341345Y-52748404D01*
X180388964Y-52843642D01*
X180436583Y-52891261D01*
X180531821Y-52938880D01*
X180817535Y-52938880D01*
X180912773Y-52891261D01*
X180960392Y-52843642D01*
X175208119Y-62109071D02*
X175160500Y-62013833D01*
X175065261Y-61918595D01*
X174922404Y-61775738D01*
X174874785Y-61680500D01*
X174874785Y-61585261D01*
X175112880Y-61632880D02*
X175065261Y-61537642D01*
X174970023Y-61442404D01*
X174779547Y-61394785D01*
X174446214Y-61394785D01*
X174255738Y-61442404D01*
X174160500Y-61537642D01*
X174112880Y-61632880D01*
X174112880Y-61823357D01*
X174160500Y-61918595D01*
X174255738Y-62013833D01*
X174446214Y-62061452D01*
X174779547Y-62061452D01*
X174970023Y-62013833D01*
X175065261Y-61918595D01*
X175112880Y-61823357D01*
X175112880Y-61632880D01*
X175112880Y-63013833D02*
X175112880Y-62442404D01*
X175112880Y-62728119D02*
X174112880Y-62728119D01*
X174255738Y-62632880D01*
X174350976Y-62537642D01*
X174398595Y-62442404D01*
X175112880Y-63966214D02*
X175112880Y-63394785D01*
X175112880Y-63680500D02*
X174112880Y-63680500D01*
X174255738Y-63585261D01*
X174350976Y-63490023D01*
X174398595Y-63394785D01*
X142912880Y-54313833D02*
X142436690Y-53980500D01*
X142912880Y-53742404D02*
X141912880Y-53742404D01*
X141912880Y-54123357D01*
X141960500Y-54218595D01*
X142008119Y-54266214D01*
X142103357Y-54313833D01*
X142246214Y-54313833D01*
X142341452Y-54266214D01*
X142389071Y-54218595D01*
X142436690Y-54123357D01*
X142436690Y-53742404D01*
X141912880Y-54647166D02*
X141912880Y-55266214D01*
X142293833Y-54932880D01*
X142293833Y-55075738D01*
X142341452Y-55170976D01*
X142389071Y-55218595D01*
X142484309Y-55266214D01*
X142722404Y-55266214D01*
X142817642Y-55218595D01*
X142865261Y-55170976D01*
X142912880Y-55075738D01*
X142912880Y-54790023D01*
X142865261Y-54694785D01*
X142817642Y-54647166D01*
X163008119Y-62785261D02*
X162960500Y-62690023D01*
X162865261Y-62594785D01*
X162722404Y-62451928D01*
X162674785Y-62356690D01*
X162674785Y-62261452D01*
X162912880Y-62309071D02*
X162865261Y-62213833D01*
X162770023Y-62118595D01*
X162579547Y-62070976D01*
X162246214Y-62070976D01*
X162055738Y-62118595D01*
X161960500Y-62213833D01*
X161912880Y-62309071D01*
X161912880Y-62499547D01*
X161960500Y-62594785D01*
X162055738Y-62690023D01*
X162246214Y-62737642D01*
X162579547Y-62737642D01*
X162770023Y-62690023D01*
X162865261Y-62594785D01*
X162912880Y-62499547D01*
X162912880Y-62309071D01*
X161912880Y-63070976D02*
X161912880Y-63737642D01*
X162912880Y-63309071D01*
X144654107Y-43533880D02*
X144987440Y-43057690D01*
X145225535Y-43533880D02*
X145225535Y-42533880D01*
X144844583Y-42533880D01*
X144749345Y-42581500D01*
X144701726Y-42629119D01*
X144654107Y-42724357D01*
X144654107Y-42867214D01*
X144701726Y-42962452D01*
X144749345Y-43010071D01*
X144844583Y-43057690D01*
X145225535Y-43057690D01*
X143701726Y-43533880D02*
X144273154Y-43533880D01*
X143987440Y-43533880D02*
X143987440Y-42533880D01*
X144082678Y-42676738D01*
X144177916Y-42771976D01*
X144273154Y-42819595D01*
X143225535Y-43533880D02*
X143035059Y-43533880D01*
X142939821Y-43486261D01*
X142892202Y-43438642D01*
X142796964Y-43295785D01*
X142749345Y-43105309D01*
X142749345Y-42724357D01*
X142796964Y-42629119D01*
X142844583Y-42581500D01*
X142939821Y-42533880D01*
X143130297Y-42533880D01*
X143225535Y-42581500D01*
X143273154Y-42629119D01*
X143320773Y-42724357D01*
X143320773Y-42962452D01*
X143273154Y-43057690D01*
X143225535Y-43105309D01*
X143130297Y-43152928D01*
X142939821Y-43152928D01*
X142844583Y-43105309D01*
X142796964Y-43057690D01*
X142749345Y-42962452D01*
X156706630Y-19736142D02*
X156230440Y-19402809D01*
X156706630Y-19164714D02*
X155706630Y-19164714D01*
X155706630Y-19545666D01*
X155754250Y-19640904D01*
X155801869Y-19688523D01*
X155897107Y-19736142D01*
X156039964Y-19736142D01*
X156135202Y-19688523D01*
X156182821Y-19640904D01*
X156230440Y-19545666D01*
X156230440Y-19164714D01*
X155801869Y-20117095D02*
X155754250Y-20164714D01*
X155706630Y-20259952D01*
X155706630Y-20498047D01*
X155754250Y-20593285D01*
X155801869Y-20640904D01*
X155897107Y-20688523D01*
X155992345Y-20688523D01*
X156135202Y-20640904D01*
X156706630Y-20069476D01*
X156706630Y-20688523D01*
X155706630Y-21307571D02*
X155706630Y-21402809D01*
X155754250Y-21498047D01*
X155801869Y-21545666D01*
X155897107Y-21593285D01*
X156087583Y-21640904D01*
X156325678Y-21640904D01*
X156516154Y-21593285D01*
X156611392Y-21545666D01*
X156659011Y-21498047D01*
X156706630Y-21402809D01*
X156706630Y-21307571D01*
X156659011Y-21212333D01*
X156611392Y-21164714D01*
X156516154Y-21117095D01*
X156325678Y-21069476D01*
X156087583Y-21069476D01*
X155897107Y-21117095D01*
X155801869Y-21164714D01*
X155754250Y-21212333D01*
X155706630Y-21307571D01*
X167960500Y-37518595D02*
X167912880Y-37423357D01*
X167912880Y-37280500D01*
X167960500Y-37137642D01*
X168055738Y-37042404D01*
X168150976Y-36994785D01*
X168341452Y-36947166D01*
X168484309Y-36947166D01*
X168674785Y-36994785D01*
X168770023Y-37042404D01*
X168865261Y-37137642D01*
X168912880Y-37280500D01*
X168912880Y-37375738D01*
X168865261Y-37518595D01*
X168817642Y-37566214D01*
X168484309Y-37566214D01*
X168484309Y-37375738D01*
X168912880Y-37994785D02*
X167912880Y-37994785D01*
X168912880Y-38566214D01*
X167912880Y-38566214D01*
X168912880Y-39042404D02*
X167912880Y-39042404D01*
X167912880Y-39280500D01*
X167960500Y-39423357D01*
X168055738Y-39518595D01*
X168150976Y-39566214D01*
X168341452Y-39613833D01*
X168484309Y-39613833D01*
X168674785Y-39566214D01*
X168770023Y-39518595D01*
X168865261Y-39423357D01*
X168912880Y-39280500D01*
X168912880Y-39042404D01*
X151912880Y-54313833D02*
X151436690Y-53980500D01*
X151912880Y-53742404D02*
X150912880Y-53742404D01*
X150912880Y-54123357D01*
X150960500Y-54218595D01*
X151008119Y-54266214D01*
X151103357Y-54313833D01*
X151246214Y-54313833D01*
X151341452Y-54266214D01*
X151389071Y-54218595D01*
X151436690Y-54123357D01*
X151436690Y-53742404D01*
X150912880Y-55218595D02*
X150912880Y-54742404D01*
X151389071Y-54694785D01*
X151341452Y-54742404D01*
X151293833Y-54837642D01*
X151293833Y-55075738D01*
X151341452Y-55170976D01*
X151389071Y-55218595D01*
X151484309Y-55266214D01*
X151722404Y-55266214D01*
X151817642Y-55218595D01*
X151865261Y-55170976D01*
X151912880Y-55075738D01*
X151912880Y-54837642D01*
X151865261Y-54742404D01*
X151817642Y-54694785D01*
X148947142Y-46113833D02*
X148994761Y-46066214D01*
X149042380Y-45923357D01*
X149042380Y-45828119D01*
X148994761Y-45685261D01*
X148899523Y-45590023D01*
X148804285Y-45542404D01*
X148613809Y-45494785D01*
X148470952Y-45494785D01*
X148280476Y-45542404D01*
X148185238Y-45590023D01*
X148090000Y-45685261D01*
X148042380Y-45828119D01*
X148042380Y-45923357D01*
X148090000Y-46066214D01*
X148137619Y-46113833D01*
X149042380Y-47066214D02*
X149042380Y-46494785D01*
X149042380Y-46780500D02*
X148042380Y-46780500D01*
X148185238Y-46685261D01*
X148280476Y-46590023D01*
X148328095Y-46494785D01*
X170912880Y-38037642D02*
X170436690Y-37704309D01*
X170912880Y-37466214D02*
X169912880Y-37466214D01*
X169912880Y-37847166D01*
X169960500Y-37942404D01*
X170008119Y-37990023D01*
X170103357Y-38037642D01*
X170246214Y-38037642D01*
X170341452Y-37990023D01*
X170389071Y-37942404D01*
X170436690Y-37847166D01*
X170436690Y-37466214D01*
X170008119Y-38418595D02*
X169960500Y-38466214D01*
X169912880Y-38561452D01*
X169912880Y-38799547D01*
X169960500Y-38894785D01*
X170008119Y-38942404D01*
X170103357Y-38990023D01*
X170198595Y-38990023D01*
X170341452Y-38942404D01*
X170912880Y-38370976D01*
X170912880Y-38990023D01*
X169912880Y-39847166D02*
X169912880Y-39656690D01*
X169960500Y-39561452D01*
X170008119Y-39513833D01*
X170150976Y-39418595D01*
X170341452Y-39370976D01*
X170722404Y-39370976D01*
X170817642Y-39418595D01*
X170865261Y-39466214D01*
X170912880Y-39561452D01*
X170912880Y-39751928D01*
X170865261Y-39847166D01*
X170817642Y-39894785D01*
X170722404Y-39942404D01*
X170484309Y-39942404D01*
X170389071Y-39894785D01*
X170341452Y-39847166D01*
X170293833Y-39751928D01*
X170293833Y-39561452D01*
X170341452Y-39466214D01*
X170389071Y-39418595D01*
X170484309Y-39370976D01*
X165627166Y-34037642D02*
X165674785Y-34085261D01*
X165817642Y-34132880D01*
X165912880Y-34132880D01*
X166055738Y-34085261D01*
X166150976Y-33990023D01*
X166198595Y-33894785D01*
X166246214Y-33704309D01*
X166246214Y-33561452D01*
X166198595Y-33370976D01*
X166150976Y-33275738D01*
X166055738Y-33180500D01*
X165912880Y-33132880D01*
X165817642Y-33132880D01*
X165674785Y-33180500D01*
X165627166Y-33228119D01*
X165246214Y-33228119D02*
X165198595Y-33180500D01*
X165103357Y-33132880D01*
X164865261Y-33132880D01*
X164770023Y-33180500D01*
X164722404Y-33228119D01*
X164674785Y-33323357D01*
X164674785Y-33418595D01*
X164722404Y-33561452D01*
X165293833Y-34132880D01*
X164674785Y-34132880D01*
X170912880Y-42637642D02*
X170436690Y-42304309D01*
X170912880Y-42066214D02*
X169912880Y-42066214D01*
X169912880Y-42447166D01*
X169960500Y-42542404D01*
X170008119Y-42590023D01*
X170103357Y-42637642D01*
X170246214Y-42637642D01*
X170341452Y-42590023D01*
X170389071Y-42542404D01*
X170436690Y-42447166D01*
X170436690Y-42066214D01*
X170008119Y-43018595D02*
X169960500Y-43066214D01*
X169912880Y-43161452D01*
X169912880Y-43399547D01*
X169960500Y-43494785D01*
X170008119Y-43542404D01*
X170103357Y-43590023D01*
X170198595Y-43590023D01*
X170341452Y-43542404D01*
X170912880Y-42970976D01*
X170912880Y-43590023D01*
X169912880Y-43923357D02*
X169912880Y-44590023D01*
X170912880Y-44161452D01*
X166408119Y-62785261D02*
X166360500Y-62690023D01*
X166265261Y-62594785D01*
X166122404Y-62451928D01*
X166074785Y-62356690D01*
X166074785Y-62261452D01*
X166312880Y-62309071D02*
X166265261Y-62213833D01*
X166170023Y-62118595D01*
X165979547Y-62070976D01*
X165646214Y-62070976D01*
X165455738Y-62118595D01*
X165360500Y-62213833D01*
X165312880Y-62309071D01*
X165312880Y-62499547D01*
X165360500Y-62594785D01*
X165455738Y-62690023D01*
X165646214Y-62737642D01*
X165979547Y-62737642D01*
X166170023Y-62690023D01*
X166265261Y-62594785D01*
X166312880Y-62499547D01*
X166312880Y-62309071D01*
X165741452Y-63309071D02*
X165693833Y-63213833D01*
X165646214Y-63166214D01*
X165550976Y-63118595D01*
X165503357Y-63118595D01*
X165408119Y-63166214D01*
X165360500Y-63213833D01*
X165312880Y-63309071D01*
X165312880Y-63499547D01*
X165360500Y-63594785D01*
X165408119Y-63642404D01*
X165503357Y-63690023D01*
X165550976Y-63690023D01*
X165646214Y-63642404D01*
X165693833Y-63594785D01*
X165741452Y-63499547D01*
X165741452Y-63309071D01*
X165789071Y-63213833D01*
X165836690Y-63166214D01*
X165931928Y-63118595D01*
X166122404Y-63118595D01*
X166217642Y-63166214D01*
X166265261Y-63213833D01*
X166312880Y-63309071D01*
X166312880Y-63499547D01*
X166265261Y-63594785D01*
X166217642Y-63642404D01*
X166122404Y-63690023D01*
X165931928Y-63690023D01*
X165836690Y-63642404D01*
X165789071Y-63594785D01*
X165741452Y-63499547D01*
X177103357Y-60732880D02*
X177436690Y-60256690D01*
X177674785Y-60732880D02*
X177674785Y-59732880D01*
X177293833Y-59732880D01*
X177198595Y-59780500D01*
X177150976Y-59828119D01*
X177103357Y-59923357D01*
X177103357Y-60066214D01*
X177150976Y-60161452D01*
X177198595Y-60209071D01*
X177293833Y-60256690D01*
X177674785Y-60256690D01*
X176150976Y-60732880D02*
X176722404Y-60732880D01*
X176436690Y-60732880D02*
X176436690Y-59732880D01*
X176531928Y-59875738D01*
X176627166Y-59970976D01*
X176722404Y-60018595D01*
X175246214Y-59732880D02*
X175722404Y-59732880D01*
X175770023Y-60209071D01*
X175722404Y-60161452D01*
X175627166Y-60113833D01*
X175389071Y-60113833D01*
X175293833Y-60161452D01*
X175246214Y-60209071D01*
X175198595Y-60304309D01*
X175198595Y-60542404D01*
X175246214Y-60637642D01*
X175293833Y-60685261D01*
X175389071Y-60732880D01*
X175627166Y-60732880D01*
X175722404Y-60685261D01*
X175770023Y-60637642D01*
X177422404Y-37132880D02*
X177422404Y-37942404D01*
X177374785Y-38037642D01*
X177327166Y-38085261D01*
X177231928Y-38132880D01*
X177041452Y-38132880D01*
X176946214Y-38085261D01*
X176898595Y-38037642D01*
X176850976Y-37942404D01*
X176850976Y-37132880D01*
X176470023Y-37132880D02*
X175850976Y-37132880D01*
X176184309Y-37513833D01*
X176041452Y-37513833D01*
X175946214Y-37561452D01*
X175898595Y-37609071D01*
X175850976Y-37704309D01*
X175850976Y-37942404D01*
X175898595Y-38037642D01*
X175946214Y-38085261D01*
X176041452Y-38132880D01*
X176327166Y-38132880D01*
X176422404Y-38085261D01*
X176470023Y-38037642D01*
X182912880Y-46237642D02*
X182436690Y-45904309D01*
X182912880Y-45666214D02*
X181912880Y-45666214D01*
X181912880Y-46047166D01*
X181960500Y-46142404D01*
X182008119Y-46190023D01*
X182103357Y-46237642D01*
X182246214Y-46237642D01*
X182341452Y-46190023D01*
X182389071Y-46142404D01*
X182436690Y-46047166D01*
X182436690Y-45666214D01*
X182008119Y-46618595D02*
X181960500Y-46666214D01*
X181912880Y-46761452D01*
X181912880Y-46999547D01*
X181960500Y-47094785D01*
X182008119Y-47142404D01*
X182103357Y-47190023D01*
X182198595Y-47190023D01*
X182341452Y-47142404D01*
X182912880Y-46570976D01*
X182912880Y-47190023D01*
X182008119Y-47570976D02*
X181960500Y-47618595D01*
X181912880Y-47713833D01*
X181912880Y-47951928D01*
X181960500Y-48047166D01*
X182008119Y-48094785D01*
X182103357Y-48142404D01*
X182198595Y-48142404D01*
X182341452Y-48094785D01*
X182912880Y-47523357D01*
X182912880Y-48142404D01*
X174312880Y-57237642D02*
X173836690Y-56904309D01*
X174312880Y-56666214D02*
X173312880Y-56666214D01*
X173312880Y-57047166D01*
X173360500Y-57142404D01*
X173408119Y-57190023D01*
X173503357Y-57237642D01*
X173646214Y-57237642D01*
X173741452Y-57190023D01*
X173789071Y-57142404D01*
X173836690Y-57047166D01*
X173836690Y-56666214D01*
X174312880Y-58190023D02*
X174312880Y-57618595D01*
X174312880Y-57904309D02*
X173312880Y-57904309D01*
X173455738Y-57809071D01*
X173550976Y-57713833D01*
X173598595Y-57618595D01*
X174312880Y-59142404D02*
X174312880Y-58570976D01*
X174312880Y-58856690D02*
X173312880Y-58856690D01*
X173455738Y-58761452D01*
X173550976Y-58666214D01*
X173598595Y-58570976D01*
X154160869Y-36548071D02*
X154113250Y-36452833D01*
X154018011Y-36357595D01*
X153875154Y-36214738D01*
X153827535Y-36119500D01*
X153827535Y-36024261D01*
X154065630Y-36071880D02*
X154018011Y-35976642D01*
X153922773Y-35881404D01*
X153732297Y-35833785D01*
X153398964Y-35833785D01*
X153208488Y-35881404D01*
X153113250Y-35976642D01*
X153065630Y-36071880D01*
X153065630Y-36262357D01*
X153113250Y-36357595D01*
X153208488Y-36452833D01*
X153398964Y-36500452D01*
X153732297Y-36500452D01*
X153922773Y-36452833D01*
X154018011Y-36357595D01*
X154065630Y-36262357D01*
X154065630Y-36071880D01*
X154065630Y-37452833D02*
X154065630Y-36881404D01*
X154065630Y-37167119D02*
X153065630Y-37167119D01*
X153208488Y-37071880D01*
X153303726Y-36976642D01*
X153351345Y-36881404D01*
X153065630Y-38357595D02*
X153065630Y-37881404D01*
X153541821Y-37833785D01*
X153494202Y-37881404D01*
X153446583Y-37976642D01*
X153446583Y-38214738D01*
X153494202Y-38309976D01*
X153541821Y-38357595D01*
X153637059Y-38405214D01*
X153875154Y-38405214D01*
X153970392Y-38357595D01*
X154018011Y-38309976D01*
X154065630Y-38214738D01*
X154065630Y-37976642D01*
X154018011Y-37881404D01*
X153970392Y-37833785D01*
X154027166Y-60732880D02*
X154360500Y-60256690D01*
X154598595Y-60732880D02*
X154598595Y-59732880D01*
X154217642Y-59732880D01*
X154122404Y-59780500D01*
X154074785Y-59828119D01*
X154027166Y-59923357D01*
X154027166Y-60066214D01*
X154074785Y-60161452D01*
X154122404Y-60209071D01*
X154217642Y-60256690D01*
X154598595Y-60256690D01*
X153693833Y-59732880D02*
X153027166Y-59732880D01*
X153455738Y-60732880D01*
X149112880Y-62237642D02*
X148636690Y-61904309D01*
X149112880Y-61666214D02*
X148112880Y-61666214D01*
X148112880Y-62047166D01*
X148160500Y-62142404D01*
X148208119Y-62190023D01*
X148303357Y-62237642D01*
X148446214Y-62237642D01*
X148541452Y-62190023D01*
X148589071Y-62142404D01*
X148636690Y-62047166D01*
X148636690Y-61666214D01*
X149112880Y-63190023D02*
X149112880Y-62618595D01*
X149112880Y-62904309D02*
X148112880Y-62904309D01*
X148255738Y-62809071D01*
X148350976Y-62713833D01*
X148398595Y-62618595D01*
X148112880Y-63809071D02*
X148112880Y-63904309D01*
X148160500Y-63999547D01*
X148208119Y-64047166D01*
X148303357Y-64094785D01*
X148493833Y-64142404D01*
X148731928Y-64142404D01*
X148922404Y-64094785D01*
X149017642Y-64047166D01*
X149065261Y-63999547D01*
X149112880Y-63904309D01*
X149112880Y-63809071D01*
X149065261Y-63713833D01*
X149017642Y-63666214D01*
X148922404Y-63618595D01*
X148731928Y-63570976D01*
X148493833Y-63570976D01*
X148303357Y-63618595D01*
X148208119Y-63666214D01*
X148160500Y-63713833D01*
X148112880Y-63809071D01*
X147431928Y-52628119D02*
X147527166Y-52580500D01*
X147622404Y-52485261D01*
X147765261Y-52342404D01*
X147860500Y-52294785D01*
X147955738Y-52294785D01*
X147908119Y-52532880D02*
X148003357Y-52485261D01*
X148098595Y-52390023D01*
X148146214Y-52199547D01*
X148146214Y-51866214D01*
X148098595Y-51675738D01*
X148003357Y-51580500D01*
X147908119Y-51532880D01*
X147717642Y-51532880D01*
X147622404Y-51580500D01*
X147527166Y-51675738D01*
X147479547Y-51866214D01*
X147479547Y-52199547D01*
X147527166Y-52390023D01*
X147622404Y-52485261D01*
X147717642Y-52532880D01*
X147908119Y-52532880D01*
X146527166Y-52532880D02*
X147098595Y-52532880D01*
X146812880Y-52532880D02*
X146812880Y-51532880D01*
X146908119Y-51675738D01*
X147003357Y-51770976D01*
X147098595Y-51818595D01*
X146146214Y-51628119D02*
X146098595Y-51580500D01*
X146003357Y-51532880D01*
X145765261Y-51532880D01*
X145670023Y-51580500D01*
X145622404Y-51628119D01*
X145574785Y-51723357D01*
X145574785Y-51818595D01*
X145622404Y-51961452D01*
X146193833Y-52532880D01*
X145574785Y-52532880D01*
X158822404Y-40332880D02*
X158822404Y-41142404D01*
X158774785Y-41237642D01*
X158727166Y-41285261D01*
X158631928Y-41332880D01*
X158441452Y-41332880D01*
X158346214Y-41285261D01*
X158298595Y-41237642D01*
X158250976Y-41142404D01*
X158250976Y-40332880D01*
X157250976Y-41332880D02*
X157822404Y-41332880D01*
X157536690Y-41332880D02*
X157536690Y-40332880D01*
X157631928Y-40475738D01*
X157727166Y-40570976D01*
X157822404Y-40618595D01*
X155712880Y-37899547D02*
X155236690Y-37566214D01*
X155712880Y-37328119D02*
X154712880Y-37328119D01*
X154712880Y-37709071D01*
X154760500Y-37804309D01*
X154808119Y-37851928D01*
X154903357Y-37899547D01*
X155046214Y-37899547D01*
X155141452Y-37851928D01*
X155189071Y-37804309D01*
X155236690Y-37709071D01*
X155236690Y-37328119D01*
X155665261Y-38280500D02*
X155712880Y-38375738D01*
X155712880Y-38566214D01*
X155665261Y-38661452D01*
X155570023Y-38709071D01*
X155522404Y-38709071D01*
X155427166Y-38661452D01*
X155379547Y-38566214D01*
X155379547Y-38423357D01*
X155331928Y-38328119D01*
X155236690Y-38280500D01*
X155189071Y-38280500D01*
X155093833Y-38328119D01*
X155046214Y-38423357D01*
X155046214Y-38566214D01*
X155093833Y-38661452D01*
X155046214Y-38994785D02*
X155046214Y-39375738D01*
X154712880Y-39137642D02*
X155570023Y-39137642D01*
X155665261Y-39185261D01*
X155712880Y-39280500D01*
X155712880Y-39375738D01*
X161417404Y-25170880D02*
X161417404Y-25980404D01*
X161369785Y-26075642D01*
X161322166Y-26123261D01*
X161226928Y-26170880D01*
X161036452Y-26170880D01*
X160941214Y-26123261D01*
X160893595Y-26075642D01*
X160845976Y-25980404D01*
X160845976Y-25170880D01*
X160417404Y-25266119D02*
X160369785Y-25218500D01*
X160274547Y-25170880D01*
X160036452Y-25170880D01*
X159941214Y-25218500D01*
X159893595Y-25266119D01*
X159845976Y-25361357D01*
X159845976Y-25456595D01*
X159893595Y-25599452D01*
X160465023Y-26170880D01*
X159845976Y-26170880D01*
X165471642Y-49404309D02*
X165947832Y-49404309D01*
X164947832Y-49070976D02*
X165471642Y-49404309D01*
X164947832Y-49737642D01*
X165947832Y-50594785D02*
X165947832Y-50023357D01*
X165947832Y-50309071D02*
X164947832Y-50309071D01*
X165090690Y-50213833D01*
X165185928Y-50118595D01*
X165233547Y-50023357D01*
X150627166Y-60732880D02*
X150960500Y-60256690D01*
X151198595Y-60732880D02*
X151198595Y-59732880D01*
X150817642Y-59732880D01*
X150722404Y-59780500D01*
X150674785Y-59828119D01*
X150627166Y-59923357D01*
X150627166Y-60066214D01*
X150674785Y-60161452D01*
X150722404Y-60209071D01*
X150817642Y-60256690D01*
X151198595Y-60256690D01*
X149770023Y-59732880D02*
X149960500Y-59732880D01*
X150055738Y-59780500D01*
X150103357Y-59828119D01*
X150198595Y-59970976D01*
X150246214Y-60161452D01*
X150246214Y-60542404D01*
X150198595Y-60637642D01*
X150150976Y-60685261D01*
X150055738Y-60732880D01*
X149865261Y-60732880D01*
X149770023Y-60685261D01*
X149722404Y-60637642D01*
X149674785Y-60542404D01*
X149674785Y-60304309D01*
X149722404Y-60209071D01*
X149770023Y-60161452D01*
X149865261Y-60113833D01*
X150055738Y-60113833D01*
X150150976Y-60161452D01*
X150198595Y-60209071D01*
X150246214Y-60304309D01*
X151912880Y-57713833D02*
X151436690Y-57380500D01*
X151912880Y-57142404D02*
X150912880Y-57142404D01*
X150912880Y-57523357D01*
X150960500Y-57618595D01*
X151008119Y-57666214D01*
X151103357Y-57713833D01*
X151246214Y-57713833D01*
X151341452Y-57666214D01*
X151389071Y-57618595D01*
X151436690Y-57523357D01*
X151436690Y-57142404D01*
X151246214Y-58570976D02*
X151912880Y-58570976D01*
X150865261Y-58332880D02*
X151579547Y-58094785D01*
X151579547Y-58713833D01*
X163989916Y-22985642D02*
X164037535Y-23033261D01*
X164180392Y-23080880D01*
X164275630Y-23080880D01*
X164418488Y-23033261D01*
X164513726Y-22938023D01*
X164561345Y-22842785D01*
X164608964Y-22652309D01*
X164608964Y-22509452D01*
X164561345Y-22318976D01*
X164513726Y-22223738D01*
X164418488Y-22128500D01*
X164275630Y-22080880D01*
X164180392Y-22080880D01*
X164037535Y-22128500D01*
X163989916Y-22176119D01*
X163656583Y-22080880D02*
X162989916Y-22080880D01*
X163418488Y-23080880D01*
X160827166Y-60732880D02*
X161160500Y-60256690D01*
X161398595Y-60732880D02*
X161398595Y-59732880D01*
X161017642Y-59732880D01*
X160922404Y-59780500D01*
X160874785Y-59828119D01*
X160827166Y-59923357D01*
X160827166Y-60066214D01*
X160874785Y-60161452D01*
X160922404Y-60209071D01*
X161017642Y-60256690D01*
X161398595Y-60256690D01*
X160350976Y-60732880D02*
X160160500Y-60732880D01*
X160065261Y-60685261D01*
X160017642Y-60637642D01*
X159922404Y-60494785D01*
X159874785Y-60304309D01*
X159874785Y-59923357D01*
X159922404Y-59828119D01*
X159970023Y-59780500D01*
X160065261Y-59732880D01*
X160255738Y-59732880D01*
X160350976Y-59780500D01*
X160398595Y-59828119D01*
X160446214Y-59923357D01*
X160446214Y-60161452D01*
X160398595Y-60256690D01*
X160350976Y-60304309D01*
X160255738Y-60351928D01*
X160065261Y-60351928D01*
X159970023Y-60304309D01*
X159922404Y-60256690D01*
X159874785Y-60161452D01*
X165312880Y-53837642D02*
X164836690Y-53504309D01*
X165312880Y-53266214D02*
X164312880Y-53266214D01*
X164312880Y-53647166D01*
X164360500Y-53742404D01*
X164408119Y-53790023D01*
X164503357Y-53837642D01*
X164646214Y-53837642D01*
X164741452Y-53790023D01*
X164789071Y-53742404D01*
X164836690Y-53647166D01*
X164836690Y-53266214D01*
X165312880Y-54790023D02*
X165312880Y-54218595D01*
X165312880Y-54504309D02*
X164312880Y-54504309D01*
X164455738Y-54409071D01*
X164550976Y-54313833D01*
X164598595Y-54218595D01*
X164312880Y-55123357D02*
X164312880Y-55790023D01*
X165312880Y-55361452D01*
X166912880Y-27750142D02*
X166436690Y-27416809D01*
X166912880Y-27178714D02*
X165912880Y-27178714D01*
X165912880Y-27559666D01*
X165960500Y-27654904D01*
X166008119Y-27702523D01*
X166103357Y-27750142D01*
X166246214Y-27750142D01*
X166341452Y-27702523D01*
X166389071Y-27654904D01*
X166436690Y-27559666D01*
X166436690Y-27178714D01*
X166008119Y-28131095D02*
X165960500Y-28178714D01*
X165912880Y-28273952D01*
X165912880Y-28512047D01*
X165960500Y-28607285D01*
X166008119Y-28654904D01*
X166103357Y-28702523D01*
X166198595Y-28702523D01*
X166341452Y-28654904D01*
X166912880Y-28083476D01*
X166912880Y-28702523D01*
X166912880Y-29654904D02*
X166912880Y-29083476D01*
X166912880Y-29369190D02*
X165912880Y-29369190D01*
X166055738Y-29273952D01*
X166150976Y-29178714D01*
X166198595Y-29083476D01*
X152808119Y-62785261D02*
X152760500Y-62690023D01*
X152665261Y-62594785D01*
X152522404Y-62451928D01*
X152474785Y-62356690D01*
X152474785Y-62261452D01*
X152712880Y-62309071D02*
X152665261Y-62213833D01*
X152570023Y-62118595D01*
X152379547Y-62070976D01*
X152046214Y-62070976D01*
X151855738Y-62118595D01*
X151760500Y-62213833D01*
X151712880Y-62309071D01*
X151712880Y-62499547D01*
X151760500Y-62594785D01*
X151855738Y-62690023D01*
X152046214Y-62737642D01*
X152379547Y-62737642D01*
X152570023Y-62690023D01*
X152665261Y-62594785D01*
X152712880Y-62499547D01*
X152712880Y-62309071D01*
X152046214Y-63594785D02*
X152712880Y-63594785D01*
X151665261Y-63356690D02*
X152379547Y-63118595D01*
X152379547Y-63737642D01*
X156115916Y-23064642D02*
X156163535Y-23112261D01*
X156306392Y-23159880D01*
X156401630Y-23159880D01*
X156544488Y-23112261D01*
X156639726Y-23017023D01*
X156687345Y-22921785D01*
X156734964Y-22731309D01*
X156734964Y-22588452D01*
X156687345Y-22397976D01*
X156639726Y-22302738D01*
X156544488Y-22207500D01*
X156401630Y-22159880D01*
X156306392Y-22159880D01*
X156163535Y-22207500D01*
X156115916Y-22255119D01*
X155258773Y-22159880D02*
X155449250Y-22159880D01*
X155544488Y-22207500D01*
X155592107Y-22255119D01*
X155687345Y-22397976D01*
X155734964Y-22588452D01*
X155734964Y-22969404D01*
X155687345Y-23064642D01*
X155639726Y-23112261D01*
X155544488Y-23159880D01*
X155354011Y-23159880D01*
X155258773Y-23112261D01*
X155211154Y-23064642D01*
X155163535Y-22969404D01*
X155163535Y-22731309D01*
X155211154Y-22636071D01*
X155258773Y-22588452D01*
X155354011Y-22540833D01*
X155544488Y-22540833D01*
X155639726Y-22588452D01*
X155687345Y-22636071D01*
X155734964Y-22731309D01*
X141777166Y-60532880D02*
X142110500Y-60056690D01*
X142348595Y-60532880D02*
X142348595Y-59532880D01*
X141967642Y-59532880D01*
X141872404Y-59580500D01*
X141824785Y-59628119D01*
X141777166Y-59723357D01*
X141777166Y-59866214D01*
X141824785Y-59961452D01*
X141872404Y-60009071D01*
X141967642Y-60056690D01*
X142348595Y-60056690D01*
X141396214Y-59628119D02*
X141348595Y-59580500D01*
X141253357Y-59532880D01*
X141015261Y-59532880D01*
X140920023Y-59580500D01*
X140872404Y-59628119D01*
X140824785Y-59723357D01*
X140824785Y-59818595D01*
X140872404Y-59961452D01*
X141443833Y-60532880D01*
X140824785Y-60532880D01*
X147358119Y-62722761D02*
X147310500Y-62627523D01*
X147215261Y-62532285D01*
X147072404Y-62389428D01*
X147024785Y-62294190D01*
X147024785Y-62198952D01*
X147262880Y-62246571D02*
X147215261Y-62151333D01*
X147120023Y-62056095D01*
X146929547Y-62008476D01*
X146596214Y-62008476D01*
X146405738Y-62056095D01*
X146310500Y-62151333D01*
X146262880Y-62246571D01*
X146262880Y-62437047D01*
X146310500Y-62532285D01*
X146405738Y-62627523D01*
X146596214Y-62675142D01*
X146929547Y-62675142D01*
X147120023Y-62627523D01*
X147215261Y-62532285D01*
X147262880Y-62437047D01*
X147262880Y-62246571D01*
X146358119Y-63056095D02*
X146310500Y-63103714D01*
X146262880Y-63198952D01*
X146262880Y-63437047D01*
X146310500Y-63532285D01*
X146358119Y-63579904D01*
X146453357Y-63627523D01*
X146548595Y-63627523D01*
X146691452Y-63579904D01*
X147262880Y-63008476D01*
X147262880Y-63627523D01*
X161312880Y-34590023D02*
X161312880Y-35161452D01*
X162312880Y-34875738D02*
X161312880Y-34875738D01*
X162312880Y-35399547D02*
X161646214Y-35923357D01*
X161646214Y-35399547D02*
X162312880Y-35923357D01*
D11*
X172995500Y-54253436D02*
X172995500Y-54707564D01*
X171525500Y-54253436D02*
X171525500Y-54707564D01*
X171795500Y-66307564D02*
X171795500Y-65853436D01*
X170325500Y-66307564D02*
X170325500Y-65853436D01*
X180868250Y-38797436D02*
X180868250Y-39251564D01*
X182338250Y-38797436D02*
X182338250Y-39251564D01*
X156525500Y-62053436D02*
X156525500Y-62507564D01*
X157995500Y-62053436D02*
X157995500Y-62507564D01*
X172325500Y-62053436D02*
X172325500Y-62507564D01*
X173795500Y-62053436D02*
X173795500Y-62507564D01*
X156220500Y-65880500D02*
X156220500Y-65230500D01*
X153100500Y-65880500D02*
X153100500Y-64205500D01*
X153100500Y-65880500D02*
X153100500Y-66530500D01*
X156220500Y-65880500D02*
X156220500Y-66530500D01*
X169260500Y-56320500D02*
X170935500Y-56320500D01*
X169260500Y-59440500D02*
X169910500Y-59440500D01*
X169260500Y-56320500D02*
X168610500Y-56320500D01*
X169260500Y-59440500D02*
X168610500Y-59440500D01*
X156500500Y-65880500D02*
X156500500Y-64205500D01*
X156500500Y-65880500D02*
X156500500Y-66530500D01*
X159620500Y-65880500D02*
X159620500Y-65230500D01*
X159620500Y-65880500D02*
X159620500Y-66530500D01*
X166725500Y-62053436D02*
X166725500Y-62507564D01*
X168195500Y-62053436D02*
X168195500Y-62507564D01*
X146860500Y-59440500D02*
X147510500Y-59440500D01*
X146860500Y-56320500D02*
X146210500Y-56320500D01*
X146860500Y-56320500D02*
X148535500Y-56320500D01*
X146860500Y-59440500D02*
X146210500Y-59440500D01*
X143770500Y-65818000D02*
X143770500Y-66468000D01*
X143770500Y-65818000D02*
X143770500Y-65168000D01*
X140650500Y-65818000D02*
X140650500Y-64143000D01*
X140650500Y-65818000D02*
X140650500Y-66468000D01*
X158487564Y-35815500D02*
X158033436Y-35815500D01*
X158487564Y-34345500D02*
X158033436Y-34345500D01*
X169260500Y-52920500D02*
X168610500Y-52920500D01*
X169260500Y-56040500D02*
X169910500Y-56040500D01*
X169260500Y-52920500D02*
X169910500Y-52920500D01*
X169260500Y-56040500D02*
X167585500Y-56040500D01*
X164795500Y-62053436D02*
X164795500Y-62507564D01*
X163325500Y-62053436D02*
X163325500Y-62507564D01*
X166700500Y-65880500D02*
X166700500Y-64205500D01*
X169820500Y-65880500D02*
X169820500Y-65230500D01*
X169820500Y-65880500D02*
X169820500Y-66530500D01*
X166700500Y-65880500D02*
X166700500Y-66530500D01*
X175700500Y-65880500D02*
X175700500Y-66530500D01*
X175700500Y-65880500D02*
X175700500Y-64205500D01*
X178820500Y-65880500D02*
X178820500Y-65230500D01*
X178820500Y-65880500D02*
X178820500Y-66530500D01*
X145545500Y-61990936D02*
X145545500Y-62445064D01*
X144075500Y-61990936D02*
X144075500Y-62445064D01*
X182338250Y-54872564D02*
X182338250Y-54418436D01*
X180868250Y-54872564D02*
X180868250Y-54418436D01*
X175420500Y-65880500D02*
X175420500Y-66530500D01*
X172300500Y-65880500D02*
X172300500Y-66530500D01*
X175420500Y-65880500D02*
X175420500Y-65230500D01*
X172300500Y-65880500D02*
X172300500Y-64205500D01*
X144595500Y-54253436D02*
X144595500Y-54707564D01*
X143125500Y-54253436D02*
X143125500Y-54707564D01*
X159900500Y-65880500D02*
X159900500Y-66530500D01*
X163020500Y-65880500D02*
X163020500Y-66530500D01*
X159900500Y-65880500D02*
X159900500Y-64205500D01*
X163020500Y-65880500D02*
X163020500Y-65230500D01*
X144238314Y-40702500D02*
X143784186Y-40702500D01*
X144238314Y-42172500D02*
X143784186Y-42172500D01*
X158589250Y-20606064D02*
X158589250Y-20151936D01*
X157119250Y-20606064D02*
X157119250Y-20151936D01*
X150595500Y-54253436D02*
X150595500Y-54707564D01*
X149125500Y-54253436D02*
X149125500Y-54707564D01*
X149525500Y-46019248D02*
X149525500Y-46541752D01*
X150995500Y-46019248D02*
X150995500Y-46541752D01*
X172595500Y-39507564D02*
X172595500Y-39053436D01*
X171125500Y-39507564D02*
X171125500Y-39053436D01*
X165199248Y-35815500D02*
X165721752Y-35815500D01*
X165199248Y-34345500D02*
X165721752Y-34345500D01*
X171125500Y-42653436D02*
X171125500Y-43107564D01*
X172595500Y-42653436D02*
X172595500Y-43107564D01*
X166420500Y-65880500D02*
X166420500Y-66530500D01*
X163300500Y-65880500D02*
X163300500Y-66530500D01*
X163300500Y-65880500D02*
X163300500Y-64205500D01*
X166420500Y-65880500D02*
X166420500Y-65230500D01*
X177195500Y-62053436D02*
X177195500Y-62507564D01*
X175725500Y-62053436D02*
X175725500Y-62507564D01*
X176660500Y-38520500D02*
X180110500Y-38520500D01*
X176660500Y-38520500D02*
X174710500Y-38520500D01*
X176660500Y-43640500D02*
X178610500Y-43640500D01*
X176660500Y-43640500D02*
X174710500Y-43640500D01*
X183125500Y-46653436D02*
X183125500Y-47107564D01*
X184595500Y-46653436D02*
X184595500Y-47107564D01*
X171525500Y-57653436D02*
X171525500Y-58107564D01*
X172995500Y-57653436D02*
X172995500Y-58107564D01*
G36*
X149836576Y-26525818D02*
G01*
X149778957Y-26587701D01*
X149699084Y-26659887D01*
X149622652Y-26708826D01*
X149539876Y-26741634D01*
X149499953Y-26751379D01*
X149383312Y-26755429D01*
X149270212Y-26727221D01*
X149168972Y-26670896D01*
X149087915Y-26590598D01*
X149035361Y-26490469D01*
X149032943Y-26483120D01*
X149016453Y-26441628D01*
X149005946Y-26430052D01*
X149112565Y-26430052D01*
X149128835Y-26491368D01*
X149150174Y-26532162D01*
X149215877Y-26601820D01*
X149313244Y-26651344D01*
X149418595Y-26675053D01*
X149538144Y-26666347D01*
X149651942Y-26618351D01*
X149758919Y-26531353D01*
X149802579Y-26476624D01*
X149813235Y-26434505D01*
X149787523Y-26408821D01*
X149725521Y-26399881D01*
X149697441Y-26398259D01*
X149600552Y-26374486D01*
X149509584Y-26328424D01*
X149441308Y-26267861D01*
X149396054Y-26210376D01*
X149360882Y-26253778D01*
X149319809Y-26293754D01*
X149261118Y-26335771D01*
X149201877Y-26367593D01*
X149156585Y-26380246D01*
X149124094Y-26391760D01*
X149112565Y-26430052D01*
X149005946Y-26430052D01*
X148994384Y-26417314D01*
X148955416Y-26402368D01*
X148888228Y-26388982D01*
X148832862Y-26377510D01*
X148734161Y-26343572D01*
X148656032Y-26291444D01*
X148585578Y-26213653D01*
X148567683Y-26189138D01*
X148520488Y-26106355D01*
X148503936Y-26038725D01*
X148519159Y-25990061D01*
X148528496Y-25979764D01*
X148564191Y-25959767D01*
X148589433Y-25976538D01*
X148599006Y-26027623D01*
X148599215Y-26036529D01*
X148620801Y-26113994D01*
X148679037Y-26186205D01*
X148775608Y-26255335D01*
X148803277Y-26270864D01*
X148861239Y-26295517D01*
X148924115Y-26307303D01*
X149009329Y-26310321D01*
X149088357Y-26307467D01*
X149187407Y-26290187D01*
X149258040Y-26255472D01*
X149305816Y-26201277D01*
X149308445Y-26196739D01*
X149329011Y-26137618D01*
X149313134Y-26094107D01*
X149259892Y-26063445D01*
X149250001Y-26059678D01*
X149179519Y-26018264D01*
X149109674Y-25957077D01*
X149052453Y-25888110D01*
X149019845Y-25823351D01*
X149001607Y-25734971D01*
X149002394Y-25713025D01*
X149102656Y-25713025D01*
X149105984Y-25761114D01*
X149126862Y-25805257D01*
X149171825Y-25860308D01*
X149201879Y-25891490D01*
X149255061Y-25939052D01*
X149298053Y-25968808D01*
X149393003Y-26003192D01*
X149485197Y-26003914D01*
X149571528Y-25966456D01*
X149655998Y-25889937D01*
X149691472Y-25846582D01*
X149737702Y-25767979D01*
X149746980Y-25704628D01*
X149719308Y-25656436D01*
X149654683Y-25623312D01*
X149637113Y-25618907D01*
X149574648Y-25608496D01*
X149491119Y-25598739D01*
X149399636Y-25591281D01*
X149364482Y-25589257D01*
X149259426Y-25587382D01*
X149186453Y-25595798D01*
X149139888Y-25616673D01*
X149114053Y-25652175D01*
X149103274Y-25704473D01*
X149102656Y-25713025D01*
X149002394Y-25713025D01*
X149004780Y-25646487D01*
X149039202Y-25580792D01*
X149106954Y-25534392D01*
X149210116Y-25503792D01*
X149231272Y-25500125D01*
X149325793Y-25491732D01*
X149433014Y-25491723D01*
X149542422Y-25499131D01*
X149643500Y-25512986D01*
X149725734Y-25532320D01*
X149778609Y-25556165D01*
X149800879Y-25576530D01*
X149832294Y-25639089D01*
X149832718Y-25704628D01*
X149832790Y-25715741D01*
X149804486Y-25801400D01*
X149749503Y-25890980D01*
X149669960Y-25979393D01*
X149567978Y-26061552D01*
X149512331Y-26104052D01*
X149485225Y-26140683D01*
X149490175Y-26175358D01*
X149525008Y-26215880D01*
X149589244Y-26264221D01*
X149698505Y-26308316D01*
X149818443Y-26319968D01*
X149942216Y-26299708D01*
X150062984Y-26248067D01*
X150173906Y-26165574D01*
X150189155Y-26151753D01*
X150238567Y-26117681D01*
X150269579Y-26116333D01*
X150280330Y-26148015D01*
X150278284Y-26159101D01*
X150247455Y-26200644D01*
X150179363Y-26254742D01*
X150073718Y-26321641D01*
X150060390Y-26329874D01*
X149987331Y-26383741D01*
X149929286Y-26434505D01*
X149907725Y-26453362D01*
X149836576Y-26525818D01*
G37*
G36*
X150014894Y-23584562D02*
G01*
X150017009Y-23585119D01*
X150064008Y-23602318D01*
X150090376Y-23620637D01*
X150100546Y-23633049D01*
X150126132Y-23638088D01*
X150159948Y-23613353D01*
X150204553Y-23556534D01*
X150262509Y-23465321D01*
X150379135Y-23277595D01*
X150506687Y-23091074D01*
X150629323Y-22934778D01*
X150751030Y-22804498D01*
X150875796Y-22696021D01*
X151007607Y-22605138D01*
X151150451Y-22527638D01*
X151163734Y-22521280D01*
X151231689Y-22490333D01*
X151285020Y-22468553D01*
X151313144Y-22460321D01*
X151323215Y-22464345D01*
X151359743Y-22489850D01*
X151413271Y-22533662D01*
X151476150Y-22589706D01*
X151564912Y-22679031D01*
X151631860Y-22765982D01*
X151687413Y-22864706D01*
X151726799Y-22956035D01*
X151776614Y-23113416D01*
X151809591Y-23275504D01*
X151821463Y-23424477D01*
X151820327Y-23474479D01*
X151819858Y-23479100D01*
X151801888Y-23656013D01*
X151762743Y-23857612D01*
X151705290Y-24070028D01*
X151631926Y-24284014D01*
X151545050Y-24490321D01*
X151451932Y-24690321D01*
X151434832Y-25187863D01*
X151432514Y-25256553D01*
X151428173Y-25399623D01*
X151425873Y-25510381D01*
X151425758Y-25594263D01*
X151427968Y-25656703D01*
X151432644Y-25703138D01*
X151439928Y-25739001D01*
X151449961Y-25769728D01*
X151457479Y-25787359D01*
X151492756Y-25844543D01*
X151531772Y-25880565D01*
X151565479Y-25904727D01*
X151581354Y-25929958D01*
X151580359Y-25937181D01*
X151557127Y-25974744D01*
X151512095Y-26016319D01*
X151457301Y-26052181D01*
X151404781Y-26072607D01*
X151366019Y-26083717D01*
X151323447Y-26115387D01*
X151318451Y-26160367D01*
X151351581Y-26217158D01*
X151401886Y-26276894D01*
X151360608Y-26346799D01*
X151319455Y-26397770D01*
X151235231Y-26450328D01*
X151176764Y-26476639D01*
X151134729Y-26508874D01*
X151124071Y-26548103D01*
X151143331Y-26601837D01*
X151191047Y-26677594D01*
X151221859Y-26726399D01*
X151227530Y-26737504D01*
X151250178Y-26781855D01*
X151261102Y-26818821D01*
X151247858Y-26854254D01*
X151200107Y-26902703D01*
X151121848Y-26954691D01*
X151017575Y-27006748D01*
X150951528Y-27040225D01*
X150884650Y-27094614D01*
X150847535Y-27162807D01*
X150834085Y-27252987D01*
X150833478Y-27276940D01*
X150837546Y-27327611D01*
X150856170Y-27360649D01*
X150896774Y-27392585D01*
X150908759Y-27400636D01*
X150955381Y-27429698D01*
X150985948Y-27445341D01*
X150993614Y-27451589D01*
X150994120Y-27482409D01*
X150974981Y-27542357D01*
X150950865Y-27611734D01*
X150943460Y-27659898D01*
X150954464Y-27696542D01*
X150984497Y-27734166D01*
X151028144Y-27780590D01*
X151000618Y-27810081D01*
X150976935Y-27835455D01*
X150931259Y-27888594D01*
X150899521Y-27945257D01*
X150891743Y-28005263D01*
X150903432Y-28083786D01*
X150913535Y-28164525D01*
X150916212Y-28275120D01*
X150913991Y-28330829D01*
X150911271Y-28399082D01*
X150899256Y-28523247D01*
X150880711Y-28634449D01*
X150880266Y-28636507D01*
X150833722Y-28818650D01*
X150777579Y-28983342D01*
X150714770Y-29123071D01*
X150648227Y-29230321D01*
X150646312Y-29232838D01*
X150597369Y-29300683D01*
X150555831Y-29364204D01*
X150530510Y-29409953D01*
X150519515Y-29437694D01*
X150517105Y-29467957D01*
X150533951Y-29499950D01*
X150574363Y-29547162D01*
X150647665Y-29645268D01*
X150688288Y-29743201D01*
X150691286Y-29833981D01*
X150677049Y-29877724D01*
X150629073Y-29954684D01*
X150559539Y-30026454D01*
X150478519Y-30081324D01*
X150412981Y-30104030D01*
X150317634Y-30122168D01*
X150207181Y-30133762D01*
X150094202Y-30137944D01*
X149991277Y-30133842D01*
X149910987Y-30120586D01*
X149898076Y-30117017D01*
X149850450Y-30106658D01*
X149811656Y-30108224D01*
X149767125Y-30124288D01*
X149702290Y-30157420D01*
X149643340Y-30186614D01*
X149567449Y-30219102D01*
X149507366Y-30239383D01*
X149473887Y-30244891D01*
X149400626Y-30250395D01*
X149308384Y-30252708D01*
X149209487Y-30251335D01*
X149118275Y-30247323D01*
X149036935Y-30239946D01*
X148969396Y-30226965D01*
X148901523Y-30205536D01*
X148819179Y-30172816D01*
X148649045Y-30101881D01*
X148647262Y-29946101D01*
X148642928Y-29872140D01*
X148631752Y-29783933D01*
X148615845Y-29695803D01*
X148597285Y-29617690D01*
X148578152Y-29559534D01*
X148560524Y-29531278D01*
X148552972Y-29529741D01*
X148514513Y-29532043D01*
X148458231Y-29541136D01*
X148421686Y-29547825D01*
X148299482Y-29565110D01*
X148148556Y-29581092D01*
X147977143Y-29595333D01*
X147793477Y-29607396D01*
X147605792Y-29616843D01*
X147422322Y-29623236D01*
X147251301Y-29626139D01*
X147100964Y-29625112D01*
X146979544Y-29619720D01*
X146875033Y-29612367D01*
X146724993Y-29602708D01*
X146573489Y-29593767D01*
X146441202Y-29586808D01*
X146174888Y-29574052D01*
X146188286Y-29674970D01*
X146189807Y-29687405D01*
X146188106Y-29800322D01*
X146158034Y-29883166D01*
X146153130Y-29896676D01*
X146081712Y-29985709D01*
X146028840Y-30029365D01*
X145908830Y-30090847D01*
X145764599Y-30125755D01*
X145600583Y-30133237D01*
X145421215Y-30112442D01*
X145297906Y-30084462D01*
X145201506Y-30049457D01*
X145130712Y-30003765D01*
X145078168Y-29942579D01*
X145036522Y-29861096D01*
X145030899Y-29846697D01*
X145029250Y-29838923D01*
X145211845Y-29838923D01*
X145226920Y-29873484D01*
X145266478Y-29902635D01*
X145300851Y-29919630D01*
X145370019Y-29946230D01*
X145445821Y-29969297D01*
X145511154Y-29983475D01*
X145594139Y-29995080D01*
X145672331Y-30000218D01*
X145737076Y-29998737D01*
X145779724Y-29990489D01*
X145791623Y-29975321D01*
X145790865Y-29973572D01*
X145764351Y-29957093D01*
X145716736Y-29950321D01*
X145690978Y-29948895D01*
X145650437Y-29934427D01*
X145645300Y-29907918D01*
X145677818Y-29873792D01*
X145688120Y-29866909D01*
X145718122Y-29854424D01*
X145755015Y-29856667D01*
X145813970Y-29873618D01*
X145897577Y-29899968D01*
X145951481Y-29913979D01*
X145981379Y-29915607D01*
X145994221Y-29905215D01*
X145996957Y-29883166D01*
X145984872Y-29848641D01*
X145939908Y-29813044D01*
X145868770Y-29789091D01*
X145778959Y-29780321D01*
X145731310Y-29778633D01*
X145679990Y-29767599D01*
X145665880Y-29745622D01*
X145687959Y-29711933D01*
X145701276Y-29701903D01*
X145755295Y-29685362D01*
X145843265Y-29679734D01*
X145966933Y-29679148D01*
X145899270Y-29617684D01*
X145891107Y-29610305D01*
X145854003Y-29580297D01*
X145819977Y-29565883D01*
X145774768Y-29563570D01*
X145704116Y-29569862D01*
X145683667Y-29571873D01*
X145612414Y-29574031D01*
X145579212Y-29564344D01*
X145583861Y-29542657D01*
X145626162Y-29508811D01*
X145638063Y-29499149D01*
X145673718Y-29460341D01*
X145715478Y-29406820D01*
X145755284Y-29349839D01*
X145766468Y-29331375D01*
X145861131Y-29331375D01*
X145877011Y-29360412D01*
X145884563Y-29364311D01*
X145936295Y-29380465D01*
X146020599Y-29398349D01*
X146131668Y-29417052D01*
X146263697Y-29435660D01*
X146410879Y-29453260D01*
X146567406Y-29468940D01*
X146680798Y-29478381D01*
X146895136Y-29492404D01*
X147114970Y-29502437D01*
X147331260Y-29508273D01*
X147534961Y-29509707D01*
X147717032Y-29506533D01*
X147868431Y-29498546D01*
X147953516Y-29491116D01*
X148094419Y-29475840D01*
X148228516Y-29457928D01*
X148347520Y-29438643D01*
X148443142Y-29419252D01*
X148507094Y-29401020D01*
X148560079Y-29380891D01*
X148522239Y-29305606D01*
X148508739Y-29276919D01*
X148477716Y-29202058D01*
X148450023Y-29125321D01*
X148434991Y-29082269D01*
X148416528Y-29037630D01*
X148405050Y-29020321D01*
X148404370Y-29020447D01*
X148383092Y-29035233D01*
X148341627Y-29069811D01*
X148288238Y-29117319D01*
X148238221Y-29158546D01*
X148149519Y-29218066D01*
X148065258Y-29260888D01*
X148011190Y-29284106D01*
X147945375Y-29316671D01*
X147900759Y-29343890D01*
X147876946Y-29361159D01*
X147836171Y-29381460D01*
X147813405Y-29371709D01*
X147805820Y-29328974D01*
X147810590Y-29250321D01*
X147812676Y-29228480D01*
X147815288Y-29158966D01*
X147806687Y-29125601D01*
X147785414Y-29126172D01*
X147750011Y-29158471D01*
X147700059Y-29200339D01*
X147599143Y-29248053D01*
X147466926Y-29280402D01*
X147307191Y-29296210D01*
X147272288Y-29297554D01*
X147187696Y-29299110D01*
X147132685Y-29296108D01*
X147099473Y-29287765D01*
X147080277Y-29273292D01*
X147073222Y-29264023D01*
X147065895Y-29235030D01*
X147086079Y-29196730D01*
X147100151Y-29175886D01*
X147113844Y-29147453D01*
X147103123Y-29138663D01*
X147064063Y-29148669D01*
X146992741Y-29176627D01*
X146955449Y-29191339D01*
X146903837Y-29207955D01*
X146848548Y-29219496D01*
X146780494Y-29227250D01*
X146690586Y-29232504D01*
X146569736Y-29236547D01*
X146467367Y-29238748D01*
X146360470Y-29238499D01*
X146277453Y-29234148D01*
X146209194Y-29225143D01*
X146146570Y-29210931D01*
X146146145Y-29210816D01*
X146076182Y-29193191D01*
X146030695Y-29187184D01*
X145995955Y-29192701D01*
X145958227Y-29209648D01*
X145907653Y-29245802D01*
X145873121Y-29289875D01*
X145861131Y-29331375D01*
X145766468Y-29331375D01*
X145785077Y-29300652D01*
X145796799Y-29270515D01*
X145793299Y-29266781D01*
X145766974Y-29272052D01*
X145725039Y-29290502D01*
X145679731Y-29316304D01*
X145643287Y-29343628D01*
X145608409Y-29385255D01*
X145575807Y-29442296D01*
X145560490Y-29470288D01*
X145523772Y-29498198D01*
X145485654Y-29490577D01*
X145455292Y-29447064D01*
X145453609Y-29442739D01*
X145436920Y-29413706D01*
X145419293Y-29415159D01*
X145397525Y-29449796D01*
X145368414Y-29520321D01*
X145358683Y-29543061D01*
X145319740Y-29609653D01*
X145276211Y-29660321D01*
X145230218Y-29716088D01*
X145212216Y-29788658D01*
X145211845Y-29838923D01*
X145029250Y-29838923D01*
X145022510Y-29807146D01*
X145029562Y-29764061D01*
X145053770Y-29701570D01*
X145071012Y-29656935D01*
X145092384Y-29559763D01*
X145090431Y-29455448D01*
X145065566Y-29331020D01*
X145034519Y-29232966D01*
X144977860Y-29112712D01*
X144897651Y-28992242D01*
X144788192Y-28861913D01*
X144742073Y-28812479D01*
X144680406Y-28753057D01*
X144634537Y-28720020D01*
X144599731Y-28709541D01*
X144563975Y-28702206D01*
X144534812Y-28679541D01*
X144518445Y-28645554D01*
X144494996Y-28595850D01*
X144493588Y-28593021D01*
X144463493Y-28551739D01*
X144412925Y-28497782D01*
X144352024Y-28442059D01*
X144234486Y-28342739D01*
X144099922Y-28353803D01*
X144030521Y-28356750D01*
X143951737Y-28352055D01*
X143860029Y-28337466D01*
X143742906Y-28311501D01*
X143694738Y-28299824D01*
X143609865Y-28277413D01*
X143547853Y-28255922D01*
X143497468Y-28230078D01*
X143447475Y-28194605D01*
X143386638Y-28144227D01*
X143339701Y-28103746D01*
X143293379Y-28060090D01*
X143269037Y-28028125D01*
X143261180Y-27999912D01*
X143264313Y-27967511D01*
X143267817Y-27943506D01*
X143263543Y-27912194D01*
X143239159Y-27885748D01*
X143186894Y-27852638D01*
X143157564Y-27833617D01*
X143090201Y-27778780D01*
X143024667Y-27712974D01*
X142968512Y-27644940D01*
X142929284Y-27583422D01*
X142927573Y-27578057D01*
X143116767Y-27578057D01*
X143138734Y-27612638D01*
X143193849Y-27667127D01*
X143202806Y-27675083D01*
X143281825Y-27735789D01*
X143360890Y-27782126D01*
X143430645Y-27809360D01*
X143481735Y-27812758D01*
X143491769Y-27811168D01*
X143537880Y-27821804D01*
X143577950Y-27851801D01*
X143595066Y-27889678D01*
X143593720Y-27895868D01*
X143573173Y-27928567D01*
X143535730Y-27969639D01*
X143522065Y-27983372D01*
X143492778Y-28019551D01*
X143485436Y-28041059D01*
X143507952Y-28059661D01*
X143561611Y-28087370D01*
X143634892Y-28117477D01*
X143717490Y-28145804D01*
X143799096Y-28168174D01*
X143887783Y-28186202D01*
X143986621Y-28201453D01*
X144080031Y-28211570D01*
X144159559Y-28215866D01*
X144216750Y-28213655D01*
X144243148Y-28204249D01*
X144243775Y-28194670D01*
X144231958Y-28154298D01*
X144205956Y-28092634D01*
X144169330Y-28018637D01*
X144156244Y-27993880D01*
X144118710Y-27925311D01*
X144089665Y-27882124D01*
X144061149Y-27856502D01*
X144025205Y-27840627D01*
X143973872Y-27826683D01*
X143961681Y-27823478D01*
X143845741Y-27784072D01*
X143710268Y-27725116D01*
X143565690Y-27651501D01*
X143422437Y-27568117D01*
X143275692Y-27476727D01*
X143222514Y-27518524D01*
X143219887Y-27520563D01*
X143175634Y-27548711D01*
X143142012Y-27560321D01*
X143127244Y-27561937D01*
X143116767Y-27578057D01*
X142927573Y-27578057D01*
X142914530Y-27537164D01*
X142921118Y-27494841D01*
X142955559Y-27453980D01*
X143019302Y-27440321D01*
X143026203Y-27440276D01*
X143047160Y-27437763D01*
X143051704Y-27427680D01*
X143036797Y-27404914D01*
X142999401Y-27364349D01*
X142936480Y-27300874D01*
X142882608Y-27243459D01*
X142755003Y-27069186D01*
X142661438Y-26876559D01*
X142623944Y-26740963D01*
X142827978Y-26740963D01*
X142841596Y-26786817D01*
X142868629Y-26850493D01*
X142905840Y-26924243D01*
X142949993Y-27000321D01*
X143030976Y-27113214D01*
X143164938Y-27258936D01*
X143325300Y-27398980D01*
X143504610Y-27526983D01*
X143695416Y-27636585D01*
X143730330Y-27653648D01*
X143816651Y-27691348D01*
X143895017Y-27719983D01*
X143951897Y-27734394D01*
X144038037Y-27745939D01*
X144024060Y-27622502D01*
X144023971Y-27621710D01*
X144013390Y-27525987D01*
X144002844Y-27458229D01*
X143986112Y-27411352D01*
X143956972Y-27378273D01*
X143909203Y-27351907D01*
X143836584Y-27325171D01*
X143732891Y-27290982D01*
X143720077Y-27286706D01*
X143515021Y-27211126D01*
X143342432Y-27131573D01*
X143195160Y-27043815D01*
X143066053Y-26943624D01*
X142947957Y-26826769D01*
X142943534Y-26821920D01*
X142894125Y-26770548D01*
X142854552Y-26734146D01*
X142833028Y-26720321D01*
X142831012Y-26720679D01*
X142827978Y-26740963D01*
X142623944Y-26740963D01*
X142604411Y-26670321D01*
X142604368Y-26670083D01*
X142594405Y-26613994D01*
X142874534Y-26613994D01*
X142887155Y-26633721D01*
X142923152Y-26674716D01*
X142977404Y-26731409D01*
X143044792Y-26798229D01*
X143151338Y-26894625D01*
X143331400Y-27026697D01*
X143528220Y-27132866D01*
X143752274Y-27219368D01*
X143758497Y-27221400D01*
X143844032Y-27249372D01*
X143899169Y-27266980D01*
X143931222Y-27275885D01*
X143947506Y-27277748D01*
X143955334Y-27274228D01*
X143962021Y-27266987D01*
X143967052Y-27256604D01*
X143973448Y-27214982D01*
X143975929Y-27154606D01*
X143974828Y-27087213D01*
X143970476Y-27024543D01*
X143963205Y-26978332D01*
X143953348Y-26960321D01*
X143939004Y-26965879D01*
X143901959Y-26994389D01*
X143856850Y-27038141D01*
X143813847Y-27086958D01*
X143783121Y-27130663D01*
X143779761Y-27136462D01*
X143758071Y-27157931D01*
X143731427Y-27145511D01*
X143726976Y-27141513D01*
X143713368Y-27117691D01*
X143711928Y-27077829D01*
X143721855Y-27010658D01*
X143729389Y-26964214D01*
X143734806Y-26914630D01*
X143734304Y-26905848D01*
X143819344Y-26905848D01*
X143820848Y-26932592D01*
X143828031Y-26933420D01*
X143862437Y-26922688D01*
X143913107Y-26899132D01*
X143936374Y-26887976D01*
X144002328Y-26867527D01*
X144053170Y-26867788D01*
X144081916Y-26887646D01*
X144081585Y-26925987D01*
X144080386Y-26930035D01*
X144074650Y-26972604D01*
X144070152Y-27044487D01*
X144067319Y-27136715D01*
X144067191Y-27154606D01*
X144066580Y-27240321D01*
X144069963Y-27382785D01*
X144082415Y-27525903D01*
X144106185Y-27650603D01*
X144136460Y-27745939D01*
X144143554Y-27768278D01*
X144196805Y-27890321D01*
X144202187Y-27901013D01*
X144236515Y-27960722D01*
X144284426Y-28035794D01*
X144340886Y-28119230D01*
X144394245Y-28194670D01*
X144400863Y-28204027D01*
X144459324Y-28283184D01*
X144511235Y-28349699D01*
X144551563Y-28396572D01*
X144575275Y-28416800D01*
X144588905Y-28408919D01*
X144595854Y-28374436D01*
X144597420Y-28354230D01*
X144616157Y-28309266D01*
X144648752Y-28288750D01*
X144685925Y-28300321D01*
X144701786Y-28317811D01*
X144715948Y-28353763D01*
X144722096Y-28386346D01*
X144744708Y-28435429D01*
X144786395Y-28502178D01*
X144849702Y-28590634D01*
X144937178Y-28704839D01*
X144963125Y-28738400D01*
X145077346Y-28898617D01*
X145162184Y-29043034D01*
X145220664Y-29177376D01*
X145255816Y-29307367D01*
X145262245Y-29339215D01*
X145279970Y-29405249D01*
X145296368Y-29436382D01*
X145310168Y-29431025D01*
X145320096Y-29387589D01*
X145333675Y-29347842D01*
X145368318Y-29307237D01*
X145393806Y-29293405D01*
X145423331Y-29294708D01*
X145463458Y-29321472D01*
X145516709Y-29363326D01*
X145598267Y-29293571D01*
X145625928Y-29272065D01*
X145698633Y-29227437D01*
X145767586Y-29197923D01*
X145794877Y-29187363D01*
X145861746Y-29151819D01*
X145941831Y-29100831D01*
X146024046Y-29041175D01*
X146065766Y-29008874D01*
X146154599Y-28940394D01*
X146239503Y-28875284D01*
X146306657Y-28824157D01*
X146307629Y-28823421D01*
X146402187Y-28737498D01*
X146458947Y-28651302D01*
X146460469Y-28647900D01*
X146499661Y-28581426D01*
X146540508Y-28548223D01*
X146579220Y-28551436D01*
X146587426Y-28569613D01*
X146594649Y-28618087D01*
X146597430Y-28684091D01*
X146597430Y-28805500D01*
X146682497Y-28736137D01*
X146682615Y-28736040D01*
X146754672Y-28659883D01*
X146823967Y-28556061D01*
X146884339Y-28436747D01*
X146929630Y-28314110D01*
X146953679Y-28200321D01*
X146954768Y-28190324D01*
X146963498Y-28124148D01*
X146974301Y-28087346D01*
X146991808Y-28070500D01*
X147020654Y-28064196D01*
X147073586Y-28058071D01*
X147046416Y-28200555D01*
X147032712Y-28262609D01*
X146966273Y-28453046D01*
X146868309Y-28626550D01*
X146742939Y-28775321D01*
X146699445Y-28816471D01*
X146639866Y-28866240D01*
X146594377Y-28892597D01*
X146555825Y-28900321D01*
X146554449Y-28900319D01*
X146516292Y-28896195D01*
X146500478Y-28876067D01*
X146497351Y-28827993D01*
X146497351Y-28755666D01*
X146422292Y-28822993D01*
X146368433Y-28868419D01*
X146296299Y-28925318D01*
X146222718Y-28980321D01*
X146210680Y-28989121D01*
X146153470Y-29033998D01*
X146113083Y-29070746D01*
X146097619Y-29092126D01*
X146110481Y-29109267D01*
X146157475Y-29128462D01*
X146232955Y-29145202D01*
X146330632Y-29158441D01*
X146444212Y-29167133D01*
X146567406Y-29170232D01*
X146603479Y-29169995D01*
X146771156Y-29161186D01*
X146905942Y-29138941D01*
X147012222Y-29102261D01*
X147094378Y-29050148D01*
X147136623Y-29022262D01*
X147193927Y-29003073D01*
X147242419Y-29005070D01*
X147270455Y-29029611D01*
X147271468Y-29033352D01*
X147264864Y-29070969D01*
X147239803Y-29117698D01*
X147211612Y-29161234D01*
X147202483Y-29197271D01*
X147226810Y-29218080D01*
X147287840Y-29231346D01*
X147368048Y-29237338D01*
X147495902Y-29220861D01*
X147608722Y-29173305D01*
X147698848Y-29097169D01*
X147755503Y-29049788D01*
X147833955Y-29026381D01*
X147918470Y-29015054D01*
X147918470Y-29116507D01*
X147919827Y-29153069D01*
X147927447Y-29205006D01*
X147939540Y-29230972D01*
X147958183Y-29234126D01*
X148006878Y-29220685D01*
X148071031Y-29189046D01*
X148141798Y-29144429D01*
X148210335Y-29092056D01*
X148267797Y-29037150D01*
X148268687Y-29036161D01*
X148317661Y-28978813D01*
X148344766Y-28935139D01*
X148356364Y-28890750D01*
X148358153Y-28847372D01*
X148458896Y-28847372D01*
X148464348Y-28892559D01*
X148486749Y-28977314D01*
X148523833Y-29083873D01*
X148572750Y-29204832D01*
X148630651Y-29332783D01*
X148654806Y-29380891D01*
X148694687Y-29460321D01*
X148772325Y-29625928D01*
X148822526Y-29783433D01*
X148839195Y-29921800D01*
X148840011Y-29939419D01*
X148849347Y-29969417D01*
X148874070Y-29991677D01*
X148920307Y-30008946D01*
X148994188Y-30023970D01*
X149101841Y-30039494D01*
X149163379Y-30047643D01*
X149264804Y-30061005D01*
X149335100Y-30069453D01*
X149380086Y-30072910D01*
X149405577Y-30071302D01*
X149417392Y-30064554D01*
X149421348Y-30052589D01*
X149423262Y-30035334D01*
X149425840Y-30021461D01*
X149435755Y-30004416D01*
X149459802Y-29995625D01*
X149506604Y-29992883D01*
X149584782Y-29993982D01*
X149648442Y-29994700D01*
X149704001Y-29991820D01*
X149732115Y-29983473D01*
X149739904Y-29968487D01*
X149735150Y-29953824D01*
X149702621Y-29927246D01*
X149651028Y-29909177D01*
X149594325Y-29905639D01*
X149561677Y-29901631D01*
X149549755Y-29872612D01*
X149553340Y-29852376D01*
X149583721Y-29823780D01*
X149640347Y-29817205D01*
X149717488Y-29833970D01*
X149743444Y-29842044D01*
X149791228Y-29852632D01*
X149815435Y-29851516D01*
X149816217Y-29850621D01*
X149811676Y-29827519D01*
X149781742Y-29792220D01*
X149735054Y-29752190D01*
X149680250Y-29714891D01*
X149625967Y-29687788D01*
X149586479Y-29674281D01*
X149538802Y-29666079D01*
X149522105Y-29677784D01*
X149538548Y-29708877D01*
X149550244Y-29731034D01*
X149551369Y-29772527D01*
X149533958Y-29806129D01*
X149503161Y-29816213D01*
X149473168Y-29796906D01*
X149444137Y-29755920D01*
X149428779Y-29717606D01*
X149403223Y-29629971D01*
X149379242Y-29522299D01*
X149359163Y-29406957D01*
X149348827Y-29324382D01*
X149445212Y-29324382D01*
X149451776Y-29374725D01*
X149467186Y-29452038D01*
X149483539Y-29506573D01*
X149506040Y-29540123D01*
X149541348Y-29562283D01*
X149596126Y-29582648D01*
X149670892Y-29611460D01*
X149777333Y-29669193D01*
X149850931Y-29734342D01*
X149888117Y-29804197D01*
X149898808Y-29839562D01*
X149918274Y-29868301D01*
X149954859Y-29888395D01*
X150019532Y-29908554D01*
X150069678Y-29921986D01*
X150125441Y-29935206D01*
X150156544Y-29940321D01*
X150169811Y-29938864D01*
X150179561Y-29923960D01*
X150158055Y-29896706D01*
X150108175Y-29861779D01*
X150066502Y-29834351D01*
X150050658Y-29812115D01*
X150060586Y-29789803D01*
X150085689Y-29767937D01*
X150120684Y-29764869D01*
X150165571Y-29790687D01*
X150226560Y-29847553D01*
X150276897Y-29895838D01*
X150337100Y-29938713D01*
X150386054Y-29950660D01*
X150428947Y-29933891D01*
X150442957Y-29922498D01*
X150449683Y-29905477D01*
X150432916Y-29882359D01*
X150388544Y-29843990D01*
X150369179Y-29828939D01*
X150296753Y-29781602D01*
X150226040Y-29745514D01*
X150199904Y-29734363D01*
X150154088Y-29709427D01*
X150142372Y-29689169D01*
X150161373Y-29669618D01*
X150183053Y-29662765D01*
X150235345Y-29671783D01*
X150310045Y-29707380D01*
X150409852Y-29770656D01*
X150473682Y-29812858D01*
X150517408Y-29836843D01*
X150541935Y-29841441D01*
X150553712Y-29829280D01*
X150555411Y-29824285D01*
X150552569Y-29771417D01*
X150520125Y-29716920D01*
X150466366Y-29668468D01*
X150399582Y-29633735D01*
X150328065Y-29620395D01*
X150302634Y-29618245D01*
X150247736Y-29600775D01*
X150202984Y-29571760D01*
X150177885Y-29538495D01*
X150181948Y-29508277D01*
X150202175Y-29492650D01*
X150247753Y-29480084D01*
X150258118Y-29478235D01*
X150299484Y-29449594D01*
X150355238Y-29385873D01*
X150425833Y-29286507D01*
X150511722Y-29150930D01*
X150560828Y-29062933D01*
X150620589Y-28937305D01*
X150673706Y-28806406D01*
X150715039Y-28683117D01*
X150739445Y-28580321D01*
X150748803Y-28509375D01*
X150756301Y-28419046D01*
X150759789Y-28330829D01*
X150759139Y-28254132D01*
X150754226Y-28198364D01*
X150744922Y-28172933D01*
X150740291Y-28176132D01*
X150729266Y-28208305D01*
X150716607Y-28267616D01*
X150704231Y-28345905D01*
X150684305Y-28458881D01*
X150658349Y-28540676D01*
X150627287Y-28583488D01*
X150590940Y-28587693D01*
X150569267Y-28563281D01*
X150552988Y-28517537D01*
X150552356Y-28514502D01*
X150533461Y-28471827D01*
X150506562Y-28465187D01*
X150476548Y-28492909D01*
X150448307Y-28553324D01*
X150437712Y-28582455D01*
X150403205Y-28660951D01*
X150362141Y-28738691D01*
X150319961Y-28806612D01*
X150282109Y-28855656D01*
X150254025Y-28876760D01*
X150223458Y-28867720D01*
X150197812Y-28821882D01*
X150180662Y-28781901D01*
X150158857Y-28764304D01*
X150131239Y-28781887D01*
X150092551Y-28835321D01*
X150075953Y-28859287D01*
X150023663Y-28924095D01*
X149967201Y-28983814D01*
X149948108Y-29000796D01*
X149877278Y-29054686D01*
X149786268Y-29115746D01*
X149686692Y-29176745D01*
X149590161Y-29230451D01*
X149508288Y-29269631D01*
X149494265Y-29275570D01*
X149456462Y-29296747D01*
X149445212Y-29324382D01*
X149348827Y-29324382D01*
X149345314Y-29296312D01*
X149340022Y-29202729D01*
X149341579Y-29154410D01*
X149350514Y-29061030D01*
X149365818Y-28956611D01*
X149385696Y-28849619D01*
X149408355Y-28748520D01*
X149432000Y-28661781D01*
X149454839Y-28597867D01*
X149475078Y-28565246D01*
X149482991Y-28559497D01*
X149511903Y-28549869D01*
X149523975Y-28572554D01*
X149519421Y-28628975D01*
X149498454Y-28720553D01*
X149493429Y-28740617D01*
X149477827Y-28816872D01*
X149463694Y-28904723D01*
X149451919Y-28995666D01*
X149443391Y-29081199D01*
X149439000Y-29152821D01*
X149439634Y-29202029D01*
X149446184Y-29220321D01*
X149457565Y-29217961D01*
X149501862Y-29200047D01*
X149566533Y-29168674D01*
X149642292Y-29128810D01*
X149719850Y-29085423D01*
X149789920Y-29043481D01*
X149843213Y-29007951D01*
X149861894Y-28993645D01*
X149938418Y-28921870D01*
X150001510Y-28842286D01*
X150044360Y-28764606D01*
X150060156Y-28698545D01*
X150062105Y-28677934D01*
X150085097Y-28635993D01*
X150124469Y-28619953D01*
X150168177Y-28631882D01*
X150204179Y-28673844D01*
X150228824Y-28712906D01*
X150254235Y-28735152D01*
X150258427Y-28735768D01*
X150284228Y-28718257D01*
X150313350Y-28672705D01*
X150341576Y-28608419D01*
X150364692Y-28534704D01*
X150378481Y-28460868D01*
X150379472Y-28452048D01*
X150390584Y-28387534D01*
X150408435Y-28349980D01*
X150438320Y-28327595D01*
X150484838Y-28312116D01*
X150525888Y-28324847D01*
X150558798Y-28374463D01*
X150567498Y-28391506D01*
X150588992Y-28411840D01*
X150607020Y-28393050D01*
X150621719Y-28334882D01*
X150633226Y-28237083D01*
X150637768Y-28171904D01*
X150637429Y-28108860D01*
X150628313Y-28063427D01*
X150608995Y-28023009D01*
X150587555Y-27982609D01*
X150584339Y-27954681D01*
X150602036Y-27930296D01*
X150612928Y-27921595D01*
X150660377Y-27896562D01*
X150721321Y-27874432D01*
X150752955Y-27863100D01*
X150797370Y-27837083D01*
X150820287Y-27810081D01*
X150817204Y-27788894D01*
X150783621Y-27780321D01*
X150755435Y-27774788D01*
X150712138Y-27748932D01*
X150706814Y-27742944D01*
X150694501Y-27701035D01*
X150713789Y-27659445D01*
X150759663Y-27630652D01*
X150784924Y-27615414D01*
X150812274Y-27575514D01*
X150814695Y-27547225D01*
X150796377Y-27511130D01*
X150749855Y-27463159D01*
X150673854Y-27393564D01*
X150612198Y-27466943D01*
X150586095Y-27495074D01*
X150535138Y-27532035D01*
X150493900Y-27537531D01*
X150467590Y-27510008D01*
X150467576Y-27494431D01*
X150489659Y-27450397D01*
X150536933Y-27391908D01*
X150567818Y-27354059D01*
X150625874Y-27254772D01*
X150665796Y-27145945D01*
X150680645Y-27044358D01*
X150680196Y-27029839D01*
X150669372Y-27005171D01*
X150635610Y-27007715D01*
X150603449Y-27015582D01*
X150511183Y-27034354D01*
X150390247Y-27055581D01*
X150248148Y-27078101D01*
X150092392Y-27100750D01*
X149930483Y-27122366D01*
X149769928Y-27141787D01*
X149680834Y-27151566D01*
X149514181Y-27166931D01*
X149364374Y-27175707D01*
X149216180Y-27178629D01*
X149054364Y-27176437D01*
X148969370Y-27174744D01*
X148869689Y-27174245D01*
X148790389Y-27175601D01*
X148738013Y-27178676D01*
X148719101Y-27183337D01*
X148721132Y-27189740D01*
X148741579Y-27221237D01*
X148776909Y-27264717D01*
X148808071Y-27303677D01*
X148861287Y-27388154D01*
X148904517Y-27479525D01*
X148935284Y-27569776D01*
X148945460Y-27621926D01*
X148951113Y-27650896D01*
X148949526Y-27714870D01*
X148928046Y-27753685D01*
X148913323Y-27762900D01*
X148881516Y-27766589D01*
X148836839Y-27745748D01*
X148832807Y-27743412D01*
X148792171Y-27724923D01*
X148769409Y-27723385D01*
X148768834Y-27724352D01*
X148773261Y-27750108D01*
X148791536Y-27800652D01*
X148820154Y-27866127D01*
X148850278Y-27940246D01*
X148877820Y-28029319D01*
X148892429Y-28104114D01*
X148895230Y-28154229D01*
X148888853Y-28232356D01*
X148870090Y-28287853D01*
X148842039Y-28316377D01*
X148807796Y-28313587D01*
X148770459Y-28275139D01*
X148733245Y-28233886D01*
X148682477Y-28195513D01*
X148624122Y-28161069D01*
X148614977Y-28318913D01*
X148610983Y-28372748D01*
X148598044Y-28457115D01*
X148573599Y-28535391D01*
X148532364Y-28627305D01*
X148528056Y-28636242D01*
X148492572Y-28719389D01*
X148468050Y-28794167D01*
X148458896Y-28847372D01*
X148358153Y-28847372D01*
X148358817Y-28831257D01*
X148360697Y-28780748D01*
X148372734Y-28726341D01*
X148399062Y-28690127D01*
X148434164Y-28642211D01*
X148468439Y-28561410D01*
X148495445Y-28461788D01*
X148512245Y-28354404D01*
X148515900Y-28250321D01*
X148514542Y-28201231D01*
X148518224Y-28120716D01*
X148534515Y-28075414D01*
X148567625Y-28062400D01*
X148621762Y-28078747D01*
X148701135Y-28121528D01*
X148805026Y-28182736D01*
X148793192Y-28082896D01*
X148777125Y-28003988D01*
X148725571Y-27873494D01*
X148646759Y-27746655D01*
X148622272Y-27709801D01*
X148602683Y-27654371D01*
X148616755Y-27619534D01*
X148662878Y-27607485D01*
X148739443Y-27620414D01*
X148801023Y-27636206D01*
X148838563Y-27638149D01*
X148851545Y-27621926D01*
X148846744Y-27585321D01*
X148846078Y-27582611D01*
X148811533Y-27492224D01*
X148755099Y-27394401D01*
X148685235Y-27300548D01*
X148610396Y-27222066D01*
X148539037Y-27170361D01*
X148526447Y-27164373D01*
X148476175Y-27142403D01*
X148397868Y-27109389D01*
X148297646Y-27067879D01*
X148181632Y-27020415D01*
X148055947Y-26969543D01*
X147987675Y-26941925D01*
X147870720Y-26893971D01*
X147769012Y-26851452D01*
X147688040Y-26816703D01*
X147633291Y-26792060D01*
X147610254Y-26779858D01*
X147606488Y-26754052D01*
X147626098Y-26710783D01*
X147626199Y-26710629D01*
X147646010Y-26667805D01*
X147646309Y-26637171D01*
X147643258Y-26633703D01*
X147611631Y-26612140D01*
X147555645Y-26581418D01*
X147485047Y-26546989D01*
X147456803Y-26533839D01*
X147394939Y-26502949D01*
X147361863Y-26480604D01*
X147353267Y-26465018D01*
X147522108Y-26465018D01*
X147543301Y-26489183D01*
X147587352Y-26513691D01*
X147641967Y-26532688D01*
X147694852Y-26540321D01*
X147707933Y-26540755D01*
X147762882Y-26556671D01*
X147788207Y-26591334D01*
X147779045Y-26639042D01*
X147761100Y-26664689D01*
X147737624Y-26680321D01*
X147727233Y-26685991D01*
X147718312Y-26716172D01*
X147722364Y-26729237D01*
X147756338Y-26756251D01*
X147817646Y-26778918D01*
X147897577Y-26794516D01*
X147987420Y-26800321D01*
X147992475Y-26800330D01*
X148046309Y-26803670D01*
X148072439Y-26816638D01*
X148082208Y-26844525D01*
X148083027Y-26849967D01*
X148086974Y-26864869D01*
X148096660Y-26877860D01*
X148116793Y-26890676D01*
X148152081Y-26905051D01*
X148207233Y-26922722D01*
X148286957Y-26945423D01*
X148395963Y-26974890D01*
X148538959Y-27012859D01*
X148573597Y-27022001D01*
X148661465Y-27044395D01*
X148735309Y-27060862D01*
X148804138Y-27072451D01*
X148876962Y-27080212D01*
X148962789Y-27085197D01*
X149070627Y-27088455D01*
X149209487Y-27091037D01*
X149341888Y-27092129D01*
X149471967Y-27091202D01*
X149589416Y-27088451D01*
X149685107Y-27084092D01*
X149749912Y-27078337D01*
X149765547Y-27076187D01*
X149846104Y-27065162D01*
X149951324Y-27050819D01*
X150069330Y-27034774D01*
X150188245Y-27018645D01*
X150284782Y-27004098D01*
X150422538Y-26978641D01*
X150553787Y-26949360D01*
X150671892Y-26918060D01*
X150770217Y-26886548D01*
X150842124Y-26856629D01*
X150880978Y-26830110D01*
X150906468Y-26811854D01*
X150954624Y-26800321D01*
X150964531Y-26800018D01*
X151019822Y-26788476D01*
X151063328Y-26765303D01*
X151080960Y-26737504D01*
X151080227Y-26732983D01*
X151063275Y-26700203D01*
X151030921Y-26656673D01*
X151023846Y-26647873D01*
X150993288Y-26598351D01*
X150980881Y-26557471D01*
X150976578Y-26526210D01*
X150958164Y-26475276D01*
X150947902Y-26449338D01*
X150955547Y-26421796D01*
X150991923Y-26387863D01*
X151048401Y-26342865D01*
X150989621Y-26318435D01*
X150859204Y-26261416D01*
X150724060Y-26192141D01*
X150613643Y-26119774D01*
X150519895Y-26038050D01*
X150434758Y-25940706D01*
X150350173Y-25821481D01*
X150315799Y-25770775D01*
X150219476Y-25643697D01*
X150123857Y-25537935D01*
X150033922Y-25458659D01*
X149954650Y-25411034D01*
X149915939Y-25397477D01*
X149843592Y-25377348D01*
X149765270Y-25359697D01*
X149705372Y-25345791D01*
X149650474Y-25328184D01*
X149622436Y-25312786D01*
X149616209Y-25292564D01*
X149615516Y-25248853D01*
X149729896Y-25248853D01*
X149829975Y-25284939D01*
X149859562Y-25295632D01*
X149943869Y-25326285D01*
X150019341Y-25353937D01*
X150110723Y-25404360D01*
X150211706Y-25491813D01*
X150319199Y-25613891D01*
X150431212Y-25768588D01*
X150504920Y-25871735D01*
X150587830Y-25966104D01*
X150679833Y-26044891D01*
X150790859Y-26116455D01*
X150930842Y-26189157D01*
X150973768Y-26209688D01*
X151073210Y-26254942D01*
X151141845Y-26280917D01*
X151182804Y-26287663D01*
X151199214Y-26275231D01*
X151194206Y-26243671D01*
X151170908Y-26193034D01*
X151158184Y-26165408D01*
X151143829Y-26090147D01*
X151164623Y-26031672D01*
X151218215Y-25993793D01*
X151302251Y-25980321D01*
X151311486Y-25980228D01*
X151360174Y-25976412D01*
X151386120Y-25968734D01*
X151385078Y-25955108D01*
X151366926Y-25916347D01*
X151334413Y-25863734D01*
X151271110Y-25770321D01*
X151276723Y-25500321D01*
X151276936Y-25489517D01*
X151276025Y-25314576D01*
X151265370Y-25158405D01*
X151243695Y-25001751D01*
X151230531Y-24917206D01*
X151220134Y-24834730D01*
X151215115Y-24773178D01*
X151216439Y-24741751D01*
X151221568Y-24731005D01*
X151248853Y-24689793D01*
X151287979Y-24640659D01*
X151293545Y-24634015D01*
X151343988Y-24559704D01*
X151398670Y-24458534D01*
X151452651Y-24341150D01*
X151500990Y-24218197D01*
X151538746Y-24100321D01*
X151549038Y-24060366D01*
X151575529Y-23928473D01*
X151596121Y-23781639D01*
X151610308Y-23628852D01*
X151617585Y-23479100D01*
X151617446Y-23341374D01*
X151609384Y-23224661D01*
X151592895Y-23137950D01*
X151569986Y-23073320D01*
X151520316Y-22965868D01*
X151459295Y-22859595D01*
X151392919Y-22763695D01*
X151327183Y-22687362D01*
X151268082Y-22639792D01*
X151222794Y-22633195D01*
X151155518Y-22653863D01*
X151073565Y-22699718D01*
X150981531Y-22767042D01*
X150884012Y-22852116D01*
X150785603Y-22951221D01*
X150690901Y-23060641D01*
X150604502Y-23176655D01*
X150525390Y-23295597D01*
X150440071Y-23432512D01*
X150369465Y-23555979D01*
X150316012Y-23661445D01*
X150302362Y-23694869D01*
X150282151Y-23744358D01*
X150270322Y-23800168D01*
X150268847Y-23832808D01*
X150256430Y-23864733D01*
X150225321Y-23876707D01*
X150220758Y-23877121D01*
X150172515Y-23867452D01*
X150120158Y-23840288D01*
X150081459Y-23815664D01*
X150010352Y-23783822D01*
X149948584Y-23771978D01*
X149906813Y-23782995D01*
X149895318Y-23797377D01*
X149894462Y-23827498D01*
X149899490Y-23839528D01*
X149910853Y-23885486D01*
X149920916Y-23947094D01*
X149921967Y-23956521D01*
X149926222Y-23994670D01*
X149923186Y-24034050D01*
X149902417Y-24061344D01*
X149857028Y-24092195D01*
X149837579Y-24105721D01*
X149793461Y-24147356D01*
X149776462Y-24176781D01*
X149771521Y-24185333D01*
X149768929Y-24207841D01*
X149764711Y-24266950D01*
X149759781Y-24353433D01*
X149754443Y-24460198D01*
X149749002Y-24580153D01*
X149743763Y-24706208D01*
X149739031Y-24831270D01*
X149735111Y-24948248D01*
X149732307Y-25050051D01*
X149730925Y-25129587D01*
X149729896Y-25248853D01*
X149615516Y-25248853D01*
X149615339Y-25237705D01*
X149623419Y-25160321D01*
X149624113Y-25155329D01*
X149630148Y-25090829D01*
X149635728Y-24995879D01*
X149640494Y-24879060D01*
X149644090Y-24748954D01*
X149646159Y-24614141D01*
X149649833Y-24197962D01*
X149444059Y-24192830D01*
X149406553Y-24192147D01*
X149313209Y-24193360D01*
X149249555Y-24199104D01*
X149220671Y-24209009D01*
X149208059Y-24235228D01*
X149189467Y-24289522D01*
X149169845Y-24358605D01*
X149158052Y-24410665D01*
X149149406Y-24471774D01*
X149146186Y-24540453D01*
X149148603Y-24623083D01*
X149156871Y-24726043D01*
X149171202Y-24855715D01*
X149191808Y-25018477D01*
X149200845Y-25090032D01*
X149209101Y-25170171D01*
X149210909Y-25222582D01*
X149206375Y-25254323D01*
X149195605Y-25272453D01*
X149195308Y-25272739D01*
X149162585Y-25288657D01*
X149103040Y-25305596D01*
X149029345Y-25319937D01*
X148907899Y-25342971D01*
X148723858Y-25399178D01*
X148570032Y-25477259D01*
X148443555Y-25578479D01*
X148410229Y-25617555D01*
X148360059Y-25687422D01*
X148304571Y-25773330D01*
X148250831Y-25864780D01*
X148192530Y-25964905D01*
X148105431Y-26092991D01*
X148016292Y-26193113D01*
X147917797Y-26271831D01*
X147802630Y-26335702D01*
X147663473Y-26391286D01*
X147658361Y-26393084D01*
X147591926Y-26418885D01*
X147543132Y-26442184D01*
X147522220Y-26458134D01*
X147522108Y-26465018D01*
X147353267Y-26465018D01*
X147351446Y-26461716D01*
X147357558Y-26441200D01*
X147388194Y-26411566D01*
X147437925Y-26390357D01*
X147461267Y-26384361D01*
X147493346Y-26366907D01*
X147485705Y-26345836D01*
X147438350Y-26320427D01*
X147413807Y-26309162D01*
X147351890Y-26276281D01*
X147286893Y-26237593D01*
X147281483Y-26234110D01*
X147223279Y-26185499D01*
X147199790Y-26140848D01*
X147211696Y-26104118D01*
X147259680Y-26079271D01*
X147308357Y-26060938D01*
X147364763Y-26030625D01*
X147379925Y-26020014D01*
X147404535Y-25993037D01*
X147415545Y-25953606D01*
X147418076Y-25888020D01*
X147417316Y-25844926D01*
X147414029Y-25798394D01*
X147409027Y-25780321D01*
X147407000Y-25780975D01*
X147380925Y-25796360D01*
X147332773Y-25828011D01*
X147271063Y-25870368D01*
X147137437Y-25956220D01*
X147005833Y-26023378D01*
X146868294Y-26074070D01*
X146716423Y-26110832D01*
X146541820Y-26136199D01*
X146336088Y-26152709D01*
X146225151Y-26156942D01*
X146055999Y-26152670D01*
X145891467Y-26132903D01*
X145718635Y-26095841D01*
X145524585Y-26039685D01*
X145322345Y-25981066D01*
X145057401Y-25923591D01*
X144794643Y-25890247D01*
X144729658Y-25885421D01*
X144672201Y-25885436D01*
X144623979Y-25894883D01*
X144570179Y-25916969D01*
X144495992Y-25954900D01*
X144437575Y-25986675D01*
X144367196Y-26031284D01*
X144328246Y-26068552D01*
X144316918Y-26102656D01*
X144329410Y-26137771D01*
X144330445Y-26139446D01*
X144341972Y-26177049D01*
X144323125Y-26217840D01*
X144297336Y-26245358D01*
X144266232Y-26260321D01*
X144241820Y-26271970D01*
X144197495Y-26309867D01*
X144141619Y-26367219D01*
X144080359Y-26436968D01*
X144019878Y-26512054D01*
X143966341Y-26585419D01*
X143925915Y-26650002D01*
X143899495Y-26700303D01*
X143861818Y-26781229D01*
X143834051Y-26852569D01*
X143819344Y-26905848D01*
X143734304Y-26905848D01*
X143733517Y-26892058D01*
X143731914Y-26891121D01*
X143702874Y-26883836D01*
X143646474Y-26873721D01*
X143573031Y-26862665D01*
X143413490Y-26832453D01*
X143255273Y-26787840D01*
X143111467Y-26733076D01*
X142994863Y-26672372D01*
X142939832Y-26639811D01*
X142895562Y-26617902D01*
X142874815Y-26613338D01*
X142874534Y-26613994D01*
X142594405Y-26613994D01*
X142581487Y-26541275D01*
X142565346Y-26445512D01*
X142555384Y-26376519D01*
X142551038Y-26328023D01*
X142551744Y-26293749D01*
X142556940Y-26267425D01*
X142566064Y-26242776D01*
X142576293Y-26222371D01*
X142618201Y-26179029D01*
X142666983Y-26167452D01*
X142712435Y-26187789D01*
X142744354Y-26240187D01*
X142753820Y-26256687D01*
X142796247Y-26298571D01*
X142865366Y-26351191D01*
X142954793Y-26410750D01*
X143058144Y-26473450D01*
X143169035Y-26535492D01*
X143281082Y-26593079D01*
X143387901Y-26642412D01*
X143483109Y-26679694D01*
X143529723Y-26695367D01*
X143609434Y-26717045D01*
X143667221Y-26718491D01*
X143713511Y-26696094D01*
X143758733Y-26646241D01*
X143813316Y-26565321D01*
X143829487Y-26540648D01*
X143885205Y-26461426D01*
X143940045Y-26390707D01*
X143984160Y-26341397D01*
X144003914Y-26321284D01*
X144043634Y-26265120D01*
X144055428Y-26209398D01*
X144061613Y-26170945D01*
X144096228Y-26096140D01*
X144155482Y-26013453D01*
X144232746Y-25929764D01*
X144321388Y-25851954D01*
X144414779Y-25786903D01*
X144506289Y-25741492D01*
X144548995Y-25726584D01*
X144608307Y-25711321D01*
X144675442Y-25701882D01*
X144761124Y-25696921D01*
X144876074Y-25695094D01*
X144893359Y-25695009D01*
X144990948Y-25695334D01*
X145067215Y-25698574D01*
X145134031Y-25706642D01*
X145203267Y-25721452D01*
X145286794Y-25744915D01*
X145396484Y-25778944D01*
X145471156Y-25801945D01*
X145774863Y-25883497D01*
X146056008Y-25938928D01*
X146313139Y-25968125D01*
X146544804Y-25970976D01*
X146749550Y-25947370D01*
X146925925Y-25897193D01*
X147009237Y-25863458D01*
X147083857Y-25828994D01*
X147135801Y-25797216D01*
X147173547Y-25762759D01*
X147205576Y-25720259D01*
X147221803Y-25694992D01*
X147237986Y-25663262D01*
X147247175Y-25628123D01*
X147250511Y-25580446D01*
X147249133Y-25511102D01*
X147244181Y-25410962D01*
X147242004Y-25362586D01*
X147242327Y-25174448D01*
X147257445Y-25013567D01*
X147264848Y-24965096D01*
X147271820Y-24903505D01*
X147270536Y-24853138D01*
X147258315Y-24805024D01*
X147232474Y-24750190D01*
X147190334Y-24679663D01*
X147129212Y-24584472D01*
X147019380Y-24391405D01*
X146936387Y-24182906D01*
X146887525Y-23965459D01*
X146872359Y-23760321D01*
X147068573Y-23760321D01*
X147069163Y-23875140D01*
X147071587Y-23961699D01*
X147077067Y-24027029D01*
X147086822Y-24080597D01*
X147102075Y-24131872D01*
X147124046Y-24190321D01*
X147142014Y-24232912D01*
X147182542Y-24319210D01*
X147231832Y-24416398D01*
X147284767Y-24515040D01*
X147336227Y-24605699D01*
X147381093Y-24678938D01*
X147414248Y-24725321D01*
X147439504Y-24745891D01*
X147483812Y-24760321D01*
X147493468Y-24760640D01*
X147509204Y-24766806D01*
X147515645Y-24787369D01*
X147514063Y-24830737D01*
X147505729Y-24905321D01*
X147500884Y-24960374D01*
X147495898Y-25054385D01*
X147492017Y-25170508D01*
X147489553Y-25299050D01*
X147488818Y-25430321D01*
X147489262Y-25525842D01*
X147491206Y-25646906D01*
X147495080Y-25738421D01*
X147501346Y-25806760D01*
X147510468Y-25858294D01*
X147522910Y-25899397D01*
X147535673Y-25936248D01*
X147543224Y-25983326D01*
X147528859Y-26019079D01*
X147487565Y-26052409D01*
X147414329Y-26092218D01*
X147376133Y-26112331D01*
X147334269Y-26136933D01*
X147317997Y-26150370D01*
X147332465Y-26162127D01*
X147373990Y-26186348D01*
X147433088Y-26217180D01*
X147450745Y-26225859D01*
X147557941Y-26270328D01*
X147647018Y-26288689D01*
X147727857Y-26281816D01*
X147810339Y-26250584D01*
X147889813Y-26203100D01*
X147990307Y-26115302D01*
X148085059Y-25996909D01*
X148178277Y-25843262D01*
X148207579Y-25790366D01*
X148256762Y-25705579D01*
X148301340Y-25633168D01*
X148334350Y-25584671D01*
X148352266Y-25563441D01*
X148423632Y-25498343D01*
X148516196Y-25431877D01*
X148617585Y-25372374D01*
X148715421Y-25328164D01*
X148747400Y-25315920D01*
X148798715Y-25293933D01*
X148826565Y-25278635D01*
X148826792Y-25278432D01*
X148821929Y-25261321D01*
X148787541Y-25236497D01*
X148732108Y-25208284D01*
X148664110Y-25181009D01*
X148592026Y-25158996D01*
X148583091Y-25156826D01*
X148469900Y-25145750D01*
X148370392Y-25170682D01*
X148278314Y-25233097D01*
X148247037Y-25258945D01*
X148204671Y-25285735D01*
X148179429Y-25290786D01*
X148163717Y-25276894D01*
X148158079Y-25242642D01*
X148181943Y-25203049D01*
X148229343Y-25161981D01*
X148294312Y-25123306D01*
X148370883Y-25090893D01*
X148453089Y-25068608D01*
X148534964Y-25060321D01*
X148598159Y-25065642D01*
X148681830Y-25084684D01*
X148763044Y-25113701D01*
X148832530Y-25148631D01*
X148881019Y-25185411D01*
X148899242Y-25219978D01*
X148899252Y-25221461D01*
X148905544Y-25243096D01*
X148930473Y-25250225D01*
X148984309Y-25245987D01*
X149023281Y-25240234D01*
X149072928Y-25224450D01*
X149098481Y-25194798D01*
X149105070Y-25142885D01*
X149097826Y-25060321D01*
X149084820Y-24949366D01*
X149070138Y-24792548D01*
X149063996Y-24662824D01*
X149066382Y-24552723D01*
X149077283Y-24454776D01*
X149096688Y-24361513D01*
X149104687Y-24329642D01*
X149122459Y-24256492D01*
X149134806Y-24202232D01*
X149139431Y-24176781D01*
X149138018Y-24173058D01*
X149113188Y-24153569D01*
X149067193Y-24130698D01*
X149037802Y-24117093D01*
X149008495Y-24093200D01*
X149008343Y-24065676D01*
X149015548Y-24036911D01*
X149021008Y-24003150D01*
X149119283Y-24003150D01*
X149119416Y-24075980D01*
X149261981Y-24108150D01*
X149356447Y-24125583D01*
X149462533Y-24136645D01*
X149554327Y-24137461D01*
X149619810Y-24127384D01*
X149627858Y-24124735D01*
X149725492Y-24085955D01*
X149786350Y-24046182D01*
X149813467Y-24003475D01*
X149817960Y-23956521D01*
X149795131Y-23898125D01*
X149736080Y-23849420D01*
X149639123Y-23808521D01*
X149593911Y-23793459D01*
X149479163Y-23748674D01*
X149378840Y-23696487D01*
X149274035Y-23627524D01*
X149236901Y-23602566D01*
X149190397Y-23579391D01*
X149171084Y-23584993D01*
X149170687Y-23586392D01*
X149161482Y-23631949D01*
X149150435Y-23703999D01*
X149139119Y-23789842D01*
X149129106Y-23876780D01*
X149121970Y-23952116D01*
X149119283Y-24003150D01*
X149021008Y-24003150D01*
X149025149Y-23977541D01*
X149033437Y-23905567D01*
X149033636Y-23903429D01*
X149038846Y-23836013D01*
X149037138Y-23799048D01*
X149026434Y-23783496D01*
X149004660Y-23780321D01*
X148999851Y-23780463D01*
X148949895Y-23790441D01*
X148890737Y-23811463D01*
X148838469Y-23836945D01*
X148809182Y-23860303D01*
X148804142Y-23866143D01*
X148770477Y-23891038D01*
X148720117Y-23919803D01*
X148688689Y-23934905D01*
X148655176Y-23943996D01*
X148627071Y-23935664D01*
X148598531Y-23905329D01*
X148563715Y-23848408D01*
X148516781Y-23760321D01*
X148463412Y-23674532D01*
X148375649Y-23563931D01*
X148271811Y-23454957D01*
X148162476Y-23358561D01*
X148058226Y-23285695D01*
X148020592Y-23265461D01*
X147930164Y-23223824D01*
X147820223Y-23179028D01*
X147701911Y-23135125D01*
X147586367Y-23096166D01*
X147484731Y-23066203D01*
X147408146Y-23049287D01*
X147396088Y-23047541D01*
X147313004Y-23041846D01*
X147255876Y-23055923D01*
X147214387Y-23094917D01*
X147178223Y-23163973D01*
X147138321Y-23260414D01*
X147107597Y-23348185D01*
X147087334Y-23430782D01*
X147075458Y-23519484D01*
X147069896Y-23625571D01*
X147068573Y-23760321D01*
X146872359Y-23760321D01*
X146870141Y-23730321D01*
X146870117Y-23727898D01*
X146873872Y-23588124D01*
X146890036Y-23464302D01*
X146921725Y-23344609D01*
X146972058Y-23217223D01*
X147044150Y-23070321D01*
X147127848Y-22910321D01*
X147230273Y-22904367D01*
X147256823Y-22903452D01*
X147397958Y-22914254D01*
X147558586Y-22947587D01*
X147730082Y-23000132D01*
X147903822Y-23068571D01*
X148071183Y-23149585D01*
X148223541Y-23239858D01*
X148352271Y-23336070D01*
X148367457Y-23349382D01*
X148447155Y-23425684D01*
X148525064Y-23509106D01*
X148586256Y-23583840D01*
X148594889Y-23595574D01*
X148641117Y-23657953D01*
X148678597Y-23707821D01*
X148699902Y-23735278D01*
X148700506Y-23735989D01*
X148721593Y-23746195D01*
X148758307Y-23738198D01*
X148819569Y-23710123D01*
X148885949Y-23671541D01*
X148939391Y-23620850D01*
X148971224Y-23554429D01*
X148989586Y-23460321D01*
X148994844Y-23421651D01*
X149003862Y-23369445D01*
X149205102Y-23369445D01*
X149208954Y-23417899D01*
X149211532Y-23427462D01*
X149247792Y-23491007D01*
X149314293Y-23558946D01*
X149404081Y-23625147D01*
X149510202Y-23683481D01*
X149577122Y-23712212D01*
X149651605Y-23739070D01*
X149707826Y-23753862D01*
X149741283Y-23758053D01*
X149765920Y-23754032D01*
X149777817Y-23734975D01*
X149778032Y-23694869D01*
X149767624Y-23627701D01*
X149747648Y-23527460D01*
X149744304Y-23511288D01*
X149723278Y-23418557D01*
X149703207Y-23355960D01*
X149679537Y-23315284D01*
X149647715Y-23288313D01*
X149603187Y-23266830D01*
X149592142Y-23262197D01*
X149504240Y-23218432D01*
X149422581Y-23167078D01*
X149357577Y-23115346D01*
X149319642Y-23070448D01*
X149294946Y-23036204D01*
X149269374Y-23020321D01*
X149256903Y-23035122D01*
X149242183Y-23080597D01*
X149228109Y-23146866D01*
X149216213Y-23223829D01*
X149208033Y-23301388D01*
X149205102Y-23369445D01*
X149003862Y-23369445D01*
X149025413Y-23244691D01*
X149066764Y-23058215D01*
X149116112Y-22872099D01*
X149118706Y-22863738D01*
X149297626Y-22863738D01*
X149355712Y-22967029D01*
X149381889Y-23007828D01*
X149436844Y-23074685D01*
X149491785Y-23123747D01*
X149513288Y-23137848D01*
X149571727Y-23171184D01*
X149617685Y-23191008D01*
X149644803Y-23197113D01*
X149657594Y-23189325D01*
X149658826Y-23158998D01*
X149651604Y-23097581D01*
X149641967Y-23037145D01*
X149623774Y-22946612D01*
X149600409Y-22844821D01*
X149573833Y-22738962D01*
X149546008Y-22636226D01*
X149518895Y-22543803D01*
X149494454Y-22468884D01*
X149474647Y-22418660D01*
X149461436Y-22400321D01*
X149456052Y-22404479D01*
X149437441Y-22440850D01*
X149409811Y-22513045D01*
X149373885Y-22619095D01*
X149330388Y-22757029D01*
X149297626Y-22863738D01*
X149118706Y-22863738D01*
X149170673Y-22696224D01*
X149227663Y-22540468D01*
X149284297Y-22414710D01*
X149329507Y-22332449D01*
X149350946Y-22300321D01*
X149519731Y-22300321D01*
X149520545Y-22305802D01*
X149540928Y-22320321D01*
X149548168Y-22318750D01*
X149549755Y-22300321D01*
X149545646Y-22294335D01*
X149528558Y-22280321D01*
X149526560Y-22280840D01*
X149519731Y-22300321D01*
X149350946Y-22300321D01*
X149396546Y-22231984D01*
X149457381Y-22168431D01*
X149511266Y-22142293D01*
X149557454Y-22154077D01*
X149595199Y-22204288D01*
X149601773Y-22222325D01*
X149618574Y-22278007D01*
X149624838Y-22300321D01*
X149642746Y-22364114D01*
X149672946Y-22475667D01*
X149707832Y-22607687D01*
X149746063Y-22755196D01*
X149786295Y-22913213D01*
X149848324Y-23158998D01*
X149951587Y-23568171D01*
X150014894Y-23584562D01*
G37*
G36*
X148378452Y-24057723D02*
G01*
X148385159Y-24091056D01*
X148377611Y-24111791D01*
X148358672Y-24130692D01*
X148333367Y-24137625D01*
X148296486Y-24124480D01*
X148237580Y-24089600D01*
X148211066Y-24074124D01*
X148164760Y-24053561D01*
X148137899Y-24050780D01*
X148131552Y-24060160D01*
X148122275Y-24100977D01*
X148118628Y-24160072D01*
X148116895Y-24200087D01*
X148098900Y-24270739D01*
X148061512Y-24306659D01*
X148004906Y-24307622D01*
X147973170Y-24301900D01*
X147960987Y-24313712D01*
X147967212Y-24354417D01*
X147968536Y-24360892D01*
X147966895Y-24414378D01*
X147934806Y-24447184D01*
X147868431Y-24463551D01*
X147833432Y-24470561D01*
X147811130Y-24492138D01*
X147802608Y-24540321D01*
X147802192Y-24545184D01*
X147795672Y-24599251D01*
X147788224Y-24635321D01*
X147770880Y-24657309D01*
X147737192Y-24652393D01*
X147686511Y-24615405D01*
X147616886Y-24545321D01*
X147562313Y-24479826D01*
X147459902Y-24314254D01*
X147382017Y-24121447D01*
X147330098Y-23905453D01*
X147305586Y-23670321D01*
X147304162Y-23614610D01*
X147304894Y-23590321D01*
X147391018Y-23590321D01*
X147405008Y-23798063D01*
X147457288Y-24034557D01*
X147548903Y-24270321D01*
X147551575Y-24275935D01*
X147591452Y-24351212D01*
X147632916Y-24416968D01*
X147667406Y-24459531D01*
X147678279Y-24469699D01*
X147707918Y-24494415D01*
X147721858Y-24493111D01*
X147730766Y-24467056D01*
X147731253Y-24465335D01*
X147755791Y-24424374D01*
X147797570Y-24384078D01*
X147798215Y-24383599D01*
X147841445Y-24338086D01*
X147867538Y-24286754D01*
X147880097Y-24249992D01*
X147914580Y-24211929D01*
X147973132Y-24200627D01*
X148006993Y-24190835D01*
X148028175Y-24150321D01*
X148042962Y-24080959D01*
X148054805Y-24032593D01*
X148064970Y-24003224D01*
X148076513Y-23982223D01*
X148107297Y-23963003D01*
X148156740Y-23955885D01*
X148194670Y-23955180D01*
X148207983Y-23944083D01*
X148196007Y-23913982D01*
X148175858Y-23878312D01*
X148105539Y-23776548D01*
X148014450Y-23666297D01*
X147911350Y-23557712D01*
X147804999Y-23460940D01*
X147697651Y-23374894D01*
X147601076Y-23307859D01*
X147526390Y-23272084D01*
X147471012Y-23268375D01*
X147432366Y-23297539D01*
X147407871Y-23360380D01*
X147394948Y-23457705D01*
X147391018Y-23590321D01*
X147304894Y-23590321D01*
X147308072Y-23484802D01*
X147321279Y-23366637D01*
X147342454Y-23267155D01*
X147370266Y-23193396D01*
X147403388Y-23152399D01*
X147427146Y-23146774D01*
X147485170Y-23159021D01*
X147565162Y-23194553D01*
X147662673Y-23250965D01*
X147773248Y-23325849D01*
X147892438Y-23416798D01*
X147961354Y-23473400D01*
X148044281Y-23547500D01*
X148112340Y-23619259D01*
X148173520Y-23698309D01*
X148235805Y-23794276D01*
X148307185Y-23916791D01*
X148312510Y-23926234D01*
X148322145Y-23944083D01*
X148355049Y-24005035D01*
X148378452Y-24057723D01*
G37*
G36*
X150301071Y-24441374D02*
G01*
X150392948Y-24482710D01*
X150485401Y-24546452D01*
X150488270Y-24548818D01*
X150521766Y-24580270D01*
X150527405Y-24604207D01*
X150509285Y-24636000D01*
X150483885Y-24665274D01*
X150452400Y-24677582D01*
X150407100Y-24669314D01*
X150337559Y-24640760D01*
X150311119Y-24629334D01*
X150228450Y-24605358D01*
X150153090Y-24608489D01*
X150067829Y-24638588D01*
X150028450Y-24654103D01*
X149974481Y-24662427D01*
X149947429Y-24644721D01*
X149949628Y-24601713D01*
X149957230Y-24585505D01*
X149997855Y-24538429D01*
X150058874Y-24490634D01*
X150127755Y-24451069D01*
X150191964Y-24428681D01*
X150219594Y-24426387D01*
X150301071Y-24441374D01*
G37*
G36*
X151343853Y-23762315D02*
G01*
X151338710Y-23802469D01*
X151324486Y-23900574D01*
X151308045Y-23990075D01*
X151287277Y-24078595D01*
X151260070Y-24173756D01*
X151224315Y-24283183D01*
X151177898Y-24414496D01*
X151118711Y-24575321D01*
X151099450Y-24604738D01*
X151051432Y-24620321D01*
X151024401Y-24618023D01*
X151008231Y-24604483D01*
X151001076Y-24570109D01*
X150998529Y-24505321D01*
X150996899Y-24458986D01*
X150985475Y-24353963D01*
X150963952Y-24287591D01*
X150932286Y-24259817D01*
X150890429Y-24270589D01*
X150838337Y-24319852D01*
X150836633Y-24321877D01*
X150787109Y-24366846D01*
X150747184Y-24378058D01*
X150721844Y-24356236D01*
X150716080Y-24302106D01*
X150717317Y-24260026D01*
X150706484Y-24243874D01*
X150676048Y-24249162D01*
X150622316Y-24263661D01*
X150588012Y-24263118D01*
X150575676Y-24238807D01*
X150576913Y-24185321D01*
X150578518Y-24145315D01*
X150572186Y-24110180D01*
X150553075Y-24100321D01*
X150539373Y-24102148D01*
X150510511Y-24120321D01*
X150491398Y-24134751D01*
X150453053Y-24140351D01*
X150416630Y-24131986D01*
X150400424Y-24111176D01*
X150401350Y-24099761D01*
X150413437Y-24045510D01*
X150436122Y-23969549D01*
X150523908Y-23969549D01*
X150535614Y-23993881D01*
X150577145Y-24006637D01*
X150624241Y-24025824D01*
X150644121Y-24064521D01*
X150646514Y-24076490D01*
X150667236Y-24104771D01*
X150715673Y-24116588D01*
X150744415Y-24120702D01*
X150773579Y-24136629D01*
X150780724Y-24171588D01*
X150780755Y-24173788D01*
X150794206Y-24210325D01*
X150822321Y-24221127D01*
X150850779Y-24200321D01*
X150875081Y-24186602D01*
X150920880Y-24180321D01*
X150978953Y-24197112D01*
X151024716Y-24249303D01*
X151053067Y-24334631D01*
X151054224Y-24340442D01*
X151067647Y-24382919D01*
X151082431Y-24400321D01*
X151091760Y-24391115D01*
X151110895Y-24349904D01*
X151134866Y-24282441D01*
X151161400Y-24196239D01*
X151188225Y-24098810D01*
X151213070Y-23997666D01*
X151233661Y-23900321D01*
X151245045Y-23832258D01*
X151255506Y-23728927D01*
X151258521Y-23612723D01*
X151254745Y-23470321D01*
X151248474Y-23369612D01*
X151236369Y-23253369D01*
X151220590Y-23152055D01*
X151202353Y-23071934D01*
X151182877Y-23019268D01*
X151163379Y-23000321D01*
X151145370Y-23009117D01*
X151104365Y-23042849D01*
X151049174Y-23095673D01*
X150986145Y-23160965D01*
X150921626Y-23232101D01*
X150861966Y-23302455D01*
X150813512Y-23365405D01*
X150794184Y-23393590D01*
X150740968Y-23479836D01*
X150684890Y-23580536D01*
X150630786Y-23686025D01*
X150583490Y-23786643D01*
X150547839Y-23872727D01*
X150528667Y-23934614D01*
X150523908Y-23969549D01*
X150436122Y-23969549D01*
X150436950Y-23966775D01*
X150468615Y-23872660D01*
X150505160Y-23772269D01*
X150543312Y-23674707D01*
X150579798Y-23589078D01*
X150611344Y-23524485D01*
X150615964Y-23516173D01*
X150669900Y-23429745D01*
X150737931Y-23334862D01*
X150815378Y-23236642D01*
X150897558Y-23140203D01*
X150979791Y-23050663D01*
X151057394Y-22973140D01*
X151125688Y-22912751D01*
X151179990Y-22874615D01*
X151215620Y-22863849D01*
X151242142Y-22882759D01*
X151271360Y-22936781D01*
X151297641Y-23019246D01*
X151320096Y-23123920D01*
X151337836Y-23244572D01*
X151349971Y-23374969D01*
X151355612Y-23508880D01*
X151354232Y-23612723D01*
X151353869Y-23640073D01*
X151343853Y-23762315D01*
G37*
G36*
X148568935Y-24540602D02*
G01*
X148621432Y-24554964D01*
X148682098Y-24585577D01*
X148739538Y-24624820D01*
X148782358Y-24665068D01*
X148799164Y-24698700D01*
X148796532Y-24724171D01*
X148777581Y-24747643D01*
X148736176Y-24745852D01*
X148667424Y-24719575D01*
X148574448Y-24677253D01*
X148481644Y-24727103D01*
X148455064Y-24741366D01*
X148405836Y-24766588D01*
X148377742Y-24776155D01*
X148360500Y-24772322D01*
X148343830Y-24757345D01*
X148342994Y-24756485D01*
X148333132Y-24720929D01*
X148351672Y-24675427D01*
X148391243Y-24627296D01*
X148444472Y-24583855D01*
X148503989Y-24552424D01*
X148562422Y-24540321D01*
X148568935Y-24540602D01*
G37*
G36*
X150488235Y-25013883D02*
G01*
X150583747Y-25039223D01*
X150659054Y-25070879D01*
X150713865Y-25104871D01*
X150733592Y-25137238D01*
X150720677Y-25170321D01*
X150720083Y-25171038D01*
X150705950Y-25188518D01*
X150693198Y-25196253D01*
X150672302Y-25192698D01*
X150633735Y-25176305D01*
X150567973Y-25145529D01*
X150525177Y-25126678D01*
X150457241Y-25104360D01*
X150384849Y-25093476D01*
X150290338Y-25090529D01*
X150211832Y-25091982D01*
X150143870Y-25099583D01*
X150086127Y-25116742D01*
X150022627Y-25146820D01*
X149959273Y-25175411D01*
X149907213Y-25185984D01*
X149882134Y-25171621D01*
X149886390Y-25132568D01*
X149906448Y-25103342D01*
X149964447Y-25065037D01*
X150048700Y-25034662D01*
X150151206Y-25013288D01*
X150263964Y-25001986D01*
X150378974Y-25001828D01*
X150488235Y-25013883D01*
G37*
X144843250Y-40569500D02*
X144843250Y-40299500D01*
X144843250Y-33939500D02*
X143743250Y-33939500D01*
X144843250Y-33669500D02*
X144843250Y-33939500D01*
X144843250Y-40299500D02*
X142013250Y-40299500D01*
X146343250Y-40569500D02*
X144843250Y-40569500D01*
X146343250Y-33669500D02*
X144843250Y-33669500D01*
X153125500Y-62053436D02*
X153125500Y-62507564D01*
X154595500Y-62053436D02*
X154595500Y-62507564D01*
X147725500Y-66307564D02*
X147725500Y-65853436D01*
X149195500Y-66307564D02*
X149195500Y-65853436D01*
X146860500Y-52920500D02*
X147510500Y-52920500D01*
X146860500Y-52920500D02*
X146210500Y-52920500D01*
X146860500Y-56040500D02*
X145185500Y-56040500D01*
X146860500Y-56040500D02*
X147510500Y-56040500D01*
D10*
X160087000Y-43255500D02*
X159762000Y-43255500D01*
X160087000Y-50505500D02*
X160087000Y-50180500D01*
X160087000Y-43255500D02*
X160087000Y-43480500D01*
X160087000Y-50505500D02*
X159762000Y-50505500D01*
X160087000Y-43480500D02*
X161512000Y-43480500D01*
X152837000Y-43255500D02*
X153162000Y-43255500D01*
X152837000Y-50505500D02*
X152837000Y-50180500D01*
X152837000Y-50505500D02*
X153162000Y-50505500D01*
X152837000Y-43255500D02*
X152837000Y-43580500D01*
D12*
X161860500Y-31630500D02*
X157860500Y-31630500D01*
X161860500Y-26530500D02*
X157860500Y-26530500D01*
D13*
X164405500Y-26575500D02*
G75*
G03*
X164405500Y-26575500I-100000J0D01*
G01*
D11*
X162295452Y-50880500D02*
X161895452Y-50880500D01*
X164695452Y-49080500D02*
X164695452Y-48280500D01*
X164695452Y-48280500D02*
X162695452Y-48280500D01*
X164695452Y-52080500D02*
X162695452Y-52080500D01*
X162695452Y-51880500D02*
X162295452Y-51880500D01*
X162695452Y-48280500D02*
X162295452Y-48280500D01*
X162295452Y-50880500D02*
X162295452Y-51880500D01*
X162695452Y-51880500D02*
X164695452Y-51880500D01*
X162295452Y-48280500D02*
X162295452Y-49080500D01*
X164695452Y-51880500D02*
X164695452Y-50880500D01*
X162695452Y-52080500D02*
X162295452Y-52080500D01*
X151195500Y-62053436D02*
X151195500Y-62507564D01*
X149725500Y-62053436D02*
X149725500Y-62507564D01*
X149125500Y-57653436D02*
X149125500Y-58107564D01*
X150595500Y-57653436D02*
X150595500Y-58107564D01*
X163088250Y-19967248D02*
X163088250Y-20489752D01*
X164558250Y-19967248D02*
X164558250Y-20489752D01*
X161395500Y-62053436D02*
X161395500Y-62507564D01*
X159925500Y-62053436D02*
X159925500Y-62507564D01*
X165525500Y-54253436D02*
X165525500Y-54707564D01*
X166995500Y-54253436D02*
X166995500Y-54707564D01*
X163925500Y-28165936D02*
X163925500Y-28620064D01*
X165395500Y-28165936D02*
X165395500Y-28620064D01*
X149700500Y-65880500D02*
X149700500Y-66530500D01*
X152820500Y-65880500D02*
X152820500Y-65230500D01*
X152820500Y-65880500D02*
X152820500Y-66530500D01*
X149700500Y-65880500D02*
X149700500Y-64205500D01*
X155214250Y-20033248D02*
X155214250Y-20555752D01*
X156684250Y-20033248D02*
X156684250Y-20555752D01*
X140875500Y-61990936D02*
X140875500Y-62445064D01*
X142345500Y-61990936D02*
X142345500Y-62445064D01*
X147170500Y-65818000D02*
X147170500Y-65168000D01*
X144050500Y-65818000D02*
X144050500Y-66468000D01*
X147170500Y-65818000D02*
X147170500Y-66468000D01*
X144050500Y-65818000D02*
X144050500Y-64143000D01*
M02*
