M48
INCH,TZ
T1C0.0157
T2C0.0236
T3C0.0315
T4C0.0354
T5C0.0394
T6C0.0472
T7C0.0512
%
G90
G05
T1
X53497Y-12714
X54347Y-12714
X55447Y-23014
X55547Y-15764
X57547Y-16314
X58134Y-20977
X58449Y-24205
X58449Y-24835
X59000Y-23654
X60654Y-17984
X61047Y-16173
X61047Y-17433
X61441Y-16173
X61452Y-19574
X61597Y-11214
X61597Y-11714
X61597Y-12214
X61779Y-8760
X61797Y-9363
X61992Y-17827
X61992Y-19244
X62433Y-9314
X62465Y-17827
X62927Y-10504
X62947Y-12564
X63997Y-7614
X64276Y-17433
X64512Y-12197
X66244Y-18457
X66795Y-17669
X66953Y-20977
X67032Y-15858
X67032Y-16252
X67347Y-24205
X67347Y-24835
X67819Y-23654
X71441Y-18221
X71441Y-18614
T3
X52863Y-22464
X53847Y-22464
X56008Y-27748
X56756Y-31310
X56855Y-32196
X57051Y-30523
X57268Y-27748
X57347Y-32983
X57740Y-30031
X58134Y-33377
X58528Y-27748
X58921Y-33377
X59315Y-30031
X59709Y-32983
X59788Y-27748
X60004Y-30523
X60201Y-32196
X60299Y-31310
X60597Y-7588
X60597Y-8375
X61047Y-27748
X62307Y-27748
X63567Y-27748
X64827Y-27748
X65297Y-7588
X65297Y-8375
X65575Y-31310
X65673Y-32196
X65870Y-30523
X66087Y-27748
X66166Y-32983
X66559Y-30031
X66953Y-33377
X67347Y-27748
X67740Y-33377
X68134Y-30031
X68528Y-32983
X68606Y-27748
X68823Y-30523
X69020Y-32196
X69118Y-31310
X69147Y-9064
X69147Y-9964
X69866Y-27748
T4
X72331Y-15386
X72331Y-21528
X73331Y-15386
X73331Y-21528
T5
X73606Y-17591
X73606Y-19362
T6
X56638Y-27748
X57898Y-27748
X59236Y-27748
X60418Y-27748
X61677Y-27748
X62937Y-27748
X64197Y-27748
X65457Y-27748
X66717Y-27748
X67977Y-27748
X69236Y-27748
T7
X53397Y-13964
X53397Y-15145
X72622Y-17099
X72622Y-19855
T2
G00X52101Y-16756
M15
G01X51589Y-16756
M16
G05
G00X52101Y-20158
M15
G01X51589Y-20158
M16
G05
G00X53548Y-16756
M15
G01X53154Y-16756
M16
G05
G00X53548Y-20158
M15
G01X53154Y-20158
M16
G05
T0
M30
