G04 #@! TF.GenerationSoftware,KiCad,Pcbnew,6.0.8-f2edbf62ab~116~ubuntu20.04.1*
G04 #@! TF.CreationDate,2022-10-17T13:25:48+07:00*
G04 #@! TF.ProjectId,IN-8,494e2d38-2e6b-4696-9361-645f70636258,rev?*
G04 #@! TF.SameCoordinates,Original*
G04 #@! TF.FileFunction,Legend,Top*
G04 #@! TF.FilePolarity,Positive*
%FSLAX46Y46*%
G04 Gerber Fmt 4.6, Leading zero omitted, Abs format (unit mm)*
G04 Created by KiCad (PCBNEW 6.0.8-f2edbf62ab~116~ubuntu20.04.1) date 2022-10-17 13:25:48*
%MOMM*%
%LPD*%
G01*
G04 APERTURE LIST*
%ADD10C,0.150000*%
%ADD11C,0.120000*%
%ADD12C,0.127000*%
%ADD13C,0.254000*%
G04 APERTURE END LIST*
D10*
X157417642Y-23982880D02*
X157084309Y-23506690D01*
X156846214Y-23982880D02*
X156846214Y-22982880D01*
X157227166Y-22982880D01*
X157322404Y-23030500D01*
X157370023Y-23078119D01*
X157417642Y-23173357D01*
X157417642Y-23316214D01*
X157370023Y-23411452D01*
X157322404Y-23459071D01*
X157227166Y-23506690D01*
X156846214Y-23506690D01*
X157798595Y-23078119D02*
X157846214Y-23030500D01*
X157941452Y-22982880D01*
X158179547Y-22982880D01*
X158274785Y-23030500D01*
X158322404Y-23078119D01*
X158370023Y-23173357D01*
X158370023Y-23268595D01*
X158322404Y-23411452D01*
X157750976Y-23982880D01*
X158370023Y-23982880D01*
X158846214Y-23982880D02*
X159036690Y-23982880D01*
X159131928Y-23935261D01*
X159179547Y-23887642D01*
X159274785Y-23744785D01*
X159322404Y-23554309D01*
X159322404Y-23173357D01*
X159274785Y-23078119D01*
X159227166Y-23030500D01*
X159131928Y-22982880D01*
X158941452Y-22982880D01*
X158846214Y-23030500D01*
X158798595Y-23078119D01*
X158750976Y-23173357D01*
X158750976Y-23411452D01*
X158798595Y-23506690D01*
X158846214Y-23554309D01*
X158941452Y-23601928D01*
X159131928Y-23601928D01*
X159227166Y-23554309D01*
X159274785Y-23506690D01*
X159322404Y-23411452D01*
X161017642Y-23982880D02*
X160684309Y-23506690D01*
X160446214Y-23982880D02*
X160446214Y-22982880D01*
X160827166Y-22982880D01*
X160922404Y-23030500D01*
X160970023Y-23078119D01*
X161017642Y-23173357D01*
X161017642Y-23316214D01*
X160970023Y-23411452D01*
X160922404Y-23459071D01*
X160827166Y-23506690D01*
X160446214Y-23506690D01*
X161398595Y-23078119D02*
X161446214Y-23030500D01*
X161541452Y-22982880D01*
X161779547Y-22982880D01*
X161874785Y-23030500D01*
X161922404Y-23078119D01*
X161970023Y-23173357D01*
X161970023Y-23268595D01*
X161922404Y-23411452D01*
X161350976Y-23982880D01*
X161970023Y-23982880D01*
X162541452Y-23411452D02*
X162446214Y-23363833D01*
X162398595Y-23316214D01*
X162350976Y-23220976D01*
X162350976Y-23173357D01*
X162398595Y-23078119D01*
X162446214Y-23030500D01*
X162541452Y-22982880D01*
X162731928Y-22982880D01*
X162827166Y-23030500D01*
X162874785Y-23078119D01*
X162922404Y-23173357D01*
X162922404Y-23220976D01*
X162874785Y-23316214D01*
X162827166Y-23363833D01*
X162731928Y-23411452D01*
X162541452Y-23411452D01*
X162446214Y-23459071D01*
X162398595Y-23506690D01*
X162350976Y-23601928D01*
X162350976Y-23792404D01*
X162398595Y-23887642D01*
X162446214Y-23935261D01*
X162541452Y-23982880D01*
X162731928Y-23982880D01*
X162827166Y-23935261D01*
X162874785Y-23887642D01*
X162922404Y-23792404D01*
X162922404Y-23601928D01*
X162874785Y-23506690D01*
X162827166Y-23459071D01*
X162731928Y-23411452D01*
X157417630Y-28895857D02*
X156941440Y-29229190D01*
X157417630Y-29467285D02*
X156417630Y-29467285D01*
X156417630Y-29086333D01*
X156465250Y-28991095D01*
X156512869Y-28943476D01*
X156608107Y-28895857D01*
X156750964Y-28895857D01*
X156846202Y-28943476D01*
X156893821Y-28991095D01*
X156941440Y-29086333D01*
X156941440Y-29467285D01*
X156417630Y-28562523D02*
X156417630Y-27943476D01*
X156798583Y-28276809D01*
X156798583Y-28133952D01*
X156846202Y-28038714D01*
X156893821Y-27991095D01*
X156989059Y-27943476D01*
X157227154Y-27943476D01*
X157322392Y-27991095D01*
X157370011Y-28038714D01*
X157417630Y-28133952D01*
X157417630Y-28419666D01*
X157370011Y-28514904D01*
X157322392Y-28562523D01*
X157417630Y-26991095D02*
X157417630Y-27562523D01*
X157417630Y-27276809D02*
X156417630Y-27276809D01*
X156560488Y-27372047D01*
X156655726Y-27467285D01*
X156703345Y-27562523D01*
X153750583Y-24030530D02*
X153702964Y-24078149D01*
X153560107Y-24125768D01*
X153464869Y-24125768D01*
X153322011Y-24078149D01*
X153226773Y-23982911D01*
X153179154Y-23887673D01*
X153131535Y-23697197D01*
X153131535Y-23554340D01*
X153179154Y-23363864D01*
X153226773Y-23268626D01*
X153322011Y-23173388D01*
X153464869Y-23125768D01*
X153560107Y-23125768D01*
X153702964Y-23173388D01*
X153750583Y-23221007D01*
X154083916Y-23125768D02*
X154702964Y-23125768D01*
X154369630Y-23506721D01*
X154512488Y-23506721D01*
X154607726Y-23554340D01*
X154655345Y-23601959D01*
X154702964Y-23697197D01*
X154702964Y-23935292D01*
X154655345Y-24030530D01*
X154607726Y-24078149D01*
X154512488Y-24125768D01*
X154226773Y-24125768D01*
X154131535Y-24078149D01*
X154083916Y-24030530D01*
X182512880Y-55418595D02*
X181512880Y-55418595D01*
X181512880Y-55180500D01*
X181560500Y-55037642D01*
X181655738Y-54942404D01*
X181750976Y-54894785D01*
X181941452Y-54847166D01*
X182084309Y-54847166D01*
X182274785Y-54894785D01*
X182370023Y-54942404D01*
X182465261Y-55037642D01*
X182512880Y-55180500D01*
X182512880Y-55418595D01*
X181608119Y-54466214D02*
X181560500Y-54418595D01*
X181512880Y-54323357D01*
X181512880Y-54085261D01*
X181560500Y-53990023D01*
X181608119Y-53942404D01*
X181703357Y-53894785D01*
X181798595Y-53894785D01*
X181941452Y-53942404D01*
X182512880Y-54513833D01*
X182512880Y-53894785D01*
X163131630Y-28895857D02*
X162655440Y-29229190D01*
X163131630Y-29467285D02*
X162131630Y-29467285D01*
X162131630Y-29086333D01*
X162179250Y-28991095D01*
X162226869Y-28943476D01*
X162322107Y-28895857D01*
X162464964Y-28895857D01*
X162560202Y-28943476D01*
X162607821Y-28991095D01*
X162655440Y-29086333D01*
X162655440Y-29467285D01*
X162131630Y-28562523D02*
X162131630Y-27943476D01*
X162512583Y-28276809D01*
X162512583Y-28133952D01*
X162560202Y-28038714D01*
X162607821Y-27991095D01*
X162703059Y-27943476D01*
X162941154Y-27943476D01*
X163036392Y-27991095D01*
X163084011Y-28038714D01*
X163131630Y-28133952D01*
X163131630Y-28419666D01*
X163084011Y-28514904D01*
X163036392Y-28562523D01*
X162131630Y-27324428D02*
X162131630Y-27229190D01*
X162179250Y-27133952D01*
X162226869Y-27086333D01*
X162322107Y-27038714D01*
X162512583Y-26991095D01*
X162750678Y-26991095D01*
X162941154Y-27038714D01*
X163036392Y-27086333D01*
X163084011Y-27133952D01*
X163131630Y-27229190D01*
X163131630Y-27324428D01*
X163084011Y-27419666D01*
X163036392Y-27467285D01*
X162941154Y-27514904D01*
X162750678Y-27562523D01*
X162512583Y-27562523D01*
X162322107Y-27514904D01*
X162226869Y-27467285D01*
X162179250Y-27419666D01*
X162131630Y-27324428D01*
X137745630Y-50236595D02*
X136745630Y-50236595D01*
X136745630Y-49998500D01*
X136793250Y-49855642D01*
X136888488Y-49760404D01*
X136983726Y-49712785D01*
X137174202Y-49665166D01*
X137317059Y-49665166D01*
X137507535Y-49712785D01*
X137602773Y-49760404D01*
X137698011Y-49855642D01*
X137745630Y-49998500D01*
X137745630Y-50236595D01*
X137745630Y-48712785D02*
X137745630Y-49284214D01*
X137745630Y-48998500D02*
X136745630Y-48998500D01*
X136888488Y-49093738D01*
X136983726Y-49188976D01*
X137031345Y-49284214D01*
X160291154Y-34709380D02*
X160291154Y-33709380D01*
X160529250Y-33709380D01*
X160672107Y-33757000D01*
X160767345Y-33852238D01*
X160814964Y-33947476D01*
X160862583Y-34137952D01*
X160862583Y-34280809D01*
X160814964Y-34471285D01*
X160767345Y-34566523D01*
X160672107Y-34661761D01*
X160529250Y-34709380D01*
X160291154Y-34709380D01*
X161719726Y-34042714D02*
X161719726Y-34709380D01*
X161481630Y-33661761D02*
X161243535Y-34376047D01*
X161862583Y-34376047D01*
X132888630Y-47213833D02*
X133602916Y-47213833D01*
X133745773Y-47261452D01*
X133841011Y-47356690D01*
X133888630Y-47499547D01*
X133888630Y-47594785D01*
X133888630Y-46213833D02*
X133888630Y-46785261D01*
X133888630Y-46499547D02*
X132888630Y-46499547D01*
X133031488Y-46594785D01*
X133126726Y-46690023D01*
X133174345Y-46785261D01*
X165688583Y-23985642D02*
X165640964Y-24033261D01*
X165498107Y-24080880D01*
X165402869Y-24080880D01*
X165260011Y-24033261D01*
X165164773Y-23938023D01*
X165117154Y-23842785D01*
X165069535Y-23652309D01*
X165069535Y-23509452D01*
X165117154Y-23318976D01*
X165164773Y-23223738D01*
X165260011Y-23128500D01*
X165402869Y-23080880D01*
X165498107Y-23080880D01*
X165640964Y-23128500D01*
X165688583Y-23176119D01*
X166545726Y-23414214D02*
X166545726Y-24080880D01*
X166307630Y-23033261D02*
X166069535Y-23747547D01*
X166688583Y-23747547D01*
X158005154Y-34836380D02*
X158005154Y-33836380D01*
X158243250Y-33836380D01*
X158386107Y-33884000D01*
X158481345Y-33979238D01*
X158528964Y-34074476D01*
X158576583Y-34264952D01*
X158576583Y-34407809D01*
X158528964Y-34598285D01*
X158481345Y-34693523D01*
X158386107Y-34788761D01*
X158243250Y-34836380D01*
X158005154Y-34836380D01*
X159481345Y-33836380D02*
X159005154Y-33836380D01*
X158957535Y-34312571D01*
X159005154Y-34264952D01*
X159100392Y-34217333D01*
X159338488Y-34217333D01*
X159433726Y-34264952D01*
X159481345Y-34312571D01*
X159528964Y-34407809D01*
X159528964Y-34645904D01*
X159481345Y-34741142D01*
X159433726Y-34788761D01*
X159338488Y-34836380D01*
X159100392Y-34836380D01*
X159005154Y-34788761D01*
X158957535Y-34741142D01*
X135423204Y-53015642D02*
X135375585Y-53063261D01*
X135232728Y-53110880D01*
X135137490Y-53110880D01*
X134994632Y-53063261D01*
X134899394Y-52968023D01*
X134851775Y-52872785D01*
X134804156Y-52682309D01*
X134804156Y-52539452D01*
X134851775Y-52348976D01*
X134899394Y-52253738D01*
X134994632Y-52158500D01*
X135137490Y-52110880D01*
X135232728Y-52110880D01*
X135375585Y-52158500D01*
X135423204Y-52206119D01*
X136327966Y-52110880D02*
X135851775Y-52110880D01*
X135804156Y-52587071D01*
X135851775Y-52539452D01*
X135947013Y-52491833D01*
X136185109Y-52491833D01*
X136280347Y-52539452D01*
X136327966Y-52587071D01*
X136375585Y-52682309D01*
X136375585Y-52920404D01*
X136327966Y-53015642D01*
X136280347Y-53063261D01*
X136185109Y-53110880D01*
X135947013Y-53110880D01*
X135851775Y-53063261D01*
X135804156Y-53015642D01*
X170498595Y-81330144D02*
X170498595Y-80330144D01*
X171070023Y-81330144D01*
X171070023Y-80330144D01*
X171498595Y-80425383D02*
X171546214Y-80377764D01*
X171641452Y-80330144D01*
X171879547Y-80330144D01*
X171974785Y-80377764D01*
X172022404Y-80425383D01*
X172070023Y-80520621D01*
X172070023Y-80615859D01*
X172022404Y-80758716D01*
X171450976Y-81330144D01*
X172070023Y-81330144D01*
X139002630Y-37063271D02*
X139002630Y-37539462D01*
X138002630Y-37539462D01*
X139002630Y-36206128D02*
X139002630Y-36777557D01*
X139002630Y-36491843D02*
X138002630Y-36491843D01*
X138145488Y-36587081D01*
X138240726Y-36682319D01*
X138288345Y-36777557D01*
X184865261Y-48263833D02*
X184912880Y-48120976D01*
X184912880Y-47882880D01*
X184865261Y-47787642D01*
X184817642Y-47740023D01*
X184722404Y-47692404D01*
X184627166Y-47692404D01*
X184531928Y-47740023D01*
X184484309Y-47787642D01*
X184436690Y-47882880D01*
X184389071Y-48073357D01*
X184341452Y-48168595D01*
X184293833Y-48216214D01*
X184198595Y-48263833D01*
X184103357Y-48263833D01*
X184008119Y-48216214D01*
X183960500Y-48168595D01*
X183912880Y-48073357D01*
X183912880Y-47835261D01*
X183960500Y-47692404D01*
X183912880Y-47359071D02*
X184912880Y-47120976D01*
X184198595Y-46930500D01*
X184912880Y-46740023D01*
X183912880Y-46501928D01*
X184912880Y-45597166D02*
X184912880Y-46168595D01*
X184912880Y-45882880D02*
X183912880Y-45882880D01*
X184055738Y-45978119D01*
X184150976Y-46073357D01*
X184198595Y-46168595D01*
X182512880Y-39818595D02*
X181512880Y-39818595D01*
X181512880Y-39580500D01*
X181560500Y-39437642D01*
X181655738Y-39342404D01*
X181750976Y-39294785D01*
X181941452Y-39247166D01*
X182084309Y-39247166D01*
X182274785Y-39294785D01*
X182370023Y-39342404D01*
X182465261Y-39437642D01*
X182512880Y-39580500D01*
X182512880Y-39818595D01*
X181512880Y-38913833D02*
X181512880Y-38294785D01*
X181893833Y-38628119D01*
X181893833Y-38485261D01*
X181941452Y-38390023D01*
X181989071Y-38342404D01*
X182084309Y-38294785D01*
X182322404Y-38294785D01*
X182417642Y-38342404D01*
X182465261Y-38390023D01*
X182512880Y-38485261D01*
X182512880Y-38770976D01*
X182465261Y-38866214D01*
X182417642Y-38913833D01*
X173705678Y-23403452D02*
X173705678Y-22641547D01*
X174086630Y-23022500D02*
X173324726Y-23022500D01*
X148098595Y-81330144D02*
X148098595Y-80330144D01*
X148670023Y-81330144D01*
X148670023Y-80330144D01*
X149670023Y-81330144D02*
X149098595Y-81330144D01*
X149384309Y-81330144D02*
X149384309Y-80330144D01*
X149289071Y-80473002D01*
X149193833Y-80568240D01*
X149098595Y-80615859D01*
X173705678Y-25689452D02*
X173705678Y-24927547D01*
D11*
X157833436Y-25815500D02*
X158287564Y-25815500D01*
X157833436Y-24345500D02*
X158287564Y-24345500D01*
X161433436Y-25815500D02*
X161887564Y-25815500D01*
X161433436Y-24345500D02*
X161887564Y-24345500D01*
X158016250Y-28025936D02*
X158016250Y-28480064D01*
X159486250Y-28025936D02*
X159486250Y-28480064D01*
X156141250Y-21594388D02*
X154957250Y-21594388D01*
X156331250Y-21194388D02*
X154957250Y-21194388D01*
X156460250Y-20713388D02*
X154957250Y-20713388D01*
X152877250Y-22034388D02*
X152016250Y-22034388D01*
X156497250Y-20273388D02*
X154957250Y-20273388D01*
X152877250Y-20433388D02*
X151341250Y-20433388D01*
X152877250Y-20713388D02*
X151374250Y-20713388D01*
X152877250Y-20673388D02*
X151367250Y-20673388D01*
X152877250Y-20393388D02*
X151339250Y-20393388D01*
X152877250Y-22154388D02*
X152132250Y-22154388D01*
X152877250Y-21594388D02*
X151693250Y-21594388D01*
X152877250Y-21714388D02*
X151768250Y-21714388D01*
X155781250Y-22074388D02*
X154957250Y-22074388D01*
X152877250Y-20313388D02*
X151337250Y-20313388D01*
X152877250Y-21474388D02*
X151627250Y-21474388D01*
X152877250Y-22114388D02*
X152091250Y-22114388D01*
X156227250Y-21434388D02*
X154957250Y-21434388D01*
X152877250Y-21994388D02*
X151980250Y-21994388D01*
X155015250Y-22634388D02*
X152819250Y-22634388D01*
X152877250Y-20593388D02*
X151356250Y-20593388D01*
X152877250Y-20353388D02*
X151338250Y-20353388D01*
X155982250Y-21834388D02*
X154957250Y-21834388D01*
X156453250Y-20753388D02*
X154957250Y-20753388D01*
X156012250Y-21794388D02*
X154957250Y-21794388D01*
X154435250Y-22834388D02*
X153399250Y-22834388D01*
X155702250Y-22154388D02*
X154957250Y-22154388D01*
X152877250Y-21034388D02*
X151449250Y-21034388D01*
X155570250Y-22274388D02*
X154957250Y-22274388D01*
X155236250Y-22514388D02*
X152598250Y-22514388D01*
X152877250Y-21754388D02*
X151795250Y-21754388D01*
X156039250Y-21754388D02*
X154957250Y-21754388D01*
X152877250Y-21354388D02*
X151569250Y-21354388D01*
X156164250Y-21554388D02*
X154957250Y-21554388D01*
X156185250Y-21514388D02*
X154957250Y-21514388D01*
X156408250Y-20953388D02*
X154957250Y-20953388D01*
X156445250Y-20793388D02*
X154957250Y-20793388D01*
X156092250Y-21674388D02*
X154957250Y-21674388D01*
X152877250Y-22234388D02*
X152218250Y-22234388D01*
X156372250Y-21074388D02*
X154957250Y-21074388D01*
X152877250Y-21234388D02*
X151519250Y-21234388D01*
X155743250Y-22114388D02*
X154957250Y-22114388D01*
X152877250Y-21394388D02*
X151588250Y-21394388D01*
X155392250Y-17468613D02*
X155392250Y-17968613D01*
X152877250Y-20473388D02*
X151344250Y-20473388D01*
X155168250Y-22554388D02*
X152666250Y-22554388D01*
X156299250Y-21274388D02*
X154957250Y-21274388D01*
X152877250Y-21194388D02*
X151503250Y-21194388D01*
X152877250Y-21954388D02*
X151946250Y-21954388D01*
X156397250Y-20994388D02*
X154957250Y-20994388D01*
X152877250Y-21914388D02*
X151913250Y-21914388D01*
X156428250Y-20873388D02*
X154957250Y-20873388D01*
X156117250Y-21634388D02*
X154957250Y-21634388D01*
X156467250Y-20673388D02*
X154957250Y-20673388D01*
X155522250Y-22314388D02*
X152312250Y-22314388D01*
X156246250Y-21394388D02*
X154957250Y-21394388D01*
X152877250Y-20793388D02*
X151389250Y-20793388D01*
X156066250Y-21714388D02*
X154957250Y-21714388D01*
X152877250Y-21674388D02*
X151742250Y-21674388D01*
X152877250Y-21554388D02*
X151670250Y-21554388D01*
X152877250Y-20633388D02*
X151361250Y-20633388D01*
X156385250Y-21034388D02*
X154957250Y-21034388D01*
X156315250Y-21234388D02*
X154957250Y-21234388D01*
X152877250Y-22194388D02*
X152174250Y-22194388D01*
X156497250Y-20313388D02*
X154957250Y-20313388D01*
X152877250Y-21874388D02*
X151882250Y-21874388D01*
X156207250Y-21474388D02*
X154957250Y-21474388D01*
X156265250Y-21354388D02*
X154957250Y-21354388D01*
X152877250Y-21114388D02*
X151475250Y-21114388D01*
X152877250Y-21274388D02*
X151535250Y-21274388D01*
X152877250Y-21154388D02*
X151489250Y-21154388D01*
X156359250Y-21114388D02*
X154957250Y-21114388D01*
X156490250Y-20473388D02*
X154957250Y-20473388D01*
X152877250Y-22274388D02*
X152264250Y-22274388D01*
X156482250Y-20553388D02*
X154957250Y-20553388D01*
X155642250Y-17718613D02*
X155142250Y-17718613D01*
X152877250Y-21314388D02*
X151552250Y-21314388D01*
X154201250Y-22874388D02*
X153633250Y-22874388D01*
X152877250Y-20273388D02*
X151337250Y-20273388D01*
X155921250Y-21914388D02*
X154957250Y-21914388D01*
X152877250Y-21634388D02*
X151717250Y-21634388D01*
X152877250Y-20913388D02*
X151416250Y-20913388D01*
X152877250Y-20833388D02*
X151397250Y-20833388D01*
X156486250Y-20513388D02*
X154957250Y-20513388D01*
X152877250Y-21834388D02*
X151852250Y-21834388D01*
X155300250Y-22474388D02*
X152534250Y-22474388D01*
X152877250Y-21514388D02*
X151649250Y-21514388D01*
X154722250Y-22754388D02*
X153112250Y-22754388D01*
X156478250Y-20593388D02*
X154957250Y-20593388D01*
X152877250Y-20953388D02*
X151426250Y-20953388D01*
X152877250Y-20513388D02*
X151348250Y-20513388D01*
X155616250Y-22234388D02*
X154957250Y-22234388D01*
X154928250Y-22674388D02*
X152906250Y-22674388D01*
X154594250Y-22794388D02*
X153240250Y-22794388D01*
X152877250Y-22074388D02*
X152053250Y-22074388D01*
X156282250Y-21314388D02*
X154957250Y-21314388D01*
X152877250Y-20873388D02*
X151406250Y-20873388D01*
X156496250Y-20353388D02*
X154957250Y-20353388D01*
X152877250Y-21794388D02*
X151822250Y-21794388D01*
X155095250Y-22594388D02*
X152739250Y-22594388D01*
X156495250Y-20393388D02*
X154957250Y-20393388D01*
X155660250Y-22194388D02*
X154957250Y-22194388D01*
X154832250Y-22714388D02*
X153002250Y-22714388D01*
X155360250Y-22434388D02*
X152474250Y-22434388D01*
X152877250Y-21434388D02*
X151607250Y-21434388D01*
X152877250Y-21074388D02*
X151462250Y-21074388D01*
X155888250Y-21954388D02*
X154957250Y-21954388D01*
X156437250Y-20833388D02*
X154957250Y-20833388D01*
X156493250Y-20433388D02*
X154957250Y-20433388D01*
X155854250Y-21994388D02*
X154957250Y-21994388D01*
X156418250Y-20913388D02*
X154957250Y-20913388D01*
X156473250Y-20633388D02*
X154957250Y-20633388D01*
X155471250Y-22354388D02*
X152363250Y-22354388D01*
X155417250Y-22394388D02*
X152417250Y-22394388D01*
X155818250Y-22034388D02*
X154957250Y-22034388D01*
X155952250Y-21874388D02*
X154957250Y-21874388D01*
X156345250Y-21154388D02*
X154957250Y-21154388D01*
X152877250Y-20553388D02*
X151352250Y-20553388D01*
X152877250Y-20994388D02*
X151437250Y-20994388D01*
X152877250Y-20753388D02*
X151381250Y-20753388D01*
X156537250Y-20273388D02*
G75*
G03*
X156537250Y-20273388I-2620000J0D01*
G01*
X186550500Y-55916500D02*
X186550500Y-55760500D01*
X186550500Y-53600500D02*
X186550500Y-53444500D01*
X186550500Y-53444984D02*
G75*
G03*
X183318165Y-53601892I-1560000J-1235516D01*
G01*
X183318165Y-55759108D02*
G75*
G03*
X186550500Y-55916016I1672335J1078608D01*
G01*
X186031461Y-53600500D02*
G75*
G03*
X183949370Y-53600663I-1040961J-1080000D01*
G01*
X183949370Y-55760337D02*
G75*
G03*
X186031461Y-55760500I1041130J1079837D01*
G01*
X161764250Y-28025936D02*
X161764250Y-28480064D01*
X160294250Y-28025936D02*
X160294250Y-28480064D01*
X141343250Y-50298500D02*
X141343250Y-44898500D01*
X138043250Y-50298500D02*
X138043250Y-44898500D01*
X138043250Y-50298500D02*
X141343250Y-50298500D01*
X161989250Y-30159000D02*
X160069250Y-30159000D01*
X160069250Y-30159000D02*
X160069250Y-32844000D01*
X161989250Y-32844000D02*
X161989250Y-30159000D01*
X134051250Y-51460500D02*
X133196250Y-51460500D01*
X130076250Y-51460500D02*
X129126250Y-51460500D01*
X130076250Y-42300500D02*
X129126250Y-42300500D01*
X129126250Y-42300500D02*
X129126250Y-51460500D01*
X134051250Y-42300500D02*
X133196250Y-42300500D01*
X167508250Y-22274388D02*
X166895250Y-22274388D01*
X168004250Y-21714388D02*
X166895250Y-21714388D01*
X167859250Y-21914388D02*
X166895250Y-21914388D01*
X164815250Y-21754388D02*
X163733250Y-21754388D01*
X164815250Y-21994388D02*
X163918250Y-21994388D01*
X167409250Y-22354388D02*
X164301250Y-22354388D01*
X166139250Y-22874388D02*
X165571250Y-22874388D01*
X167598250Y-22194388D02*
X166895250Y-22194388D01*
X168079250Y-21594388D02*
X166895250Y-21594388D01*
X166770250Y-22714388D02*
X164940250Y-22714388D01*
X168356250Y-20913388D02*
X166895250Y-20913388D01*
X167640250Y-22154388D02*
X166895250Y-22154388D01*
X164815250Y-22274388D02*
X164202250Y-22274388D01*
X168165250Y-21434388D02*
X166895250Y-21434388D01*
X168366250Y-20873388D02*
X166895250Y-20873388D01*
X167977250Y-21754388D02*
X166895250Y-21754388D01*
X164815250Y-22234388D02*
X164156250Y-22234388D01*
X168398250Y-20713388D02*
X166895250Y-20713388D01*
X164815250Y-21154388D02*
X163427250Y-21154388D01*
X164815250Y-20393388D02*
X163277250Y-20393388D01*
X164815250Y-20913388D02*
X163354250Y-20913388D01*
X164815250Y-21634388D02*
X163655250Y-21634388D01*
X164815250Y-21074388D02*
X163400250Y-21074388D01*
X164815250Y-22114388D02*
X164029250Y-22114388D01*
X166866250Y-22674388D02*
X164844250Y-22674388D01*
X164815250Y-20553388D02*
X163290250Y-20553388D01*
X168123250Y-21514388D02*
X166895250Y-21514388D01*
X164815250Y-20273388D02*
X163275250Y-20273388D01*
X168269250Y-21194388D02*
X166895250Y-21194388D01*
X164815250Y-20713388D02*
X163312250Y-20713388D01*
X164815250Y-20873388D02*
X163344250Y-20873388D01*
X164815250Y-21954388D02*
X163884250Y-21954388D01*
X168253250Y-21234388D02*
X166895250Y-21234388D01*
X164815250Y-21914388D02*
X163851250Y-21914388D01*
X168237250Y-21274388D02*
X166895250Y-21274388D01*
X164815250Y-21274388D02*
X163473250Y-21274388D01*
X164815250Y-21114388D02*
X163413250Y-21114388D01*
X167580250Y-17718613D02*
X167080250Y-17718613D01*
X168416250Y-20593388D02*
X166895250Y-20593388D01*
X167554250Y-22234388D02*
X166895250Y-22234388D01*
X164815250Y-21834388D02*
X163790250Y-21834388D01*
X164815250Y-20833388D02*
X163335250Y-20833388D01*
X168391250Y-20753388D02*
X166895250Y-20753388D01*
X164815250Y-20473388D02*
X163282250Y-20473388D01*
X164815250Y-21594388D02*
X163631250Y-21594388D01*
X164815250Y-22074388D02*
X163991250Y-22074388D01*
X167174250Y-22514388D02*
X164536250Y-22514388D01*
X167460250Y-22314388D02*
X164250250Y-22314388D01*
X167792250Y-21994388D02*
X166895250Y-21994388D01*
X164815250Y-21554388D02*
X163608250Y-21554388D01*
X168435250Y-20273388D02*
X166895250Y-20273388D01*
X168346250Y-20953388D02*
X166895250Y-20953388D01*
X164815250Y-20353388D02*
X163276250Y-20353388D01*
X164815250Y-20753388D02*
X163319250Y-20753388D01*
X167950250Y-21794388D02*
X166895250Y-21794388D01*
X164815250Y-22154388D02*
X164070250Y-22154388D01*
X168203250Y-21354388D02*
X166895250Y-21354388D01*
X164815250Y-22034388D02*
X163954250Y-22034388D01*
X166660250Y-22754388D02*
X165050250Y-22754388D01*
X164815250Y-21514388D02*
X163587250Y-21514388D01*
X164815250Y-20793388D02*
X163327250Y-20793388D01*
X167106250Y-22554388D02*
X164604250Y-22554388D01*
X167826250Y-21954388D02*
X166895250Y-21954388D01*
X168405250Y-20673388D02*
X166895250Y-20673388D01*
X168102250Y-21554388D02*
X166895250Y-21554388D01*
X168184250Y-21394388D02*
X166895250Y-21394388D01*
X168424250Y-20513388D02*
X166895250Y-20513388D01*
X167298250Y-22434388D02*
X164412250Y-22434388D01*
X167890250Y-21874388D02*
X166895250Y-21874388D01*
X168220250Y-21314388D02*
X166895250Y-21314388D01*
X164815250Y-21874388D02*
X163820250Y-21874388D01*
X164815250Y-20313388D02*
X163275250Y-20313388D01*
X168428250Y-20473388D02*
X166895250Y-20473388D01*
X164815250Y-20994388D02*
X163375250Y-20994388D01*
X168145250Y-21474388D02*
X166895250Y-21474388D01*
X164815250Y-22194388D02*
X164112250Y-22194388D01*
X168375250Y-20833388D02*
X166895250Y-20833388D01*
X168297250Y-21114388D02*
X166895250Y-21114388D01*
X168431250Y-20433388D02*
X166895250Y-20433388D01*
X164815250Y-20433388D02*
X163279250Y-20433388D01*
X164815250Y-20953388D02*
X163364250Y-20953388D01*
X166953250Y-22634388D02*
X164757250Y-22634388D01*
X168055250Y-21634388D02*
X166895250Y-21634388D01*
X168411250Y-20633388D02*
X166895250Y-20633388D01*
X164815250Y-21034388D02*
X163387250Y-21034388D01*
X168435250Y-20313388D02*
X166895250Y-20313388D01*
X168310250Y-21074388D02*
X166895250Y-21074388D01*
X167355250Y-22394388D02*
X164355250Y-22394388D01*
X167238250Y-22474388D02*
X164472250Y-22474388D01*
X164815250Y-21674388D02*
X163680250Y-21674388D01*
X166532250Y-22794388D02*
X165178250Y-22794388D01*
X164815250Y-21714388D02*
X163706250Y-21714388D01*
X167920250Y-21834388D02*
X166895250Y-21834388D01*
X164815250Y-21394388D02*
X163526250Y-21394388D01*
X164815250Y-21314388D02*
X163490250Y-21314388D01*
X164815250Y-21354388D02*
X163507250Y-21354388D01*
X167756250Y-22034388D02*
X166895250Y-22034388D01*
X166373250Y-22834388D02*
X165337250Y-22834388D01*
X164815250Y-20633388D02*
X163299250Y-20633388D01*
X164815250Y-20513388D02*
X163286250Y-20513388D01*
X168283250Y-21154388D02*
X166895250Y-21154388D01*
X168030250Y-21674388D02*
X166895250Y-21674388D01*
X164815250Y-20673388D02*
X163305250Y-20673388D01*
X168335250Y-20994388D02*
X166895250Y-20994388D01*
X167681250Y-22114388D02*
X166895250Y-22114388D01*
X168383250Y-20793388D02*
X166895250Y-20793388D01*
X167033250Y-22594388D02*
X164677250Y-22594388D01*
X164815250Y-21434388D02*
X163545250Y-21434388D01*
X168434250Y-20353388D02*
X166895250Y-20353388D01*
X167330250Y-17468613D02*
X167330250Y-17968613D01*
X167719250Y-22074388D02*
X166895250Y-22074388D01*
X164815250Y-21194388D02*
X163441250Y-21194388D01*
X164815250Y-20593388D02*
X163294250Y-20593388D01*
X168323250Y-21034388D02*
X166895250Y-21034388D01*
X164815250Y-21474388D02*
X163565250Y-21474388D01*
X168433250Y-20393388D02*
X166895250Y-20393388D01*
X164815250Y-21794388D02*
X163760250Y-21794388D01*
X164815250Y-21234388D02*
X163457250Y-21234388D01*
X168420250Y-20553388D02*
X166895250Y-20553388D01*
X168475250Y-20273388D02*
G75*
G03*
X168475250Y-20273388I-2620000J0D01*
G01*
X159703250Y-32844000D02*
X159703250Y-30159000D01*
X159703250Y-30159000D02*
X157783250Y-30159000D01*
X157783250Y-30159000D02*
X157783250Y-32844000D01*
X135042250Y-60253500D02*
X135042250Y-58098500D01*
X133041250Y-59150500D02*
X133041250Y-54966500D01*
X135522250Y-60288500D02*
X135522250Y-53828500D01*
X134161250Y-56018500D02*
X134161250Y-54124500D01*
X133441250Y-56018500D02*
X133441250Y-54574500D01*
X134241250Y-60028500D02*
X134241250Y-58098500D01*
X134842250Y-60217500D02*
X134842250Y-58098500D01*
X134801250Y-60208500D02*
X134801250Y-58098500D01*
X134321250Y-56018500D02*
X134321250Y-54056500D01*
X134081250Y-56018500D02*
X134081250Y-54162500D01*
X134441250Y-60105500D02*
X134441250Y-58098500D01*
X134361250Y-60076500D02*
X134361250Y-58098500D01*
X134401250Y-60091500D02*
X134401250Y-58098500D01*
X133001250Y-59102500D02*
X133001250Y-55014500D01*
X132641250Y-58567500D02*
X132641250Y-55549500D01*
X133921250Y-59870500D02*
X133921250Y-58098500D01*
X138707491Y-59212500D02*
X138707491Y-58582500D01*
X135162250Y-60269500D02*
X135162250Y-58098500D01*
X134561250Y-60144500D02*
X134561250Y-58098500D01*
X135002250Y-56018500D02*
X135002250Y-53869500D01*
X134481250Y-56018500D02*
X134481250Y-53997500D01*
X132561250Y-58408500D02*
X132561250Y-55708500D01*
X135082250Y-60259500D02*
X135082250Y-58098500D01*
X133641250Y-56018500D02*
X133641250Y-54422500D01*
X133881250Y-56018500D02*
X133881250Y-54268500D01*
X134681250Y-56018500D02*
X134681250Y-53937500D01*
X134561250Y-56018500D02*
X134561250Y-53972500D01*
X134121250Y-56018500D02*
X134121250Y-54142500D01*
X133921250Y-56018500D02*
X133921250Y-54246500D01*
X133721250Y-56018500D02*
X133721250Y-54368500D01*
X133961250Y-56018500D02*
X133961250Y-54224500D01*
X134401250Y-56018500D02*
X134401250Y-54025500D01*
X135122250Y-60264500D02*
X135122250Y-58098500D01*
X135442250Y-60288500D02*
X135442250Y-53828500D01*
X133241250Y-59363500D02*
X133241250Y-58098500D01*
X134721250Y-60189500D02*
X134721250Y-58098500D01*
X134882250Y-60225500D02*
X134882250Y-58098500D01*
X134481250Y-60119500D02*
X134481250Y-58098500D01*
X134081250Y-59954500D02*
X134081250Y-58098500D01*
X133521250Y-59606500D02*
X133521250Y-58098500D01*
X135282250Y-56018500D02*
X135282250Y-53836500D01*
X133081250Y-59195500D02*
X133081250Y-54921500D01*
X135322250Y-60282500D02*
X135322250Y-53834500D01*
X133161250Y-59282500D02*
X133161250Y-54834500D01*
X133361250Y-56018500D02*
X133361250Y-54642500D01*
X132921250Y-59002500D02*
X132921250Y-55114500D01*
X134882250Y-56018500D02*
X134882250Y-53891500D01*
X134922250Y-56018500D02*
X134922250Y-53883500D01*
X134121250Y-59974500D02*
X134121250Y-58098500D01*
X134801250Y-56018500D02*
X134801250Y-53908500D01*
X134761250Y-56018500D02*
X134761250Y-53917500D01*
X133841250Y-56018500D02*
X133841250Y-54292500D01*
X134721250Y-56018500D02*
X134721250Y-53927500D01*
X135402250Y-60286500D02*
X135402250Y-53830500D01*
X134321250Y-60060500D02*
X134321250Y-58098500D01*
X132321250Y-57691500D02*
X132321250Y-56425500D01*
X132481250Y-58223500D02*
X132481250Y-55893500D01*
X133801250Y-59800500D02*
X133801250Y-58098500D01*
X133481250Y-56018500D02*
X133481250Y-54542500D01*
X133841250Y-59824500D02*
X133841250Y-58098500D01*
X132521250Y-58320500D02*
X132521250Y-55796500D01*
X134641250Y-60168500D02*
X134641250Y-58098500D01*
X134161250Y-59992500D02*
X134161250Y-58098500D01*
X134241250Y-56018500D02*
X134241250Y-54088500D01*
X134601250Y-56018500D02*
X134601250Y-53960500D01*
X135362250Y-60285500D02*
X135362250Y-53831500D01*
X134001250Y-56018500D02*
X134001250Y-54202500D01*
X134842250Y-56018500D02*
X134842250Y-53899500D01*
X132401250Y-57998500D02*
X132401250Y-56118500D01*
X133361250Y-59474500D02*
X133361250Y-58098500D01*
X132721250Y-58708500D02*
X132721250Y-55408500D01*
X132801250Y-58834500D02*
X132801250Y-55282500D01*
X133961250Y-59892500D02*
X133961250Y-58098500D01*
X133281250Y-56018500D02*
X133281250Y-54715500D01*
X135042250Y-56018500D02*
X135042250Y-53863500D01*
X133761250Y-59774500D02*
X133761250Y-58098500D01*
X133721250Y-59748500D02*
X133721250Y-58098500D01*
X133561250Y-56018500D02*
X133561250Y-54480500D01*
X134681250Y-60179500D02*
X134681250Y-58098500D01*
X132961250Y-59053500D02*
X132961250Y-55063500D01*
X134641250Y-56018500D02*
X134641250Y-53948500D01*
X135162250Y-56018500D02*
X135162250Y-53847500D01*
X133801250Y-56018500D02*
X133801250Y-54316500D01*
X133881250Y-59848500D02*
X133881250Y-58098500D01*
X135122250Y-56018500D02*
X135122250Y-53852500D01*
X134962250Y-60240500D02*
X134962250Y-58098500D01*
X133761250Y-56018500D02*
X133761250Y-54342500D01*
X135082250Y-56018500D02*
X135082250Y-53857500D01*
X134441250Y-56018500D02*
X134441250Y-54011500D01*
X135002250Y-60247500D02*
X135002250Y-58098500D01*
X133121250Y-59240500D02*
X133121250Y-54876500D01*
X132441250Y-58117500D02*
X132441250Y-55999500D01*
X135242250Y-60276500D02*
X135242250Y-58098500D01*
X133321250Y-56018500D02*
X133321250Y-54678500D01*
X133321250Y-59438500D02*
X133321250Y-58098500D01*
X133201250Y-59323500D02*
X133201250Y-54793500D01*
X134041250Y-56018500D02*
X134041250Y-54182500D01*
X133521250Y-56018500D02*
X133521250Y-54510500D01*
X135282250Y-60280500D02*
X135282250Y-58098500D01*
X132841250Y-58892500D02*
X132841250Y-55224500D01*
X134201250Y-56018500D02*
X134201250Y-54106500D01*
X134281250Y-56018500D02*
X134281250Y-54072500D01*
X133241250Y-56018500D02*
X133241250Y-54753500D01*
X133601250Y-59665500D02*
X133601250Y-58098500D01*
X133481250Y-59574500D02*
X133481250Y-58098500D01*
X135202250Y-56018500D02*
X135202250Y-53843500D01*
X133681250Y-59722500D02*
X133681250Y-58098500D01*
X133401250Y-59508500D02*
X133401250Y-58098500D01*
X132681250Y-58639500D02*
X132681250Y-55477500D01*
X133641250Y-59694500D02*
X133641250Y-58098500D01*
X134521250Y-56018500D02*
X134521250Y-53984500D01*
X134281250Y-60044500D02*
X134281250Y-58098500D01*
X132761250Y-58772500D02*
X132761250Y-55344500D01*
X132881250Y-58948500D02*
X132881250Y-55168500D01*
X134601250Y-60156500D02*
X134601250Y-58098500D01*
X134761250Y-60199500D02*
X134761250Y-58098500D01*
X134041250Y-59934500D02*
X134041250Y-58098500D01*
X134361250Y-56018500D02*
X134361250Y-54040500D01*
X134922250Y-60233500D02*
X134922250Y-58098500D01*
X132361250Y-57860500D02*
X132361250Y-56256500D01*
X133441250Y-59542500D02*
X133441250Y-58098500D01*
X134521250Y-60132500D02*
X134521250Y-58098500D01*
X133561250Y-59636500D02*
X133561250Y-58098500D01*
X132281250Y-57460500D02*
X132281250Y-56656500D01*
X135202250Y-60273500D02*
X135202250Y-58098500D01*
X134962250Y-56018500D02*
X134962250Y-53876500D01*
X132601250Y-58490500D02*
X132601250Y-55626500D01*
X133281250Y-59401500D02*
X133281250Y-58098500D01*
X135242250Y-56018500D02*
X135242250Y-53840500D01*
X135482250Y-60288500D02*
X135482250Y-53828500D01*
X139022491Y-58897500D02*
X138392491Y-58897500D01*
X134201250Y-60010500D02*
X134201250Y-58098500D01*
X134001250Y-59914500D02*
X134001250Y-58098500D01*
X133601250Y-56018500D02*
X133601250Y-54451500D01*
X133681250Y-56018500D02*
X133681250Y-54394500D01*
X133401250Y-56018500D02*
X133401250Y-54608500D01*
X138792250Y-57058500D02*
G75*
G03*
X138792250Y-57058500I-3270000J0D01*
G01*
D12*
X164710500Y-80277764D02*
G75*
G03*
X177410500Y-80277764I6350000J0D01*
G01*
D13*
X164710500Y-80277764D02*
G75*
G03*
X177410500Y-80277764I6350000J0D01*
G01*
X179560500Y-80277764D02*
G75*
G03*
X179560500Y-80277764I-8500000J0D01*
G01*
D12*
X178680500Y-80277764D02*
G75*
G03*
X178680500Y-80277764I-7620000J0D01*
G01*
D11*
X139249250Y-36968500D02*
G75*
G03*
X139249250Y-36968500I-3620000J0D01*
G01*
X189630500Y-50800500D02*
X189630500Y-43060500D01*
X183140500Y-50800500D02*
X182840500Y-50800500D01*
X182840500Y-43950500D02*
X183190500Y-43950500D01*
X183140500Y-43060500D02*
X182840500Y-43060500D01*
X182840500Y-50800500D02*
X182840500Y-49910500D01*
X185390500Y-44440500D02*
X185390500Y-49420500D01*
X189630500Y-43060500D02*
X185780500Y-43060500D01*
X182840500Y-43950500D02*
X182840500Y-43060500D01*
X182840500Y-49910500D02*
X183190500Y-49910500D01*
X185780500Y-50800500D02*
X189630500Y-50800500D01*
X186550500Y-40316500D02*
X186550500Y-40160500D01*
X186550500Y-38000500D02*
X186550500Y-37844500D01*
X183318165Y-40159108D02*
G75*
G03*
X186550500Y-40316016I1672335J1078608D01*
G01*
X183949370Y-40160337D02*
G75*
G03*
X186031461Y-40160500I1041130J1079837D01*
G01*
X186550500Y-37844984D02*
G75*
G03*
X183318165Y-38001892I-1560000J-1235516D01*
G01*
X186031461Y-38000500D02*
G75*
G03*
X183949370Y-38000663I-1040961J-1080000D01*
G01*
X137339250Y-35582248D02*
X137339250Y-38354752D01*
X133919250Y-35582248D02*
X133919250Y-38354752D01*
D12*
X142310500Y-80277764D02*
G75*
G03*
X155010500Y-80277764I6350000J0D01*
G01*
D13*
X142310500Y-80277764D02*
G75*
G03*
X155010500Y-80277764I6350000J0D01*
G01*
X157160500Y-80277764D02*
G75*
G03*
X157160500Y-80277764I-8500000J0D01*
G01*
D12*
X156280500Y-80277764D02*
G75*
G03*
X156280500Y-80277764I-7620000J0D01*
G01*
G36*
X180224520Y-30768932D02*
G01*
X180236480Y-30683059D01*
X180252429Y-30603094D01*
X180271614Y-30533368D01*
X180293281Y-30478210D01*
X180316677Y-30441951D01*
X180321238Y-30437571D01*
X180344473Y-30420137D01*
X180359772Y-30413398D01*
X180360925Y-30413643D01*
X180460390Y-30462138D01*
X180540093Y-30502490D01*
X180602405Y-30536004D01*
X180649697Y-30563986D01*
X180684339Y-30587740D01*
X180699511Y-30600044D01*
X180731850Y-30627427D01*
X180776590Y-30664131D01*
X180827095Y-30704754D01*
X180863976Y-30733925D01*
X180935446Y-30792444D01*
X180996844Y-30849013D01*
X181051568Y-30907847D01*
X181103015Y-30973163D01*
X181154584Y-31049177D01*
X181209673Y-31140105D01*
X181253447Y-31217219D01*
X181288746Y-31280656D01*
X181313864Y-31326428D01*
X181330251Y-31357934D01*
X181339353Y-31378578D01*
X181342620Y-31391761D01*
X181341498Y-31400884D01*
X181337437Y-31409350D01*
X181336201Y-31411634D01*
X181314300Y-31435827D01*
X181283095Y-31441510D01*
X181240722Y-31428524D01*
X181188864Y-31399036D01*
X181150446Y-31375131D01*
X181118937Y-31357574D01*
X181100404Y-31349710D01*
X181099166Y-31349573D01*
X181080091Y-31361127D01*
X181067379Y-31395529D01*
X181061142Y-31452388D01*
X181060477Y-31485055D01*
X181059507Y-31532967D01*
X181055493Y-31563701D01*
X181046778Y-31584102D01*
X181032629Y-31600152D01*
X181001191Y-31621694D01*
X180968355Y-31623992D01*
X180934654Y-31612327D01*
X180907698Y-31603976D01*
X180895293Y-31611771D01*
X180896235Y-31637640D01*
X180902896Y-31663276D01*
X180911085Y-31697983D01*
X180908949Y-31721719D01*
X180898531Y-31741563D01*
X180882082Y-31759938D01*
X180858877Y-31768573D01*
X180821029Y-31770700D01*
X180782949Y-31773777D01*
X180755856Y-31781699D01*
X180749753Y-31786202D01*
X180742448Y-31805803D01*
X180736364Y-31841222D01*
X180733240Y-31878046D01*
X180729417Y-31923459D01*
X180722077Y-31951138D01*
X180709330Y-31967360D01*
X180705527Y-31970070D01*
X180682948Y-31979562D01*
X180659119Y-31973452D01*
X180651382Y-31969469D01*
X180624289Y-31948811D01*
X180587820Y-31912821D01*
X180545904Y-31866220D01*
X180502466Y-31813728D01*
X180461435Y-31760068D01*
X180426738Y-31709960D01*
X180404880Y-31673156D01*
X180361516Y-31578644D01*
X180320459Y-31466534D01*
X180283532Y-31343285D01*
X180252559Y-31215359D01*
X180229364Y-31089217D01*
X180220115Y-31018687D01*
X180215584Y-30941076D01*
X180216844Y-30879028D01*
X180306703Y-30879028D01*
X180313908Y-31004418D01*
X180333086Y-31136466D01*
X180362931Y-31270574D01*
X180402137Y-31402144D01*
X180449400Y-31526576D01*
X180503414Y-31639273D01*
X180562873Y-31735635D01*
X180602603Y-31785957D01*
X180628789Y-31809971D01*
X180647312Y-31811745D01*
X180660826Y-31790779D01*
X180665912Y-31774053D01*
X180687741Y-31735761D01*
X180717493Y-31712173D01*
X180755419Y-31681680D01*
X180786467Y-31642187D01*
X180804972Y-31601799D01*
X180807756Y-31583058D01*
X180819011Y-31550441D01*
X180851944Y-31526483D01*
X180905499Y-31511945D01*
X180906388Y-31511813D01*
X180933833Y-31507406D01*
X180951712Y-31500830D01*
X180963018Y-31487309D01*
X180970746Y-31462071D01*
X180977888Y-31420342D01*
X180982344Y-31390677D01*
X180999350Y-31328104D01*
X181027831Y-31284338D01*
X181066213Y-31260688D01*
X181112925Y-31258464D01*
X181134409Y-31264151D01*
X181161206Y-31272183D01*
X181175850Y-31274090D01*
X181176349Y-31273809D01*
X181172096Y-31262394D01*
X181156454Y-31235592D01*
X181132177Y-31197483D01*
X181102020Y-31152148D01*
X181068738Y-31103668D01*
X181035086Y-31056124D01*
X181003820Y-31013597D01*
X180980080Y-30983086D01*
X180932397Y-30929022D01*
X180873549Y-30869526D01*
X180807200Y-30807641D01*
X180737013Y-30746408D01*
X180666652Y-30688869D01*
X180599781Y-30638065D01*
X180540065Y-30597037D01*
X180491166Y-30568828D01*
X180470276Y-30559900D01*
X180426472Y-30549942D01*
X180391586Y-30554843D01*
X180364230Y-30576407D01*
X180343020Y-30616439D01*
X180326570Y-30676742D01*
X180313494Y-30759120D01*
X180312775Y-30764896D01*
X180306703Y-30879028D01*
X180216844Y-30879028D01*
X180217304Y-30856381D01*
X180224520Y-30768932D01*
G37*
G36*
X183464768Y-31195771D02*
G01*
X183477221Y-31154493D01*
X183543365Y-30968884D01*
X183630978Y-30792562D01*
X183740826Y-30624096D01*
X183803464Y-30543415D01*
X183826327Y-30517227D01*
X183860670Y-30480090D01*
X183903672Y-30434847D01*
X183952515Y-30384342D01*
X184004379Y-30331417D01*
X184056445Y-30278916D01*
X184105893Y-30229683D01*
X184149904Y-30186561D01*
X184185660Y-30152394D01*
X184210340Y-30130024D01*
X184221027Y-30122287D01*
X184249309Y-30133970D01*
X184275974Y-30167676D01*
X184300592Y-30221396D01*
X184322732Y-30293118D01*
X184341963Y-30380832D01*
X184357854Y-30482525D01*
X184369974Y-30596188D01*
X184377892Y-30719810D01*
X184381178Y-30851379D01*
X184381244Y-30870133D01*
X184371919Y-31044306D01*
X184343815Y-31232096D01*
X184297178Y-31432389D01*
X184232255Y-31644069D01*
X184174651Y-31802071D01*
X184150763Y-31861138D01*
X184131876Y-31900992D01*
X184115848Y-31925399D01*
X184100538Y-31938126D01*
X184096224Y-31940059D01*
X184073713Y-31948425D01*
X184061476Y-31949009D01*
X184046874Y-31941379D01*
X184041458Y-31938187D01*
X184029523Y-31925942D01*
X184022983Y-31902964D01*
X184020534Y-31863570D01*
X184020401Y-31846289D01*
X184018358Y-31791497D01*
X184012872Y-31733241D01*
X184004904Y-31677765D01*
X183995419Y-31631311D01*
X183985380Y-31600122D01*
X183981351Y-31593225D01*
X183961194Y-31582012D01*
X183935949Y-31578185D01*
X183917807Y-31580596D01*
X183899643Y-31589978D01*
X183877752Y-31609553D01*
X183848431Y-31642544D01*
X183814961Y-31683467D01*
X183791774Y-31695944D01*
X183759402Y-31696852D01*
X183732922Y-31687529D01*
X183723080Y-31673619D01*
X183721225Y-31645994D01*
X183724194Y-31616413D01*
X183727096Y-31573327D01*
X183719708Y-31551113D01*
X183699423Y-31547994D01*
X183663635Y-31562195D01*
X183652849Y-31567771D01*
X183620529Y-31583882D01*
X183601434Y-31588796D01*
X183587967Y-31583377D01*
X183579954Y-31576053D01*
X183567420Y-31557802D01*
X183568207Y-31535005D01*
X183573670Y-31517267D01*
X183586136Y-31463792D01*
X183581169Y-31425545D01*
X183569435Y-31409934D01*
X183554113Y-31403142D01*
X183535128Y-31410521D01*
X183514367Y-31426509D01*
X183474316Y-31452127D01*
X183440570Y-31455362D01*
X183413634Y-31438955D01*
X183398058Y-31414780D01*
X183397389Y-31384472D01*
X183411810Y-31342444D01*
X183417164Y-31330776D01*
X183429925Y-31299321D01*
X183431978Y-31293489D01*
X183518726Y-31293489D01*
X183519072Y-31294573D01*
X183536950Y-31309249D01*
X183566516Y-31313476D01*
X183610907Y-31320969D01*
X183640004Y-31345409D01*
X183656488Y-31385669D01*
X183664194Y-31410770D01*
X183675670Y-31423177D01*
X183698336Y-31427358D01*
X183726433Y-31427782D01*
X183761921Y-31428839D01*
X183779703Y-31434104D01*
X183786110Y-31446719D01*
X183787078Y-31457863D01*
X183789556Y-31498754D01*
X183793650Y-31521786D01*
X183801105Y-31533162D01*
X183809484Y-31537601D01*
X183830283Y-31535393D01*
X183857022Y-31520869D01*
X183859235Y-31519175D01*
X183903137Y-31498374D01*
X183938346Y-31493959D01*
X183979223Y-31500403D01*
X184012006Y-31521591D01*
X184039141Y-31560308D01*
X184063073Y-31619339D01*
X184071066Y-31645041D01*
X184098333Y-31737723D01*
X184124856Y-31679010D01*
X184139501Y-31642236D01*
X184157685Y-31590251D01*
X184176683Y-31531082D01*
X184188285Y-31492196D01*
X184218081Y-31385166D01*
X184240655Y-31294127D01*
X184257110Y-31212491D01*
X184268545Y-31133668D01*
X184276062Y-31051071D01*
X184280762Y-30958110D01*
X184281583Y-30933815D01*
X184283594Y-30827777D01*
X184282086Y-30736698D01*
X184276720Y-30651686D01*
X184267535Y-30566833D01*
X184255687Y-30485485D01*
X184242078Y-30412322D01*
X184227580Y-30350774D01*
X184213064Y-30304271D01*
X184199402Y-30276243D01*
X184191994Y-30269726D01*
X184175558Y-30275529D01*
X184146733Y-30297291D01*
X184108165Y-30332180D01*
X184062499Y-30377366D01*
X184012382Y-30430017D01*
X183960460Y-30487302D01*
X183909377Y-30546391D01*
X183861781Y-30604451D01*
X183820316Y-30658652D01*
X183795664Y-30693817D01*
X183761243Y-30748918D01*
X183724086Y-30814291D01*
X183685778Y-30886491D01*
X183647908Y-30962069D01*
X183612061Y-31037581D01*
X183579825Y-31109578D01*
X183552787Y-31174614D01*
X183532533Y-31229243D01*
X183520650Y-31270017D01*
X183518726Y-31293489D01*
X183431978Y-31293489D01*
X183446615Y-31251906D01*
X183464768Y-31195771D01*
G37*
G36*
X177896070Y-37210611D02*
G01*
X177916462Y-37163303D01*
X177944284Y-37081384D01*
X177955512Y-36986572D01*
X177950522Y-36883035D01*
X177929692Y-36774940D01*
X177893399Y-36666455D01*
X177865964Y-36606090D01*
X177829730Y-36537518D01*
X177792995Y-36476843D01*
X177751713Y-36418461D01*
X177701834Y-36356770D01*
X177639311Y-36286166D01*
X177618383Y-36263383D01*
X177497316Y-36132377D01*
X177438709Y-36136425D01*
X177380101Y-36140472D01*
X177371880Y-36094312D01*
X177362439Y-36057142D01*
X177346293Y-36022181D01*
X177320565Y-35985531D01*
X177282378Y-35943294D01*
X177228857Y-35891572D01*
X177208337Y-35872668D01*
X177097935Y-35771765D01*
X176910400Y-35771588D01*
X176835063Y-35771109D01*
X176776424Y-35769263D01*
X176727121Y-35765189D01*
X176679794Y-35758027D01*
X176627080Y-35746918D01*
X176561619Y-35731001D01*
X176560430Y-35730703D01*
X176495905Y-35713713D01*
X176435077Y-35696228D01*
X176384175Y-35680135D01*
X176349426Y-35667321D01*
X176345605Y-35665620D01*
X176318362Y-35648918D01*
X176279533Y-35620055D01*
X176233929Y-35583192D01*
X176186362Y-35542488D01*
X176141643Y-35502105D01*
X176104584Y-35466204D01*
X176079995Y-35438945D01*
X176074700Y-35431345D01*
X176071257Y-35406537D01*
X176078879Y-35369173D01*
X176079654Y-35366779D01*
X176088174Y-35336831D01*
X176090838Y-35318421D01*
X176090111Y-35316268D01*
X176077738Y-35308642D01*
X176051117Y-35293039D01*
X176027526Y-35279444D01*
X175980645Y-35249964D01*
X175936053Y-35215557D01*
X175889160Y-35172122D01*
X175835376Y-35115556D01*
X175800476Y-35076546D01*
X175761528Y-35030921D01*
X175736775Y-34997599D01*
X175728885Y-34982484D01*
X175922723Y-34982484D01*
X175932033Y-34999511D01*
X175957071Y-35026269D01*
X175993498Y-35059206D01*
X176036979Y-35094769D01*
X176083173Y-35129406D01*
X176127743Y-35159565D01*
X176165409Y-35181223D01*
X176212535Y-35203670D01*
X176246525Y-35216009D01*
X176275066Y-35220192D01*
X176305845Y-35218170D01*
X176309172Y-35217725D01*
X176344724Y-35214458D01*
X176366462Y-35219207D01*
X176384105Y-35234960D01*
X176390389Y-35242706D01*
X176411512Y-35278051D01*
X176413523Y-35309887D01*
X176395399Y-35342620D01*
X176358890Y-35378314D01*
X176327546Y-35407765D01*
X176313368Y-35431203D01*
X176317566Y-35452051D01*
X176341348Y-35473729D01*
X176385923Y-35499660D01*
X176405294Y-35509678D01*
X176464423Y-35535225D01*
X176536358Y-35559116D01*
X176617122Y-35580735D01*
X176702739Y-35599466D01*
X176789232Y-35614692D01*
X176872623Y-35625795D01*
X176948935Y-35632159D01*
X177014193Y-35633167D01*
X177064418Y-35628201D01*
X177095509Y-35616739D01*
X177108401Y-35605284D01*
X177109191Y-35593138D01*
X177096684Y-35572944D01*
X177086142Y-35558930D01*
X177067784Y-35531190D01*
X177042534Y-35488143D01*
X177014005Y-35436132D01*
X176990947Y-35391740D01*
X176963449Y-35337978D01*
X176943232Y-35301665D01*
X176926872Y-35278696D01*
X176910945Y-35264966D01*
X176892027Y-35256372D01*
X176873267Y-35250671D01*
X176785923Y-35225122D01*
X176714670Y-35202227D01*
X176652159Y-35179200D01*
X176591039Y-35153258D01*
X176523960Y-35121616D01*
X176495353Y-35107506D01*
X176424396Y-35070473D01*
X176347157Y-35027328D01*
X176273134Y-34983524D01*
X176213707Y-34945776D01*
X176087379Y-34861301D01*
X176057306Y-34893733D01*
X176026911Y-34919150D01*
X175987513Y-34943243D01*
X175974978Y-34949280D01*
X175944299Y-34964785D01*
X175925504Y-34978013D01*
X175922723Y-34982484D01*
X175728885Y-34982484D01*
X175723361Y-34971901D01*
X175718428Y-34949151D01*
X175718175Y-34941783D01*
X175728688Y-34892423D01*
X175757711Y-34855893D01*
X175801466Y-34836023D01*
X175824833Y-34833540D01*
X175855567Y-34831575D01*
X175873040Y-34827420D01*
X175874556Y-34825626D01*
X175866164Y-34814962D01*
X175843642Y-34792456D01*
X175811024Y-34762050D01*
X175792177Y-34745105D01*
X175682477Y-34632402D01*
X175586315Y-34502861D01*
X175506096Y-34360943D01*
X175444228Y-34211108D01*
X175415616Y-34104421D01*
X175626994Y-34104421D01*
X175628696Y-34122841D01*
X175643373Y-34160873D01*
X175670523Y-34219050D01*
X175700365Y-34279417D01*
X175783292Y-34421776D01*
X175885981Y-34556418D01*
X176009273Y-34684147D01*
X176154010Y-34805769D01*
X176321033Y-34922090D01*
X176458156Y-35004481D01*
X176541676Y-35050206D01*
X176611174Y-35084277D01*
X176672180Y-35109073D01*
X176730223Y-35126971D01*
X176758961Y-35133879D01*
X176812044Y-35144884D01*
X176846467Y-35149785D01*
X176866786Y-35148816D01*
X176877557Y-35142208D01*
X176879112Y-35139997D01*
X176880930Y-35121667D01*
X176876304Y-35091025D01*
X176874289Y-35082844D01*
X176867479Y-35050410D01*
X176859565Y-35002358D01*
X176851868Y-34947012D01*
X176848964Y-34923140D01*
X176842615Y-34871279D01*
X176836577Y-34827088D01*
X176831759Y-34797013D01*
X176830033Y-34789072D01*
X176827082Y-34781164D01*
X176821324Y-34774049D01*
X176809894Y-34766582D01*
X176789924Y-34757617D01*
X176758549Y-34746007D01*
X176712903Y-34730608D01*
X176650120Y-34710272D01*
X176567333Y-34683856D01*
X176564886Y-34683077D01*
X176406030Y-34626717D01*
X176252054Y-34560945D01*
X176109501Y-34488787D01*
X175992851Y-34418557D01*
X175951096Y-34387799D01*
X175898476Y-34344366D01*
X175840595Y-34293129D01*
X175783057Y-34238959D01*
X175760014Y-34216176D01*
X175704778Y-34161489D01*
X175664532Y-34124279D01*
X175638772Y-34105078D01*
X175626994Y-34104421D01*
X175415616Y-34104421D01*
X175403117Y-34057817D01*
X175394685Y-34008393D01*
X175390672Y-33980703D01*
X175681189Y-33980703D01*
X175685182Y-33992720D01*
X175703888Y-34018063D01*
X175734375Y-34053699D01*
X175773707Y-34096594D01*
X175818950Y-34143716D01*
X175867169Y-34192031D01*
X175915431Y-34238506D01*
X175960800Y-34280109D01*
X176000343Y-34313805D01*
X176013202Y-34323883D01*
X176140929Y-34410288D01*
X176286561Y-34490351D01*
X176444188Y-34561187D01*
X176607901Y-34619909D01*
X176638639Y-34629290D01*
X176701627Y-34647853D01*
X176745370Y-34660051D01*
X176773687Y-34666390D01*
X176790397Y-34667376D01*
X176799319Y-34663514D01*
X176804271Y-34655311D01*
X176805803Y-34651431D01*
X176809614Y-34629630D01*
X176812002Y-34591801D01*
X176813048Y-34543719D01*
X176812840Y-34491162D01*
X176811459Y-34439905D01*
X176808992Y-34395724D01*
X176805522Y-34364395D01*
X176801427Y-34351828D01*
X176779185Y-34351072D01*
X176748318Y-34366373D01*
X176713433Y-34393689D01*
X176679137Y-34428975D01*
X176650037Y-34468190D01*
X176633957Y-34498793D01*
X176612399Y-34533630D01*
X176585783Y-34545212D01*
X176559558Y-34537643D01*
X176546202Y-34527246D01*
X176539042Y-34510868D01*
X176537941Y-34484237D01*
X176542761Y-34443083D01*
X176553365Y-34383133D01*
X176554416Y-34377624D01*
X176562893Y-34332149D01*
X176566986Y-34308753D01*
X176645074Y-34308753D01*
X176647044Y-34327872D01*
X176647495Y-34328380D01*
X176660709Y-34326349D01*
X176688212Y-34313787D01*
X176724179Y-34293374D01*
X176726000Y-34292254D01*
X176790576Y-34257584D01*
X176842383Y-34241689D01*
X176883254Y-34244215D01*
X176906922Y-34257229D01*
X176934005Y-34279417D01*
X176908188Y-34351610D01*
X176898563Y-34380429D01*
X176891923Y-34407318D01*
X176887936Y-34437116D01*
X176886272Y-34474662D01*
X176886599Y-34524795D01*
X176888586Y-34592355D01*
X176889660Y-34622335D01*
X176902255Y-34801461D01*
X176926752Y-34963065D01*
X176964061Y-35111029D01*
X177015091Y-35249238D01*
X177057123Y-35337760D01*
X177081199Y-35380006D01*
X177114443Y-35432388D01*
X177154532Y-35491809D01*
X177199141Y-35555170D01*
X177245949Y-35619375D01*
X177292632Y-35681324D01*
X177336865Y-35737921D01*
X177376326Y-35786068D01*
X177408692Y-35822667D01*
X177431639Y-35844621D01*
X177441032Y-35849620D01*
X177447118Y-35838929D01*
X177450540Y-35812175D01*
X177450814Y-35800700D01*
X177455968Y-35749482D01*
X177472151Y-35718415D01*
X177500446Y-35705736D01*
X177509467Y-35705234D01*
X177540378Y-35716071D01*
X177562533Y-35744461D01*
X177571134Y-35784219D01*
X177571136Y-35784754D01*
X177578966Y-35817896D01*
X177600781Y-35864305D01*
X177634068Y-35919729D01*
X177676316Y-35979917D01*
X177716102Y-36030103D01*
X177762094Y-36086778D01*
X177812466Y-36151791D01*
X177864153Y-36220887D01*
X177914092Y-36289815D01*
X177959220Y-36354321D01*
X177996475Y-36410152D01*
X178022792Y-36453054D01*
X178029047Y-36464610D01*
X178068397Y-36555778D01*
X178103199Y-36666678D01*
X178125437Y-36758052D01*
X178136638Y-36807801D01*
X178146506Y-36849634D01*
X178153528Y-36877214D01*
X178155394Y-36883394D01*
X178164891Y-36893982D01*
X178176117Y-36884569D01*
X178186623Y-36858853D01*
X178193263Y-36826177D01*
X178207436Y-36778210D01*
X178236362Y-36747513D01*
X178265010Y-36734913D01*
X178289577Y-36735158D01*
X178319073Y-36752195D01*
X178332776Y-36763570D01*
X178361426Y-36785660D01*
X178385067Y-36798684D01*
X178391562Y-36800165D01*
X178409419Y-36792060D01*
X178435552Y-36771455D01*
X178450025Y-36757497D01*
X178523291Y-36697808D01*
X178614750Y-36651720D01*
X178654035Y-36637745D01*
X178716936Y-36615412D01*
X178765640Y-36591955D01*
X178809628Y-36561959D01*
X178855194Y-36522925D01*
X178886843Y-36495969D01*
X178933096Y-36459006D01*
X178988923Y-36415941D01*
X179049294Y-36370682D01*
X179083806Y-36345402D01*
X179159691Y-36289581D01*
X179218681Y-36243963D01*
X179263931Y-36205439D01*
X179298594Y-36170902D01*
X179325825Y-36137245D01*
X179348778Y-36101360D01*
X179367962Y-36065431D01*
X179400517Y-36012250D01*
X179433272Y-35980771D01*
X179465097Y-35971739D01*
X179492209Y-35983581D01*
X179501014Y-35994529D01*
X179505829Y-36012484D01*
X179507058Y-36042345D01*
X179505110Y-36089009D01*
X179503286Y-36117073D01*
X179500418Y-36166881D01*
X179499224Y-36206231D01*
X179499798Y-36229992D01*
X179501130Y-36234651D01*
X179512509Y-36227490D01*
X179537442Y-36208473D01*
X179571124Y-36181303D01*
X179581049Y-36173087D01*
X179665761Y-36087785D01*
X179738739Y-35983956D01*
X179798408Y-35864892D01*
X179843191Y-35733882D01*
X179871511Y-35594216D01*
X179875890Y-35557796D01*
X179885849Y-35507149D01*
X179904339Y-35477302D01*
X179933505Y-35465857D01*
X179957142Y-35466842D01*
X179970779Y-35471991D01*
X179978455Y-35484861D01*
X179980073Y-35508666D01*
X179975538Y-35546621D01*
X179964755Y-35601940D01*
X179951320Y-35661915D01*
X179908014Y-35811836D01*
X179850258Y-35945131D01*
X179775748Y-36065946D01*
X179682177Y-36178431D01*
X179641420Y-36219586D01*
X179594727Y-36264506D01*
X179561106Y-36295345D01*
X179536332Y-36314752D01*
X179516181Y-36325375D01*
X179496427Y-36329863D01*
X179472845Y-36330867D01*
X179463911Y-36330884D01*
X179427537Y-36329282D01*
X179402341Y-36325152D01*
X179395811Y-36321780D01*
X179394158Y-36305100D01*
X179396985Y-36274782D01*
X179398613Y-36264627D01*
X179404506Y-36222163D01*
X179402342Y-36199902D01*
X179390169Y-36197336D01*
X179366037Y-36213954D01*
X179330496Y-36246816D01*
X179294161Y-36279407D01*
X179244182Y-36320607D01*
X179186783Y-36365447D01*
X179128189Y-36408957D01*
X179120283Y-36414633D01*
X179069935Y-36451617D01*
X179027495Y-36484720D01*
X178996474Y-36511054D01*
X178980378Y-36527732D01*
X178978905Y-36530997D01*
X178990069Y-36543078D01*
X179020598Y-36557334D01*
X179066047Y-36572452D01*
X179121972Y-36587115D01*
X179183927Y-36600008D01*
X179243613Y-36609329D01*
X179294439Y-36613774D01*
X179361632Y-36616680D01*
X179437535Y-36617856D01*
X179514487Y-36617108D01*
X179532386Y-36616616D01*
X179607342Y-36613847D01*
X179664605Y-36610312D01*
X179710546Y-36605083D01*
X179751535Y-36597232D01*
X179793945Y-36585832D01*
X179837115Y-36572254D01*
X179907721Y-36546772D01*
X179959712Y-36521812D01*
X179998338Y-36494798D01*
X180002656Y-36490996D01*
X180041701Y-36463706D01*
X180083390Y-36447220D01*
X180124101Y-36440648D01*
X180160213Y-36443100D01*
X180188103Y-36453685D01*
X180204149Y-36471514D01*
X180204729Y-36495696D01*
X180186221Y-36525342D01*
X180177658Y-36534001D01*
X180148661Y-36566859D01*
X180126729Y-36602062D01*
X180114913Y-36633362D01*
X180116270Y-36654513D01*
X180117810Y-36656437D01*
X180134972Y-36662847D01*
X180170095Y-36669137D01*
X180217093Y-36674348D01*
X180244161Y-36676312D01*
X180347443Y-36674994D01*
X180441156Y-36659007D01*
X180522229Y-36629461D01*
X180587587Y-36587464D01*
X180633049Y-36535907D01*
X180658319Y-36504352D01*
X180690966Y-36482259D01*
X180736815Y-36466698D01*
X180791249Y-36456303D01*
X180821527Y-36453429D01*
X180841559Y-36458480D01*
X180853569Y-36475220D01*
X180859776Y-36507413D01*
X180862404Y-36558822D01*
X180862807Y-36577529D01*
X180864596Y-36673827D01*
X180899444Y-36672371D01*
X180950708Y-36661384D01*
X181011482Y-36634444D01*
X181076982Y-36594962D01*
X181142424Y-36546344D01*
X181203026Y-36492000D01*
X181254005Y-36435339D01*
X181276836Y-36403446D01*
X181297097Y-36370256D01*
X181307916Y-36344381D01*
X181311228Y-36316559D01*
X181309715Y-36290434D01*
X181411101Y-36290434D01*
X181412152Y-36318699D01*
X181417099Y-36348486D01*
X181427119Y-36384773D01*
X181443391Y-36432535D01*
X181467093Y-36496748D01*
X181472598Y-36511392D01*
X181508122Y-36603532D01*
X181540029Y-36680400D01*
X181571926Y-36749676D01*
X181607417Y-36819043D01*
X181650110Y-36896184D01*
X181667457Y-36926503D01*
X181732333Y-37061422D01*
X181773916Y-37199914D01*
X181790917Y-37323566D01*
X181795078Y-37373315D01*
X181800459Y-37414401D01*
X181806151Y-37440513D01*
X181808507Y-37445618D01*
X181824532Y-37453310D01*
X181860040Y-37463531D01*
X181910686Y-37475436D01*
X181972126Y-37488185D01*
X182040015Y-37500936D01*
X182110009Y-37512845D01*
X182177763Y-37523071D01*
X182238932Y-37530771D01*
X182257682Y-37532686D01*
X182307429Y-37537412D01*
X182348633Y-37541381D01*
X182374979Y-37543981D01*
X182380250Y-37544536D01*
X182390959Y-37535190D01*
X182397954Y-37510236D01*
X182398298Y-37507141D01*
X182407842Y-37473786D01*
X182430493Y-37452617D01*
X182468805Y-37442756D01*
X182525329Y-37443327D01*
X182569396Y-37448360D01*
X182634904Y-37457026D01*
X182680294Y-37461341D01*
X182709176Y-37460963D01*
X182725160Y-37455549D01*
X182731856Y-37444757D01*
X182732955Y-37432851D01*
X182728219Y-37412615D01*
X182710333Y-37397090D01*
X182679034Y-37383174D01*
X182626159Y-37369622D01*
X182587070Y-37370190D01*
X182549033Y-37369916D01*
X182524485Y-37355207D01*
X182516063Y-37331575D01*
X182526406Y-37304530D01*
X182546833Y-37286116D01*
X182584694Y-37273399D01*
X182634565Y-37272819D01*
X182688207Y-37283504D01*
X182737382Y-37304586D01*
X182740681Y-37306575D01*
X182775325Y-37322725D01*
X182795497Y-37320835D01*
X182799611Y-37302063D01*
X182788305Y-37271752D01*
X182765204Y-37238723D01*
X182729675Y-37208049D01*
X182677851Y-37176912D01*
X182619163Y-37148458D01*
X182562682Y-37124889D01*
X182525560Y-37114547D01*
X182506942Y-37117600D01*
X182505977Y-37134212D01*
X182521812Y-37164551D01*
X182523475Y-37167113D01*
X182535357Y-37192094D01*
X182534391Y-37218628D01*
X182528558Y-37238883D01*
X182510741Y-37271532D01*
X182486329Y-37281057D01*
X182455086Y-37267521D01*
X182446011Y-37260397D01*
X182431592Y-37238444D01*
X182414474Y-37196709D01*
X182395773Y-37139172D01*
X182376608Y-37069811D01*
X182358096Y-36992603D01*
X182341354Y-36911528D01*
X182330264Y-36848294D01*
X182318669Y-36759963D01*
X182421756Y-36759963D01*
X182425863Y-36790130D01*
X182433007Y-36831640D01*
X182442001Y-36878442D01*
X182451662Y-36924482D01*
X182460805Y-36963708D01*
X182468245Y-36990066D01*
X182470498Y-36995688D01*
X182490137Y-37013406D01*
X182504315Y-37016745D01*
X182541760Y-37023262D01*
X182592928Y-37040835D01*
X182651986Y-37066494D01*
X182713100Y-37097270D01*
X182770437Y-37130196D01*
X182818165Y-37162302D01*
X182850450Y-37190619D01*
X182853810Y-37194622D01*
X182872208Y-37227870D01*
X182884382Y-37267257D01*
X182884777Y-37269572D01*
X182891443Y-37302233D01*
X182898589Y-37324737D01*
X182899671Y-37326776D01*
X182913825Y-37335264D01*
X182945912Y-37348268D01*
X182990700Y-37363801D01*
X183027745Y-37375397D01*
X183085395Y-37392677D01*
X183124070Y-37403921D01*
X183147885Y-37409855D01*
X183160960Y-37411209D01*
X183167412Y-37408711D01*
X183171359Y-37403089D01*
X183172599Y-37401017D01*
X183171182Y-37382390D01*
X183151854Y-37358010D01*
X183118626Y-37332054D01*
X183090913Y-37316025D01*
X183062803Y-37297324D01*
X183047031Y-37278381D01*
X183045792Y-37273132D01*
X183053619Y-37249289D01*
X183071732Y-37225057D01*
X183092081Y-37210341D01*
X183097701Y-37209260D01*
X183116892Y-37217055D01*
X183147050Y-37237224D01*
X183182310Y-37264939D01*
X183216809Y-37295376D01*
X183244681Y-37323708D01*
X183258023Y-37341197D01*
X183293908Y-37380537D01*
X183342090Y-37404554D01*
X183394426Y-37409468D01*
X183402545Y-37408247D01*
X183432578Y-37397830D01*
X183450752Y-37382737D01*
X183451622Y-37380898D01*
X183447570Y-37359604D01*
X183424394Y-37331283D01*
X183385099Y-37298355D01*
X183332693Y-37263241D01*
X183270184Y-37228362D01*
X183249195Y-37217961D01*
X183204014Y-37195041D01*
X183168315Y-37174685D01*
X183146866Y-37159736D01*
X183142816Y-37154514D01*
X183151825Y-37132714D01*
X183174986Y-37116591D01*
X183192838Y-37113003D01*
X183222191Y-37119756D01*
X183265811Y-37138229D01*
X183318688Y-37165739D01*
X183375809Y-37199603D01*
X183432162Y-37237139D01*
X183452704Y-37252085D01*
X183492529Y-37280308D01*
X183525627Y-37300869D01*
X183547121Y-37310873D01*
X183551970Y-37311024D01*
X183561264Y-37292866D01*
X183562287Y-37261004D01*
X183555559Y-37224135D01*
X183545142Y-37197252D01*
X183511996Y-37154927D01*
X183461911Y-37116782D01*
X183402011Y-37086681D01*
X183339420Y-37068486D01*
X183301018Y-37064874D01*
X183249288Y-37054415D01*
X183211020Y-37034359D01*
X183177451Y-37003384D01*
X183166400Y-36974217D01*
X183176871Y-36950441D01*
X183207871Y-36935637D01*
X183239311Y-36932519D01*
X183260352Y-36931254D01*
X183277726Y-36925074D01*
X183295623Y-36910401D01*
X183318231Y-36883659D01*
X183349741Y-36841270D01*
X183355557Y-36833254D01*
X183481818Y-36646647D01*
X183585280Y-36466819D01*
X183665890Y-36293877D01*
X183723593Y-36127927D01*
X183739626Y-36066200D01*
X183746294Y-36028722D01*
X183752943Y-35975719D01*
X183759219Y-35912358D01*
X183764770Y-35843810D01*
X183769245Y-35775243D01*
X183772290Y-35711826D01*
X183773553Y-35658729D01*
X183772682Y-35621119D01*
X183770880Y-35607711D01*
X183759717Y-35586374D01*
X183746274Y-35585499D01*
X183735175Y-35602496D01*
X183731023Y-35630032D01*
X183729021Y-35660105D01*
X183724057Y-35707124D01*
X183716914Y-35764266D01*
X183709691Y-35815856D01*
X183699466Y-35880113D01*
X183690080Y-35925250D01*
X183680131Y-35956110D01*
X183668220Y-35977531D01*
X183660070Y-35987315D01*
X183627562Y-36012583D01*
X183599854Y-36015277D01*
X183578599Y-35995441D01*
X183573681Y-35984983D01*
X183552611Y-35933022D01*
X183537278Y-35899983D01*
X183525368Y-35882109D01*
X183514571Y-35875645D01*
X183506525Y-35875879D01*
X183490027Y-35890422D01*
X183473282Y-35925981D01*
X183466572Y-35946496D01*
X183453225Y-35983120D01*
X183432137Y-36031598D01*
X183405872Y-36086960D01*
X183376992Y-36144234D01*
X183348061Y-36198450D01*
X183321644Y-36244639D01*
X183300304Y-36277830D01*
X183288462Y-36291804D01*
X183255864Y-36308256D01*
X183226996Y-36301490D01*
X183201192Y-36271204D01*
X183189032Y-36246683D01*
X183172389Y-36213327D01*
X183157089Y-36191481D01*
X183149572Y-36186522D01*
X183136829Y-36196343D01*
X183118658Y-36221570D01*
X183105992Y-36243675D01*
X183084808Y-36276236D01*
X183051292Y-36319033D01*
X183010593Y-36365764D01*
X182979674Y-36398364D01*
X182894904Y-36474369D01*
X182792047Y-36548544D01*
X182669122Y-36622190D01*
X182528407Y-36694558D01*
X182483688Y-36716237D01*
X182447922Y-36733817D01*
X182426108Y-36744829D01*
X182421868Y-36747193D01*
X182421756Y-36759963D01*
X182318669Y-36759963D01*
X182317564Y-36751548D01*
X182312121Y-36659767D01*
X182314319Y-36567724D01*
X182324543Y-36470191D01*
X182343176Y-36361943D01*
X182370605Y-36237752D01*
X182377168Y-36210587D01*
X182390001Y-36155168D01*
X182400230Y-36105417D01*
X182406593Y-36067825D01*
X182408069Y-36051979D01*
X182419112Y-36017820D01*
X182443031Y-35994826D01*
X182473884Y-35975252D01*
X182494806Y-35968958D01*
X182506266Y-35977736D01*
X182508736Y-36003380D01*
X182502685Y-36047681D01*
X182488584Y-36112431D01*
X182481528Y-36141498D01*
X182456659Y-36248610D01*
X182436635Y-36348123D01*
X182421731Y-36437605D01*
X182412221Y-36514627D01*
X182408381Y-36576760D01*
X182410486Y-36621573D01*
X182418811Y-36646636D01*
X182423880Y-36650563D01*
X182441966Y-36649033D01*
X182475213Y-36639420D01*
X182516926Y-36623712D01*
X182523486Y-36620959D01*
X182642619Y-36564429D01*
X182749860Y-36501909D01*
X182843387Y-36435101D01*
X182921376Y-36365706D01*
X182982007Y-36295427D01*
X183023457Y-36225964D01*
X183043903Y-36159021D01*
X183045792Y-36133166D01*
X183047742Y-36097988D01*
X183056678Y-36077555D01*
X183077227Y-36062662D01*
X183082703Y-36059763D01*
X183123402Y-36044696D01*
X183155168Y-36048820D01*
X183182278Y-36073845D01*
X183202211Y-36107521D01*
X183221317Y-36141229D01*
X183238457Y-36164767D01*
X183246580Y-36171442D01*
X183266976Y-36166193D01*
X183290320Y-36141628D01*
X183314738Y-36102005D01*
X183338351Y-36051585D01*
X183359285Y-35994627D01*
X183375664Y-35935389D01*
X183385610Y-35878131D01*
X183387594Y-35851302D01*
X183390527Y-35806215D01*
X183397156Y-35777882D01*
X183409684Y-35759038D01*
X183417814Y-35751734D01*
X183450730Y-35735742D01*
X183491007Y-35729555D01*
X183526703Y-35734508D01*
X183535151Y-35738627D01*
X183548384Y-35756193D01*
X183557388Y-35780062D01*
X183570577Y-35811444D01*
X183588746Y-35830868D01*
X183606726Y-35833543D01*
X183611476Y-35830199D01*
X183619842Y-35811055D01*
X183628277Y-35773581D01*
X183635997Y-35723496D01*
X183642223Y-35666518D01*
X183646171Y-35608366D01*
X183647165Y-35569080D01*
X183644696Y-35510586D01*
X183635202Y-35467653D01*
X183616152Y-35432201D01*
X183596947Y-35408793D01*
X183583466Y-35392303D01*
X183581703Y-35379012D01*
X183593211Y-35361087D01*
X183610328Y-35341203D01*
X183638838Y-35314231D01*
X183671819Y-35297244D01*
X183718668Y-35285249D01*
X183773481Y-35270316D01*
X183812402Y-35251543D01*
X183834041Y-35231201D01*
X183837007Y-35211564D01*
X183819909Y-35194901D01*
X183781358Y-35183484D01*
X183780994Y-35183426D01*
X183737338Y-35168791D01*
X183709282Y-35143697D01*
X183699897Y-35112165D01*
X183707035Y-35086564D01*
X183727009Y-35062903D01*
X183758191Y-35038634D01*
X183767672Y-35032905D01*
X183809955Y-35000670D01*
X183828435Y-34965006D01*
X183823098Y-34926128D01*
X183793929Y-34884249D01*
X183779111Y-34869843D01*
X183732136Y-34830613D01*
X183696277Y-34810294D01*
X183667611Y-34809015D01*
X183642210Y-34826904D01*
X183616151Y-34864088D01*
X183609663Y-34875363D01*
X183576671Y-34919925D01*
X183541065Y-34941758D01*
X183503950Y-34940242D01*
X183498147Y-34937884D01*
X183468825Y-34918533D01*
X183459979Y-34895080D01*
X183471934Y-34865498D01*
X183505015Y-34827762D01*
X183517721Y-34815813D01*
X183556170Y-34776318D01*
X183591773Y-34732441D01*
X183613902Y-34698611D01*
X183633833Y-34654647D01*
X183654137Y-34597872D01*
X183672555Y-34536162D01*
X183686824Y-34477392D01*
X183694685Y-34429440D01*
X183695532Y-34414216D01*
X183693240Y-34389939D01*
X183681650Y-34383717D01*
X183663174Y-34387203D01*
X183540982Y-34414820D01*
X183395099Y-34442303D01*
X183225901Y-34469593D01*
X183033761Y-34496631D01*
X182819053Y-34523357D01*
X182751003Y-34531225D01*
X182603528Y-34547074D01*
X182474170Y-34558739D01*
X182357390Y-34566440D01*
X182247645Y-34570398D01*
X182139397Y-34570834D01*
X182027103Y-34567969D01*
X181935744Y-34563725D01*
X181861739Y-34560116D01*
X181795363Y-34557574D01*
X181740586Y-34556193D01*
X181701380Y-34556071D01*
X181681717Y-34557302D01*
X181680818Y-34557561D01*
X181677056Y-34566376D01*
X181686170Y-34586727D01*
X181709391Y-34620741D01*
X181741498Y-34662436D01*
X181796558Y-34735978D01*
X181837160Y-34801532D01*
X181866999Y-34866908D01*
X181889772Y-34939913D01*
X181905234Y-35008300D01*
X181930154Y-35131966D01*
X181903078Y-35153891D01*
X181864091Y-35173478D01*
X181826003Y-35169095D01*
X181794442Y-35145736D01*
X181767621Y-35124499D01*
X181742737Y-35116260D01*
X181725932Y-35122020D01*
X181722249Y-35133971D01*
X181727417Y-35152548D01*
X181741201Y-35186302D01*
X181761025Y-35229108D01*
X181769555Y-35246374D01*
X181812905Y-35344436D01*
X181839853Y-35436814D01*
X181852702Y-35532962D01*
X181854603Y-35595395D01*
X181854169Y-35647595D01*
X181852027Y-35681220D01*
X181846919Y-35701759D01*
X181837587Y-35714697D01*
X181825114Y-35724001D01*
X181790303Y-35738577D01*
X181760033Y-35731484D01*
X181730779Y-35701697D01*
X181726301Y-35695268D01*
X181701760Y-35665938D01*
X181668693Y-35635117D01*
X181633632Y-35607978D01*
X181603108Y-35589698D01*
X181586991Y-35584912D01*
X181579781Y-35591889D01*
X181575004Y-35614682D01*
X181572324Y-35656085D01*
X181571416Y-35714258D01*
X181569211Y-35789629D01*
X181561857Y-35853354D01*
X181547412Y-35912604D01*
X181523934Y-35974551D01*
X181489480Y-36046366D01*
X181472842Y-36078232D01*
X181444308Y-36135401D01*
X181426509Y-36181085D01*
X181416644Y-36223696D01*
X181412767Y-36258715D01*
X181411101Y-36290434D01*
X181309715Y-36290434D01*
X181308967Y-36277528D01*
X181307111Y-36258456D01*
X181298618Y-36173881D01*
X181347001Y-36121392D01*
X181387698Y-36063662D01*
X181422428Y-35988180D01*
X181449841Y-35900809D01*
X181468583Y-35807414D01*
X181477302Y-35713861D01*
X181474646Y-35626014D01*
X181469457Y-35590315D01*
X181461840Y-35546773D01*
X181459751Y-35520470D01*
X181463621Y-35505127D01*
X181473883Y-35494465D01*
X181476165Y-35492760D01*
X181506427Y-35479486D01*
X181526199Y-35476622D01*
X181551883Y-35482833D01*
X181591541Y-35499479D01*
X181639170Y-35523575D01*
X181688768Y-35552138D01*
X181723999Y-35574938D01*
X181746526Y-35588630D01*
X181757639Y-35587904D01*
X181763104Y-35577835D01*
X181767901Y-35538718D01*
X181760321Y-35484283D01*
X181741989Y-35418784D01*
X181714530Y-35346474D01*
X181679569Y-35271608D01*
X181638731Y-35198438D01*
X181593643Y-35131218D01*
X181591225Y-35127982D01*
X181566393Y-35093754D01*
X181548638Y-35067032D01*
X181541767Y-35053546D01*
X181541766Y-35053492D01*
X181551710Y-35038663D01*
X181575241Y-35022466D01*
X181602904Y-35010476D01*
X181619644Y-35007571D01*
X181642944Y-35010521D01*
X181681545Y-35018100D01*
X181727499Y-35028732D01*
X181732031Y-35029862D01*
X181820022Y-35051946D01*
X181811807Y-35002583D01*
X181794867Y-34932573D01*
X181766671Y-34865607D01*
X181724745Y-34797485D01*
X181666611Y-34724008D01*
X181612547Y-34664607D01*
X181570045Y-34621930D01*
X181529754Y-34587178D01*
X181486927Y-34557550D01*
X181436817Y-34530246D01*
X181374677Y-34502466D01*
X181295760Y-34471410D01*
X181266387Y-34460396D01*
X181196805Y-34433894D01*
X181114937Y-34401755D01*
X181030590Y-34367878D01*
X180953572Y-34336162D01*
X180947533Y-34333630D01*
X180875467Y-34303668D01*
X180798981Y-34272378D01*
X180726432Y-34243150D01*
X180666178Y-34219373D01*
X180657398Y-34215978D01*
X180595805Y-34190590D01*
X180555607Y-34168843D01*
X180534958Y-34148145D01*
X180532009Y-34125906D01*
X180544913Y-34099533D01*
X180560272Y-34079723D01*
X180581998Y-34052168D01*
X180589755Y-34034640D01*
X180585997Y-34019574D01*
X180581969Y-34012778D01*
X180568042Y-34002226D01*
X180537550Y-33984464D01*
X180495865Y-33962168D01*
X180448363Y-33938014D01*
X180400417Y-33914679D01*
X180357402Y-33894838D01*
X180324690Y-33881169D01*
X180307996Y-33876337D01*
X180288354Y-33867948D01*
X180279501Y-33859636D01*
X180271137Y-33833749D01*
X180275098Y-33823824D01*
X180450632Y-33823824D01*
X180452278Y-33839315D01*
X180473344Y-33858151D01*
X180510017Y-33878189D01*
X180554272Y-33896108D01*
X180598081Y-33908587D01*
X180628978Y-33912434D01*
X180679496Y-33919805D01*
X180710705Y-33940174D01*
X180721605Y-33970921D01*
X180711198Y-34009430D01*
X180681463Y-34049978D01*
X180657326Y-34077649D01*
X180642090Y-34099111D01*
X180639350Y-34106064D01*
X180650474Y-34119250D01*
X180680523Y-34133845D01*
X180724513Y-34148536D01*
X180777458Y-34162013D01*
X180834373Y-34172961D01*
X180890273Y-34180069D01*
X180928123Y-34182086D01*
X181018364Y-34183159D01*
X181018364Y-34224673D01*
X181019636Y-34247712D01*
X181027000Y-34262428D01*
X181045781Y-34273540D01*
X181081307Y-34285768D01*
X181090558Y-34288659D01*
X181122116Y-34297823D01*
X181172919Y-34311783D01*
X181238879Y-34329450D01*
X181315906Y-34349739D01*
X181399913Y-34371561D01*
X181468547Y-34389176D01*
X181565648Y-34413723D01*
X181644031Y-34432809D01*
X181708203Y-34447264D01*
X181762676Y-34457917D01*
X181811957Y-34465596D01*
X181860556Y-34471133D01*
X181912982Y-34475356D01*
X181949836Y-34477704D01*
X182159317Y-34484824D01*
X182381730Y-34482486D01*
X182608006Y-34470991D01*
X182829079Y-34450640D01*
X182853277Y-34447803D01*
X183007881Y-34428809D01*
X183145054Y-34411026D01*
X183263565Y-34394633D01*
X183362182Y-34379811D01*
X183439673Y-34366737D01*
X183494808Y-34355592D01*
X183507071Y-34352582D01*
X183606601Y-34325063D01*
X183696676Y-34297176D01*
X183774179Y-34270052D01*
X183835993Y-34244823D01*
X183879000Y-34222621D01*
X183893176Y-34212405D01*
X183930402Y-34186821D01*
X183970184Y-34177533D01*
X183983483Y-34177143D01*
X184031069Y-34171385D01*
X184073003Y-34156230D01*
X184101844Y-34134857D01*
X184108736Y-34123630D01*
X184104618Y-34104126D01*
X184084208Y-34071756D01*
X184056049Y-34037087D01*
X184023535Y-33997598D01*
X184005146Y-33967806D01*
X183997370Y-33941035D01*
X183996337Y-33923569D01*
X183990735Y-33882533D01*
X183977159Y-33844920D01*
X183976224Y-33843242D01*
X183962967Y-33807281D01*
X183970834Y-33778744D01*
X184001114Y-33754380D01*
X184014015Y-33747753D01*
X184041194Y-33731335D01*
X184055734Y-33715819D01*
X184056498Y-33712655D01*
X184045899Y-33701906D01*
X184018002Y-33687547D01*
X183978655Y-33672547D01*
X183975281Y-33671438D01*
X183854950Y-33622876D01*
X183733323Y-33556437D01*
X183617659Y-33476738D01*
X183515216Y-33388394D01*
X183489861Y-33362708D01*
X183454307Y-33321259D01*
X183413321Y-33267363D01*
X183373233Y-33209565D01*
X183353405Y-33178469D01*
X183270780Y-33053026D01*
X183189605Y-32949653D01*
X183107832Y-32866611D01*
X183023410Y-32802161D01*
X182934290Y-32754565D01*
X182838422Y-32722082D01*
X182806889Y-32714784D01*
X182759632Y-32704173D01*
X182717706Y-32693446D01*
X182690858Y-32685155D01*
X182656213Y-32675871D01*
X182631185Y-32673116D01*
X182606768Y-32666730D01*
X182596748Y-32656367D01*
X182595876Y-32639895D01*
X182597037Y-32603183D01*
X182600012Y-32549952D01*
X182600654Y-32540678D01*
X182705876Y-32540678D01*
X182707252Y-32567333D01*
X182710644Y-32581616D01*
X182712615Y-32584445D01*
X182729181Y-32593349D01*
X182763649Y-32607497D01*
X182810960Y-32624934D01*
X182865309Y-32643460D01*
X182944293Y-32669756D01*
X183005142Y-32691656D01*
X183052686Y-32711955D01*
X183091754Y-32733448D01*
X183127177Y-32758928D01*
X183163785Y-32791190D01*
X183206407Y-32833030D01*
X183224421Y-32851247D01*
X183316729Y-32953007D01*
X183396112Y-33059530D01*
X183426832Y-33106865D01*
X183475425Y-33182845D01*
X183516717Y-33242397D01*
X183555010Y-33290177D01*
X183594608Y-33330838D01*
X183639812Y-33369035D01*
X183694923Y-33409424D01*
X183726719Y-33431337D01*
X183787072Y-33469928D01*
X183853637Y-33508288D01*
X183923301Y-33545078D01*
X183992948Y-33578959D01*
X184059463Y-33608590D01*
X184119731Y-33632633D01*
X184170637Y-33649748D01*
X184209066Y-33658595D01*
X184231903Y-33657835D01*
X184236944Y-33650733D01*
X184231831Y-33636408D01*
X184218313Y-33606566D01*
X184199068Y-33567053D01*
X184194250Y-33557484D01*
X184166075Y-33491094D01*
X184156927Y-33438956D01*
X184167500Y-33399735D01*
X184198485Y-33372095D01*
X184250576Y-33354704D01*
X184303160Y-33347643D01*
X184363748Y-33339740D01*
X184402274Y-33327874D01*
X184412782Y-33320662D01*
X184424963Y-33305108D01*
X184420381Y-33292058D01*
X184405908Y-33278861D01*
X184383597Y-33253901D01*
X184360617Y-33219017D01*
X184354968Y-33208550D01*
X184334163Y-33172222D01*
X184312557Y-33141221D01*
X184307359Y-33135093D01*
X184296725Y-33121585D01*
X184290911Y-33106143D01*
X184289549Y-33083206D01*
X184292271Y-33047213D01*
X184298196Y-32996723D01*
X184305807Y-32897360D01*
X184306844Y-32780252D01*
X184301582Y-32650723D01*
X184290298Y-32514098D01*
X184273267Y-32375701D01*
X184262470Y-32306230D01*
X184248143Y-32214499D01*
X184239256Y-32143528D01*
X184235902Y-32094208D01*
X184237874Y-32068391D01*
X184250521Y-32043049D01*
X184274810Y-32007710D01*
X184305675Y-31969695D01*
X184308174Y-31966873D01*
X184374517Y-31878956D01*
X184436234Y-31770690D01*
X184492132Y-31645544D01*
X184541019Y-31506987D01*
X184581705Y-31358489D01*
X184612996Y-31203517D01*
X184633703Y-31045541D01*
X184636752Y-31010319D01*
X184646757Y-30857062D01*
X184651389Y-30722732D01*
X184650659Y-30608423D01*
X184644577Y-30515225D01*
X184633155Y-30444230D01*
X184630865Y-30435125D01*
X184590343Y-30320509D01*
X184529814Y-30201766D01*
X184451749Y-30083363D01*
X184399232Y-30016391D01*
X184359593Y-29969924D01*
X184324076Y-29930283D01*
X184296123Y-29901171D01*
X184279179Y-29886292D01*
X184277385Y-29885338D01*
X184257226Y-29884552D01*
X184226262Y-29894730D01*
X184182432Y-29916902D01*
X184123676Y-29952097D01*
X184056498Y-29995646D01*
X183954428Y-30071896D01*
X183853349Y-30164868D01*
X183752347Y-30275723D01*
X183650509Y-30405622D01*
X183546924Y-30555727D01*
X183440677Y-30727200D01*
X183334823Y-30913925D01*
X183301463Y-30975547D01*
X183278553Y-31019728D01*
X183264768Y-31050013D01*
X183258781Y-31069947D01*
X183259267Y-31083075D01*
X183264901Y-31092944D01*
X183266994Y-31095356D01*
X183284698Y-31126882D01*
X183278515Y-31155577D01*
X183256444Y-31176155D01*
X183224490Y-31188935D01*
X183189119Y-31185164D01*
X183146250Y-31163799D01*
X183111202Y-31139047D01*
X183039461Y-31095653D01*
X182968780Y-31075471D01*
X182925470Y-31074845D01*
X182896680Y-31080414D01*
X182885999Y-31092309D01*
X182885709Y-31102913D01*
X182890065Y-31140143D01*
X182896543Y-31187257D01*
X182903977Y-31236651D01*
X182911203Y-31280720D01*
X182917055Y-31311860D01*
X182918891Y-31319492D01*
X182921497Y-31341200D01*
X182912680Y-31359384D01*
X182888810Y-31378081D01*
X182846258Y-31401329D01*
X182844529Y-31402202D01*
X182810931Y-31420385D01*
X182785430Y-31438914D01*
X182766964Y-31461256D01*
X182754473Y-31490879D01*
X182746897Y-31531250D01*
X182743175Y-31585836D01*
X182742245Y-31658107D01*
X182742842Y-31734604D01*
X182742413Y-31838084D01*
X182739135Y-31958162D01*
X182733296Y-32087577D01*
X182725183Y-32219067D01*
X182721876Y-32264021D01*
X182714517Y-32363321D01*
X182709442Y-32440987D01*
X182706584Y-32499334D01*
X182705876Y-32540678D01*
X182600654Y-32540678D01*
X182604580Y-32483921D01*
X182610523Y-32408810D01*
X182613274Y-32376618D01*
X182622344Y-32263364D01*
X182630120Y-32147680D01*
X182636484Y-32033052D01*
X182641317Y-31922964D01*
X182644500Y-31820901D01*
X182645915Y-31730348D01*
X182645443Y-31654788D01*
X182642965Y-31597707D01*
X182640590Y-31574634D01*
X182630681Y-31504905D01*
X182422228Y-31501770D01*
X182334358Y-31501256D01*
X182266826Y-31502616D01*
X182220801Y-31505801D01*
X182197449Y-31510759D01*
X182196063Y-31511586D01*
X182185577Y-31528321D01*
X182171900Y-31562690D01*
X182157188Y-31608865D01*
X182149072Y-31638595D01*
X182132978Y-31716703D01*
X182123341Y-31802434D01*
X182120229Y-31898459D01*
X182123712Y-32007452D01*
X182133858Y-32132082D01*
X182150735Y-32275023D01*
X182168642Y-32401118D01*
X182180191Y-32481074D01*
X182185874Y-32540692D01*
X182183437Y-32583426D01*
X182170622Y-32612729D01*
X182145174Y-32632056D01*
X182104837Y-32644861D01*
X182047354Y-32654597D01*
X181998872Y-32661026D01*
X181838089Y-32690801D01*
X181692912Y-32736274D01*
X181564353Y-32796955D01*
X181453426Y-32872350D01*
X181361145Y-32961966D01*
X181348422Y-32977289D01*
X181319563Y-33016808D01*
X181284677Y-33070114D01*
X181248630Y-33129536D01*
X181222649Y-33175547D01*
X181160467Y-33286957D01*
X181104761Y-33379004D01*
X181052948Y-33454617D01*
X181002442Y-33516725D01*
X180950657Y-33568259D01*
X180895010Y-33612148D01*
X180832916Y-33651322D01*
X180776134Y-33681599D01*
X180715689Y-33710139D01*
X180651606Y-33737480D01*
X180593503Y-33759635D01*
X180566451Y-33768503D01*
X180505869Y-33788676D01*
X180467741Y-33806820D01*
X180450632Y-33823824D01*
X180275098Y-33823824D01*
X180282218Y-33805985D01*
X180309181Y-33781516D01*
X180343534Y-33766728D01*
X180394255Y-33752769D01*
X180424290Y-33741660D01*
X180433462Y-33730660D01*
X180421596Y-33717033D01*
X180388517Y-33698039D01*
X180337496Y-33672634D01*
X180260511Y-33632667D01*
X180197000Y-33595362D01*
X180149230Y-33562277D01*
X180119467Y-33534973D01*
X180109932Y-33516009D01*
X180118570Y-33486066D01*
X180139387Y-33459044D01*
X180164735Y-33444007D01*
X180171373Y-33443178D01*
X180206177Y-33435164D01*
X180252119Y-33413077D01*
X180303310Y-33379847D01*
X180312641Y-33372898D01*
X180352914Y-33342281D01*
X180348673Y-33248880D01*
X180345194Y-33202927D01*
X180339840Y-33166156D01*
X180333658Y-33145355D01*
X180332464Y-33143757D01*
X180315907Y-33144154D01*
X180283743Y-33161594D01*
X180248542Y-33186627D01*
X180173551Y-33239488D01*
X180088422Y-33292882D01*
X180000194Y-33342834D01*
X179915905Y-33385369D01*
X179842594Y-33416512D01*
X179839447Y-33417661D01*
X179706782Y-33456839D01*
X179553904Y-33485968D01*
X179382554Y-33504850D01*
X179194473Y-33513289D01*
X179008985Y-33511686D01*
X178893949Y-33506458D01*
X178795087Y-33497888D01*
X178704785Y-33484595D01*
X178615429Y-33465197D01*
X178519402Y-33438314D01*
X178410914Y-33403179D01*
X178272818Y-33358422D01*
X178149328Y-33323125D01*
X178033606Y-33295834D01*
X177918813Y-33275092D01*
X177798108Y-33259445D01*
X177687091Y-33249170D01*
X177616632Y-33243942D01*
X177564957Y-33241303D01*
X177526911Y-33241389D01*
X177497338Y-33244339D01*
X177471084Y-33250291D01*
X177454673Y-33255396D01*
X177410972Y-33273433D01*
X177358295Y-33300372D01*
X177302624Y-33332545D01*
X177249938Y-33366285D01*
X177206219Y-33397924D01*
X177177448Y-33423794D01*
X177174648Y-33427131D01*
X177158615Y-33450720D01*
X177157648Y-33468073D01*
X177167882Y-33486712D01*
X177183208Y-33524767D01*
X177184146Y-33563644D01*
X177176655Y-33583798D01*
X177160847Y-33596695D01*
X177131046Y-33613202D01*
X177113467Y-33621273D01*
X177068789Y-33648497D01*
X177016336Y-33693634D01*
X176959080Y-33753062D01*
X176899988Y-33823159D01*
X176842029Y-33900304D01*
X176788173Y-33980876D01*
X176741389Y-34061254D01*
X176722703Y-34097903D01*
X176692972Y-34163100D01*
X176669289Y-34222531D01*
X176652906Y-34272361D01*
X176645074Y-34308753D01*
X176566986Y-34308753D01*
X176569233Y-34295906D01*
X176572326Y-34275300D01*
X176572462Y-34273369D01*
X176561416Y-34267715D01*
X176532124Y-34261641D01*
X176490354Y-34256269D01*
X176479212Y-34255218D01*
X176353166Y-34238859D01*
X176224959Y-34212541D01*
X176099253Y-34177828D01*
X175980710Y-34136285D01*
X175873993Y-34089476D01*
X175783764Y-34038966D01*
X175738212Y-34006529D01*
X175707355Y-33985706D01*
X175686106Y-33978819D01*
X175681189Y-33980703D01*
X175390672Y-33980703D01*
X175381118Y-33914786D01*
X175368814Y-33828558D01*
X175358484Y-33754744D01*
X175350837Y-33698378D01*
X175349371Y-33687160D01*
X175351243Y-33638385D01*
X175367335Y-33595018D01*
X175393782Y-33559993D01*
X175426716Y-33536245D01*
X175462274Y-33526707D01*
X175496589Y-33534314D01*
X175521778Y-33556299D01*
X175543977Y-33588687D01*
X175563334Y-33620958D01*
X175582800Y-33643527D01*
X175619985Y-33675249D01*
X175671436Y-33713841D01*
X175733699Y-33757019D01*
X175803321Y-33802500D01*
X175876849Y-33847999D01*
X175950829Y-33891232D01*
X176021808Y-33929917D01*
X176059041Y-33948782D01*
X176135751Y-33984511D01*
X176215470Y-34018350D01*
X176293790Y-34048720D01*
X176366302Y-34074044D01*
X176428598Y-34092744D01*
X176476269Y-34103241D01*
X176495308Y-34104949D01*
X176510113Y-34103782D01*
X176523819Y-34098409D01*
X176538921Y-34086022D01*
X176557916Y-34063814D01*
X176583299Y-34028978D01*
X176617566Y-33978704D01*
X176647734Y-33933490D01*
X176691627Y-33869853D01*
X176737621Y-33807249D01*
X176781506Y-33751145D01*
X176819070Y-33707008D01*
X176835210Y-33690108D01*
X176873862Y-33649646D01*
X176894764Y-33621481D01*
X176897153Y-33606645D01*
X176897000Y-33606484D01*
X176885979Y-33579156D01*
X176892303Y-33539014D01*
X176914596Y-33488366D01*
X176951484Y-33429519D01*
X177001593Y-33364784D01*
X177063547Y-33296467D01*
X177107284Y-33253344D01*
X177178382Y-33190921D01*
X177247703Y-33141549D01*
X177319335Y-33103867D01*
X177397366Y-33076510D01*
X177485883Y-33058116D01*
X177588974Y-33047320D01*
X177710728Y-33042760D01*
X177739587Y-33042463D01*
X177804615Y-33042088D01*
X177858129Y-33042365D01*
X177904016Y-33044004D01*
X177946161Y-33047711D01*
X177988452Y-33054196D01*
X178034776Y-33064168D01*
X178089018Y-33078334D01*
X178155065Y-33097404D01*
X178236804Y-33122086D01*
X178325924Y-33149355D01*
X178408346Y-33174142D01*
X178490479Y-33198039D01*
X178566951Y-33219541D01*
X178632387Y-33237145D01*
X178681417Y-33249345D01*
X178689401Y-33251140D01*
X178818528Y-33276084D01*
X178953739Y-33296329D01*
X179090853Y-33311639D01*
X179225685Y-33321778D01*
X179354052Y-33326511D01*
X179471770Y-33325601D01*
X179574656Y-33318811D01*
X179658526Y-33305905D01*
X179658725Y-33305862D01*
X179734381Y-33285903D01*
X179820738Y-33257929D01*
X179907698Y-33225553D01*
X179985168Y-33192389D01*
X180011566Y-33179545D01*
X180049238Y-33153256D01*
X180088703Y-33114519D01*
X180107667Y-33091154D01*
X180136691Y-33051584D01*
X180157233Y-33020556D01*
X180170243Y-32992907D01*
X180176675Y-32963476D01*
X180177479Y-32927099D01*
X180173607Y-32878614D01*
X180166012Y-32812858D01*
X180163240Y-32789745D01*
X180154595Y-32712797D01*
X180149506Y-32652465D01*
X180147803Y-32601588D01*
X180149318Y-32553006D01*
X180153882Y-32499561D01*
X180155961Y-32480249D01*
X180163783Y-32419666D01*
X180173202Y-32361211D01*
X180182785Y-32313248D01*
X180188107Y-32292688D01*
X180198497Y-32254999D01*
X180203633Y-32222441D01*
X180202255Y-32191212D01*
X180193103Y-32157508D01*
X180174917Y-32117526D01*
X180146437Y-32067464D01*
X180106402Y-32003518D01*
X180077413Y-31958603D01*
X179979918Y-31795552D01*
X179903144Y-31637557D01*
X179845642Y-31480316D01*
X179805962Y-31319528D01*
X179782654Y-31150891D01*
X179776901Y-31066816D01*
X179776134Y-31015752D01*
X179967576Y-31015752D01*
X179968715Y-31161502D01*
X179984285Y-31289281D01*
X180018476Y-31422357D01*
X180072991Y-31568273D01*
X180147820Y-31727004D01*
X180242950Y-31898523D01*
X180260952Y-31928639D01*
X180297710Y-31988730D01*
X180325270Y-32031006D01*
X180346378Y-32058547D01*
X180363778Y-32074431D01*
X180380217Y-32081734D01*
X180398440Y-32083537D01*
X180399097Y-32083538D01*
X180431106Y-32088659D01*
X180448251Y-32106217D01*
X180452130Y-32139501D01*
X180446493Y-32181053D01*
X180426898Y-32303338D01*
X180412556Y-32434930D01*
X180403436Y-32571677D01*
X180399506Y-32709425D01*
X180400737Y-32844019D01*
X180407098Y-32971306D01*
X180418558Y-33087131D01*
X180435087Y-33187342D01*
X180454440Y-33261258D01*
X180468919Y-33306284D01*
X180475988Y-33334603D01*
X180476071Y-33352264D01*
X180469590Y-33365313D01*
X180462317Y-33373900D01*
X180442511Y-33389466D01*
X180406904Y-33411763D01*
X180361437Y-33437204D01*
X180333201Y-33451832D01*
X180225584Y-33505926D01*
X180273040Y-33535344D01*
X180357821Y-33584460D01*
X180432292Y-33619068D01*
X180503287Y-33641548D01*
X180577640Y-33654279D01*
X180625839Y-33658180D01*
X180650062Y-33653796D01*
X180688057Y-33640763D01*
X180732341Y-33621715D01*
X180740382Y-33617861D01*
X180799202Y-33584007D01*
X180862240Y-33539301D01*
X180910311Y-33499061D01*
X180943441Y-33467228D01*
X180973542Y-33434330D01*
X181002835Y-33397080D01*
X181033539Y-33352188D01*
X181067872Y-33296368D01*
X181108054Y-33226329D01*
X181156303Y-33138784D01*
X181168209Y-33116869D01*
X181240832Y-32997340D01*
X181319780Y-32897393D01*
X181408768Y-32813874D01*
X181511508Y-32743631D01*
X181631714Y-32683511D01*
X181719241Y-32648994D01*
X181757326Y-32633782D01*
X181784378Y-32620264D01*
X181794442Y-32611514D01*
X181784091Y-32596701D01*
X181756575Y-32576393D01*
X181717204Y-32553702D01*
X181671285Y-32531739D01*
X181631992Y-32516288D01*
X181580241Y-32501807D01*
X181519302Y-32489880D01*
X181472804Y-32484106D01*
X181396447Y-32483774D01*
X181332404Y-32498085D01*
X181273471Y-32529662D01*
X181216130Y-32577589D01*
X181184201Y-32606834D01*
X181158624Y-32628050D01*
X181144575Y-32636966D01*
X181144104Y-32637020D01*
X181125942Y-32627835D01*
X181107069Y-32607302D01*
X181096798Y-32585950D01*
X181096574Y-32583262D01*
X181105006Y-32566403D01*
X181126371Y-32541930D01*
X181139565Y-32529573D01*
X181235141Y-32459004D01*
X181333929Y-32412281D01*
X181435868Y-32389407D01*
X181540896Y-32390387D01*
X181648954Y-32415225D01*
X181759979Y-32463925D01*
X181794698Y-32483693D01*
X181831622Y-32507477D01*
X181851684Y-32526179D01*
X181859655Y-32545255D01*
X181860619Y-32559059D01*
X181861511Y-32579573D01*
X181867488Y-32590321D01*
X181883503Y-32592465D01*
X181914508Y-32587167D01*
X181948085Y-32579584D01*
X181985016Y-32571657D01*
X182011907Y-32566951D01*
X182020278Y-32566328D01*
X182054719Y-32564361D01*
X182075007Y-32547866D01*
X182075960Y-32545670D01*
X182076973Y-32527855D01*
X182075170Y-32490512D01*
X182070892Y-32437969D01*
X182064478Y-32374554D01*
X182058182Y-32320066D01*
X182045505Y-32198940D01*
X182037119Y-32081421D01*
X182033112Y-31971668D01*
X182033570Y-31873839D01*
X182038582Y-31792090D01*
X182046019Y-31740620D01*
X182057328Y-31692462D01*
X182073265Y-31633767D01*
X182090510Y-31576712D01*
X182091643Y-31573209D01*
X182107495Y-31520334D01*
X182112402Y-31485330D01*
X182104157Y-31463647D01*
X182080552Y-31450735D01*
X182039380Y-31442043D01*
X182027088Y-31440146D01*
X181972047Y-31431892D01*
X181978494Y-31375692D01*
X181983256Y-31336824D01*
X181984428Y-31327806D01*
X182083302Y-31327806D01*
X182086565Y-31359077D01*
X182094712Y-31378887D01*
X182096576Y-31380475D01*
X182113456Y-31386656D01*
X182148008Y-31396576D01*
X182194440Y-31408630D01*
X182225922Y-31416298D01*
X182338950Y-31436917D01*
X182449242Y-31445249D01*
X182551177Y-31441237D01*
X182639135Y-31424823D01*
X182652652Y-31420677D01*
X182698608Y-31403080D01*
X182740268Y-31382884D01*
X182764203Y-31367650D01*
X182783811Y-31349645D01*
X182794241Y-31330314D01*
X182798257Y-31301545D01*
X182798708Y-31266376D01*
X182796208Y-31221954D01*
X182786847Y-31189299D01*
X182766943Y-31164832D01*
X182732817Y-31144977D01*
X182680787Y-31126158D01*
X182642713Y-31114812D01*
X182523769Y-31073505D01*
X182404501Y-31019010D01*
X182294085Y-30955847D01*
X182230990Y-30911967D01*
X182144136Y-30845985D01*
X182137470Y-30884207D01*
X182130737Y-30926663D01*
X182122722Y-30983113D01*
X182114063Y-31048338D01*
X182105398Y-31117120D01*
X182097362Y-31184239D01*
X182090594Y-31244479D01*
X182085731Y-31292619D01*
X182083410Y-31323443D01*
X182083302Y-31327806D01*
X181984428Y-31327806D01*
X181990110Y-31284089D01*
X181997755Y-31227444D01*
X181999567Y-31214347D01*
X182006336Y-31153191D01*
X182005890Y-31111886D01*
X181997244Y-31087039D01*
X181979408Y-31075255D01*
X181958412Y-31072950D01*
X181928758Y-31079129D01*
X181887076Y-31094970D01*
X181841310Y-31116713D01*
X181799406Y-31140601D01*
X181770378Y-31161889D01*
X181743554Y-31182442D01*
X181704749Y-31207752D01*
X181671178Y-31227373D01*
X181633889Y-31247488D01*
X181611266Y-31256938D01*
X181596917Y-31256705D01*
X181584451Y-31247770D01*
X181578233Y-31241653D01*
X181561549Y-31219634D01*
X181539041Y-31183007D01*
X181515075Y-31138967D01*
X181510684Y-31130290D01*
X181419142Y-30971897D01*
X181311406Y-30831222D01*
X181186912Y-30707697D01*
X181045093Y-30600757D01*
X180897446Y-30515835D01*
X180852480Y-30495763D01*
X180790172Y-30471428D01*
X180715708Y-30444524D01*
X180634276Y-30416748D01*
X180551064Y-30389794D01*
X180471259Y-30365357D01*
X180400049Y-30345131D01*
X180342621Y-30330813D01*
X180314577Y-30325389D01*
X180249428Y-30317741D01*
X180201938Y-30319747D01*
X180166750Y-30334038D01*
X180138505Y-30363246D01*
X180111845Y-30410002D01*
X180102586Y-30429505D01*
X180049514Y-30564811D01*
X180008783Y-30711535D01*
X179981201Y-30863806D01*
X179967576Y-31015752D01*
X179776134Y-31015752D01*
X179775163Y-30951045D01*
X179782853Y-30847861D01*
X179801205Y-30747224D01*
X179828261Y-30649238D01*
X179845610Y-30600241D01*
X179869794Y-30540994D01*
X179898772Y-30475620D01*
X179930501Y-30408242D01*
X179962939Y-30342983D01*
X179994044Y-30283966D01*
X180021772Y-30235315D01*
X180044083Y-30201151D01*
X180057549Y-30186386D01*
X180072223Y-30179392D01*
X180093134Y-30175614D01*
X180124723Y-30174950D01*
X180171435Y-30177303D01*
X180235839Y-30182411D01*
X180397801Y-30203183D01*
X180550627Y-30237800D01*
X180702277Y-30288420D01*
X180833891Y-30344568D01*
X180925775Y-30387358D01*
X180999159Y-30422078D01*
X181057432Y-30450654D01*
X181103984Y-30475017D01*
X181142204Y-30497094D01*
X181175481Y-30518813D01*
X181207204Y-30542102D01*
X181240762Y-30568891D01*
X181268375Y-30591771D01*
X181372838Y-30684275D01*
X181460613Y-30774449D01*
X181537479Y-30868587D01*
X181586779Y-30938548D01*
X181616881Y-30981815D01*
X181643810Y-31017173D01*
X181663849Y-31039907D01*
X181671236Y-31045618D01*
X181692190Y-31043818D01*
X181727156Y-31031204D01*
X181770491Y-31010853D01*
X181816554Y-30985840D01*
X181859705Y-30959239D01*
X181894301Y-30934127D01*
X181914701Y-30913578D01*
X181915362Y-30912538D01*
X181927089Y-30884109D01*
X181939012Y-30840302D01*
X181948873Y-30789678D01*
X181950347Y-30779856D01*
X181967815Y-30670921D01*
X182172676Y-30670921D01*
X182173976Y-30690166D01*
X182199679Y-30754487D01*
X182247173Y-30818220D01*
X182314212Y-30879569D01*
X182398554Y-30936739D01*
X182497954Y-30987933D01*
X182592882Y-31025503D01*
X182661357Y-31047232D01*
X182710838Y-31057936D01*
X182743616Y-31057815D01*
X182761985Y-31047066D01*
X182765583Y-31040451D01*
X182766223Y-31020647D01*
X182761940Y-30982529D01*
X182753762Y-30931099D01*
X182742722Y-30871358D01*
X182729849Y-30808310D01*
X182716174Y-30746955D01*
X182702727Y-30692295D01*
X182690538Y-30649334D01*
X182680639Y-30623072D01*
X182679019Y-30620255D01*
X182660745Y-30603316D01*
X182625418Y-30579371D01*
X182577853Y-30551455D01*
X182528315Y-30525320D01*
X182436402Y-30474540D01*
X182363490Y-30423001D01*
X182304713Y-30366881D01*
X182267931Y-30320819D01*
X182246117Y-30297177D01*
X182230930Y-30296187D01*
X182230337Y-30296754D01*
X182222966Y-30314420D01*
X182214148Y-30350834D01*
X182204629Y-30400780D01*
X182195156Y-30459041D01*
X182186477Y-30520402D01*
X182179339Y-30579646D01*
X182174490Y-30631558D01*
X182172676Y-30670921D01*
X181967815Y-30670921D01*
X181970656Y-30653201D01*
X181996295Y-30519268D01*
X182026220Y-30381962D01*
X182059390Y-30245187D01*
X182088637Y-30135763D01*
X182277688Y-30135763D01*
X182284183Y-30158751D01*
X182299736Y-30192086D01*
X182317585Y-30226342D01*
X182373762Y-30314355D01*
X182440419Y-30383163D01*
X182521637Y-30436758D01*
X182544034Y-30447936D01*
X182593319Y-30470392D01*
X182624659Y-30481056D01*
X182641490Y-30479180D01*
X182647246Y-30464014D01*
X182645364Y-30434809D01*
X182644222Y-30426101D01*
X182634116Y-30364066D01*
X182618727Y-30284932D01*
X182599426Y-30194724D01*
X182577586Y-30099467D01*
X182554580Y-30005188D01*
X182531780Y-29917911D01*
X182514728Y-29857579D01*
X182493305Y-29785759D01*
X182477199Y-29733862D01*
X182465158Y-29698658D01*
X182455933Y-29676920D01*
X182448274Y-29665418D01*
X182440931Y-29660923D01*
X182438412Y-29660433D01*
X182429888Y-29670552D01*
X182416091Y-29699343D01*
X182398631Y-29742422D01*
X182379123Y-29795402D01*
X182359177Y-29853899D01*
X182340407Y-29913527D01*
X182324425Y-29969901D01*
X182323903Y-29971885D01*
X182310360Y-30020584D01*
X182296486Y-30065713D01*
X182285831Y-30096046D01*
X182278741Y-30116927D01*
X182277688Y-30135763D01*
X182088637Y-30135763D01*
X182094762Y-30112846D01*
X182131293Y-29988844D01*
X182167940Y-29877084D01*
X182203663Y-29781471D01*
X182236779Y-29707176D01*
X182270195Y-29645177D01*
X182308160Y-29582083D01*
X182318166Y-29566947D01*
X182494935Y-29566947D01*
X182498419Y-29578929D01*
X182509609Y-29578979D01*
X182526560Y-29569487D01*
X182529043Y-29562789D01*
X182520664Y-29551608D01*
X182505221Y-29554202D01*
X182494935Y-29566947D01*
X182318166Y-29566947D01*
X182347261Y-29522935D01*
X182384086Y-29472776D01*
X182415223Y-29436649D01*
X182427281Y-29425665D01*
X182467610Y-29405356D01*
X182510385Y-29401691D01*
X182547383Y-29414755D01*
X182558417Y-29424341D01*
X182568213Y-29443645D01*
X182582969Y-29484514D01*
X182602183Y-29545077D01*
X182625351Y-29623465D01*
X182651969Y-29717805D01*
X182681535Y-29826228D01*
X182713544Y-29946863D01*
X182747493Y-30077838D01*
X182782879Y-30217285D01*
X182819198Y-30363330D01*
X182855948Y-30514105D01*
X182889544Y-30654713D01*
X182940073Y-30868284D01*
X182978107Y-30868284D01*
X183012320Y-30875147D01*
X183050583Y-30892231D01*
X183060409Y-30898365D01*
X183093130Y-30918695D01*
X183119546Y-30928232D01*
X183142771Y-30925049D01*
X183165920Y-30907213D01*
X183192109Y-30872797D01*
X183224452Y-30819870D01*
X183244925Y-30784059D01*
X183319212Y-30658560D01*
X183399683Y-30533053D01*
X183483446Y-30411507D01*
X183567611Y-30297893D01*
X183649287Y-30196180D01*
X183725583Y-30110337D01*
X183763273Y-30072225D01*
X183806979Y-30032795D01*
X183860913Y-29988009D01*
X183915307Y-29945897D01*
X183930160Y-29935052D01*
X183971713Y-29907528D01*
X184024547Y-29875894D01*
X184084286Y-29842399D01*
X184146552Y-29809295D01*
X184206969Y-29778829D01*
X184261160Y-29753254D01*
X184304747Y-29734818D01*
X184333353Y-29725771D01*
X184338369Y-29725224D01*
X184357789Y-29733334D01*
X184389996Y-29755384D01*
X184431114Y-29787951D01*
X184477267Y-29827615D01*
X184524578Y-29870955D01*
X184569169Y-29914548D01*
X184607165Y-29954974D01*
X184630332Y-29982898D01*
X184692702Y-30078752D01*
X184748917Y-30191605D01*
X184796110Y-30314617D01*
X184831412Y-30440949D01*
X184840161Y-30483254D01*
X184848258Y-30546571D01*
X184852920Y-30626785D01*
X184854229Y-30716986D01*
X184852268Y-30810266D01*
X184847119Y-30899715D01*
X184838865Y-30978423D01*
X184833881Y-31010044D01*
X184785484Y-31229785D01*
X184720159Y-31452724D01*
X184640799Y-31669942D01*
X184561827Y-31848910D01*
X184534954Y-31905336D01*
X184511295Y-31956312D01*
X184493191Y-31996705D01*
X184482984Y-32021377D01*
X184482288Y-32023377D01*
X184478932Y-32045158D01*
X184475948Y-32086292D01*
X184473553Y-32142069D01*
X184471966Y-32207780D01*
X184471448Y-32258005D01*
X184470684Y-32333190D01*
X184469090Y-32425210D01*
X184466828Y-32526860D01*
X184464064Y-32630930D01*
X184460961Y-32730213D01*
X184460172Y-32752863D01*
X184457022Y-32845876D01*
X184455085Y-32918374D01*
X184454465Y-32973881D01*
X184455268Y-33015920D01*
X184457600Y-33048016D01*
X184461565Y-33073693D01*
X184467270Y-33096474D01*
X184470787Y-33107813D01*
X184499707Y-33173640D01*
X184538946Y-33220693D01*
X184576891Y-33246098D01*
X184602003Y-33265673D01*
X184607575Y-33290148D01*
X184593377Y-33322473D01*
X184568350Y-33355127D01*
X184528760Y-33393958D01*
X184485211Y-33418745D01*
X184428696Y-33434275D01*
X184414802Y-33436732D01*
X184372559Y-33452951D01*
X184343564Y-33482418D01*
X184333239Y-33518317D01*
X184341005Y-33538408D01*
X184361106Y-33568077D01*
X184382214Y-33593105D01*
X184431189Y-33646236D01*
X184388869Y-33712393D01*
X184357833Y-33756519D01*
X184327480Y-33786449D01*
X184289617Y-33808475D01*
X184238064Y-33828209D01*
X184199792Y-33846537D01*
X184168089Y-33870608D01*
X184160986Y-33878712D01*
X184147065Y-33899616D01*
X184143118Y-33917287D01*
X184148790Y-33941297D01*
X184157767Y-33965622D01*
X184176901Y-34004314D01*
X184205550Y-34049697D01*
X184231837Y-34084788D01*
X184264305Y-34129409D01*
X184282403Y-34169051D01*
X184284928Y-34205418D01*
X184270680Y-34240217D01*
X184238457Y-34275155D01*
X184187058Y-34311938D01*
X184115281Y-34352271D01*
X184021925Y-34397862D01*
X184006284Y-34405122D01*
X183943978Y-34438630D01*
X183900574Y-34475365D01*
X183871073Y-34521354D01*
X183850478Y-34582626D01*
X183846990Y-34597238D01*
X183836567Y-34660519D01*
X183839803Y-34709101D01*
X183859158Y-34747829D01*
X183897094Y-34781547D01*
X183956070Y-34815098D01*
X183958202Y-34816158D01*
X183990249Y-34834662D01*
X184012085Y-34852112D01*
X184016659Y-34858550D01*
X184015415Y-34878179D01*
X184005288Y-34910302D01*
X183995848Y-34932208D01*
X183978156Y-34978537D01*
X183965587Y-35027945D01*
X183963067Y-35045077D01*
X183961131Y-35080697D01*
X183967068Y-35102585D01*
X183984635Y-35120722D01*
X183994355Y-35128125D01*
X184022420Y-35151584D01*
X184034830Y-35172425D01*
X184031037Y-35195543D01*
X184010492Y-35225834D01*
X183979457Y-35260865D01*
X183947092Y-35299254D01*
X183921364Y-35336109D01*
X183907145Y-35364329D01*
X183906262Y-35367571D01*
X183904922Y-35398282D01*
X183909371Y-35443833D01*
X183918794Y-35495922D01*
X183918954Y-35496645D01*
X183932874Y-35595427D01*
X183935326Y-35711732D01*
X183926662Y-35842123D01*
X183907237Y-35983164D01*
X183877405Y-36131417D01*
X183838137Y-36281336D01*
X183803177Y-36392936D01*
X183768604Y-36485320D01*
X183732205Y-36563194D01*
X183691762Y-36631263D01*
X183645062Y-36694235D01*
X183642065Y-36697891D01*
X183597623Y-36755701D01*
X183560252Y-36811803D01*
X183532588Y-36861682D01*
X183517265Y-36900820D01*
X183515049Y-36915616D01*
X183522916Y-36932744D01*
X183543997Y-36961910D01*
X183574507Y-36998120D01*
X183591881Y-37017056D01*
X183653195Y-37092820D01*
X183690980Y-37165824D01*
X183705443Y-37237261D01*
X183696793Y-37308323D01*
X183665236Y-37380203D01*
X183657439Y-37392854D01*
X183612184Y-37448502D01*
X183552071Y-37501848D01*
X183485817Y-37545749D01*
X183448871Y-37563717D01*
X183409089Y-37575628D01*
X183351643Y-37587069D01*
X183282931Y-37597316D01*
X183209353Y-37605645D01*
X183137308Y-37611334D01*
X183073193Y-37613660D01*
X183023409Y-37611897D01*
X183023011Y-37611857D01*
X182973072Y-37604808D01*
X182924856Y-37594814D01*
X182898168Y-37587132D01*
X182834519Y-37571960D01*
X182782057Y-37576180D01*
X182744603Y-37594564D01*
X182689005Y-37627865D01*
X182619175Y-37660588D01*
X182544696Y-37688706D01*
X182475153Y-37708191D01*
X182473209Y-37708608D01*
X182429826Y-37714846D01*
X182368820Y-37719730D01*
X182296601Y-37723122D01*
X182219578Y-37724889D01*
X182144161Y-37724894D01*
X182076761Y-37723002D01*
X182023787Y-37719077D01*
X182017038Y-37718246D01*
X181974015Y-37709199D01*
X181917893Y-37692910D01*
X181857393Y-37672283D01*
X181801236Y-37650224D01*
X181770378Y-37636087D01*
X181725427Y-37615880D01*
X181678396Y-37598018D01*
X181664953Y-37593699D01*
X181627663Y-37580789D01*
X181605037Y-37565683D01*
X181594674Y-37543072D01*
X181594172Y-37507643D01*
X181601133Y-37454086D01*
X181601313Y-37452915D01*
X181608346Y-37379708D01*
X181605823Y-37306211D01*
X181592987Y-37226424D01*
X181569083Y-37134346D01*
X181555749Y-37091153D01*
X181539601Y-37041886D01*
X181527652Y-37011309D01*
X181517008Y-36995114D01*
X181504775Y-36988994D01*
X181488060Y-36988644D01*
X181486922Y-36988708D01*
X181459340Y-36990822D01*
X181412141Y-36994992D01*
X181349644Y-37000795D01*
X181276167Y-37007807D01*
X181196030Y-37015602D01*
X181113552Y-37023757D01*
X181033051Y-37031847D01*
X180958847Y-37039448D01*
X180895258Y-37046135D01*
X180846603Y-37051483D01*
X180837881Y-37052491D01*
X180793207Y-37056852D01*
X180729838Y-37061842D01*
X180653125Y-37067099D01*
X180568417Y-37072265D01*
X180481064Y-37076980D01*
X180452851Y-37078363D01*
X180376454Y-37081759D01*
X180307452Y-37084137D01*
X180242396Y-37085396D01*
X180177841Y-37085437D01*
X180110341Y-37084158D01*
X180036450Y-37081461D01*
X179952721Y-37077244D01*
X179855709Y-37071408D01*
X179741967Y-37063854D01*
X179608049Y-37054479D01*
X179592547Y-37053376D01*
X179523162Y-37048789D01*
X179439354Y-37043795D01*
X179350745Y-37038938D01*
X179266957Y-37034763D01*
X179250981Y-37034029D01*
X179059818Y-37025397D01*
X179070498Y-37072208D01*
X179080021Y-37137919D01*
X179081316Y-37208581D01*
X179074894Y-37276022D01*
X179061267Y-37332074D01*
X179053060Y-37351138D01*
X179001496Y-37427188D01*
X178933309Y-37489156D01*
X178847538Y-37537526D01*
X178743222Y-37572783D01*
X178619400Y-37595412D01*
X178556494Y-37601648D01*
X178478116Y-37602197D01*
X178384001Y-37593923D01*
X178280425Y-37577721D01*
X178173665Y-37554489D01*
X178113859Y-37538463D01*
X178051470Y-37509626D01*
X177991579Y-37462144D01*
X177939862Y-37401228D01*
X177911046Y-37352329D01*
X177890962Y-37301870D01*
X177888676Y-37281879D01*
X178068544Y-37281879D01*
X178072436Y-37301582D01*
X178089701Y-37324153D01*
X178101425Y-37336498D01*
X178141037Y-37365811D01*
X178199992Y-37394263D01*
X178273572Y-37420436D01*
X178357063Y-37442911D01*
X178445748Y-37460269D01*
X178534911Y-37471092D01*
X178553090Y-37472391D01*
X178580431Y-37471743D01*
X178619008Y-37468242D01*
X178634307Y-37466317D01*
X178672593Y-37457590D01*
X178689488Y-37445248D01*
X178690131Y-37441955D01*
X178679653Y-37423491D01*
X178653362Y-37412205D01*
X178618970Y-37410217D01*
X178594073Y-37415541D01*
X178556834Y-37419965D01*
X178531645Y-37407498D01*
X178521748Y-37383645D01*
X178530388Y-37353910D01*
X178546538Y-37334881D01*
X178582449Y-37317861D01*
X178633720Y-37315707D01*
X178696964Y-37328197D01*
X178753905Y-37348582D01*
X178808002Y-37369967D01*
X178844369Y-37380115D01*
X178866449Y-37379225D01*
X178877684Y-37367498D01*
X178880567Y-37355959D01*
X178875178Y-37316633D01*
X178848912Y-37283488D01*
X178804463Y-37257867D01*
X178744527Y-37241116D01*
X178671801Y-37234580D01*
X178638454Y-37235186D01*
X178551761Y-37239341D01*
X178547928Y-37205983D01*
X178554543Y-37176213D01*
X178582491Y-37155016D01*
X178632163Y-37142249D01*
X178703954Y-37137773D01*
X178737152Y-37138217D01*
X178791801Y-37138724D01*
X178824349Y-37135087D01*
X178836649Y-37125467D01*
X178830555Y-37108019D01*
X178807919Y-37080904D01*
X178801587Y-37074176D01*
X178768585Y-37046464D01*
X178729564Y-37028779D01*
X178680672Y-37020624D01*
X178618060Y-37021503D01*
X178537876Y-37030918D01*
X178505703Y-37036013D01*
X178476080Y-37039886D01*
X178463816Y-37035432D01*
X178462604Y-37018673D01*
X178463591Y-37009448D01*
X178474005Y-36981026D01*
X178501218Y-36956900D01*
X178514396Y-36949031D01*
X178542476Y-36928943D01*
X178569777Y-36898813D01*
X178600156Y-36853932D01*
X178621026Y-36818726D01*
X178634832Y-36793984D01*
X178746105Y-36793984D01*
X178746936Y-36796944D01*
X178762267Y-36808597D01*
X178798869Y-36821705D01*
X178854023Y-36835797D01*
X178925013Y-36850404D01*
X179009121Y-36865054D01*
X179103630Y-36879277D01*
X179205822Y-36892601D01*
X179312981Y-36904557D01*
X179422389Y-36914673D01*
X179430112Y-36915304D01*
X179614509Y-36929855D01*
X179777895Y-36941834D01*
X179923176Y-36951320D01*
X180053259Y-36958391D01*
X180171053Y-36963125D01*
X180279462Y-36965601D01*
X180381396Y-36965895D01*
X180479759Y-36964088D01*
X180577459Y-36960256D01*
X180677404Y-36954478D01*
X180735607Y-36950409D01*
X180819970Y-36944030D01*
X180905218Y-36937291D01*
X180985088Y-36930708D01*
X181053316Y-36924796D01*
X181102590Y-36920178D01*
X181157596Y-36913189D01*
X181221445Y-36902764D01*
X181288890Y-36890027D01*
X181354683Y-36876102D01*
X181413576Y-36862114D01*
X181460322Y-36849186D01*
X181489673Y-36838444D01*
X181493282Y-36836481D01*
X181500342Y-36827011D01*
X181498384Y-36809250D01*
X181486280Y-36778423D01*
X181472872Y-36750007D01*
X181450679Y-36700241D01*
X181426491Y-36639569D01*
X181405129Y-36580160D01*
X181402942Y-36573562D01*
X181386338Y-36527712D01*
X181370189Y-36491266D01*
X181357140Y-36469923D01*
X181353380Y-36466890D01*
X181336175Y-36471914D01*
X181309628Y-36493162D01*
X181288317Y-36515429D01*
X181227818Y-36572756D01*
X181150128Y-36628940D01*
X181061908Y-36679626D01*
X180982248Y-36715672D01*
X180931148Y-36737975D01*
X180882973Y-36762668D01*
X180846708Y-36785070D01*
X180841595Y-36788928D01*
X180803881Y-36812291D01*
X180767947Y-36823474D01*
X180740107Y-36821148D01*
X180729756Y-36812464D01*
X180728886Y-36795152D01*
X180734442Y-36763286D01*
X180741078Y-36738087D01*
X180751717Y-36692461D01*
X180757851Y-36645957D01*
X180759324Y-36604438D01*
X180755977Y-36573768D01*
X180747654Y-36559811D01*
X180745871Y-36559521D01*
X180729247Y-36566559D01*
X180701752Y-36584575D01*
X180682702Y-36599060D01*
X180634004Y-36636310D01*
X180591857Y-36663182D01*
X180546948Y-36684697D01*
X180489961Y-36705876D01*
X180475431Y-36710804D01*
X180433531Y-36723818D01*
X180394420Y-36732931D01*
X180351814Y-36738962D01*
X180299431Y-36742730D01*
X180230988Y-36745051D01*
X180208658Y-36745542D01*
X180034815Y-36749084D01*
X179997674Y-36715899D01*
X179960533Y-36682713D01*
X179999136Y-36638747D01*
X180025888Y-36604760D01*
X180037704Y-36581540D01*
X180033328Y-36571711D01*
X180031361Y-36571553D01*
X180017807Y-36575881D01*
X179988634Y-36587192D01*
X179952753Y-36601954D01*
X179885350Y-36628510D01*
X179821746Y-36649003D01*
X179757250Y-36664151D01*
X179687169Y-36674673D01*
X179606810Y-36681287D01*
X179511482Y-36684711D01*
X179406048Y-36685662D01*
X179317429Y-36685538D01*
X179248800Y-36684810D01*
X179196087Y-36683165D01*
X179155218Y-36680292D01*
X179122119Y-36675877D01*
X179092718Y-36669611D01*
X179062941Y-36661179D01*
X179055246Y-36658786D01*
X178976499Y-36638528D01*
X178912986Y-36633258D01*
X178860705Y-36643505D01*
X178815655Y-36669795D01*
X178790199Y-36693740D01*
X178764805Y-36728467D01*
X178748904Y-36764751D01*
X178746105Y-36793984D01*
X178634832Y-36793984D01*
X178645727Y-36774458D01*
X178664434Y-36738517D01*
X178674803Y-36715556D01*
X178675932Y-36709762D01*
X178663337Y-36711758D01*
X178636013Y-36722036D01*
X178611415Y-36733010D01*
X178537318Y-36780800D01*
X178478798Y-36846867D01*
X178449282Y-36899431D01*
X178431148Y-36934010D01*
X178414763Y-36951198D01*
X178394391Y-36956475D01*
X178389474Y-36956584D01*
X178355209Y-36949307D01*
X178335154Y-36925359D01*
X178327222Y-36891334D01*
X178319605Y-36860689D01*
X178306958Y-36852637D01*
X178289919Y-36866384D01*
X178269127Y-36901138D01*
X178245221Y-36956104D01*
X178221385Y-37022761D01*
X178205773Y-37061566D01*
X178186461Y-37085734D01*
X178155816Y-37104368D01*
X178151034Y-37106656D01*
X178118091Y-37125251D01*
X178101340Y-37145626D01*
X178094222Y-37172833D01*
X178085601Y-37215944D01*
X178074922Y-37255569D01*
X178068544Y-37281879D01*
X177888676Y-37281879D01*
X177885888Y-37257489D01*
X177896070Y-37210611D01*
G37*
G36*
X181948975Y-33777955D02*
G01*
X181910798Y-33767937D01*
X181853694Y-33758109D01*
X181842571Y-33756421D01*
X181759365Y-33739700D01*
X181693106Y-33715280D01*
X181637008Y-33679449D01*
X181584285Y-33628497D01*
X181562992Y-33603505D01*
X181508883Y-33529990D01*
X181473297Y-33464938D01*
X181456563Y-33409555D01*
X181459012Y-33365047D01*
X181480974Y-33332619D01*
X181487528Y-33327826D01*
X181519687Y-33313385D01*
X181540936Y-33319931D01*
X181551896Y-33347928D01*
X181553798Y-33377102D01*
X181565439Y-33447564D01*
X181599842Y-33511596D01*
X181656231Y-33567760D01*
X181657552Y-33568774D01*
X181754756Y-33629709D01*
X181856895Y-33667368D01*
X181965325Y-33682076D01*
X182081403Y-33674159D01*
X182090395Y-33672672D01*
X182173088Y-33650342D01*
X182236869Y-33614546D01*
X182283386Y-33564325D01*
X182287492Y-33557922D01*
X182306557Y-33518071D01*
X182307270Y-33485905D01*
X182288056Y-33457968D01*
X182247341Y-33430802D01*
X182224329Y-33419208D01*
X182150618Y-33377209D01*
X182085279Y-33326889D01*
X182033892Y-33273030D01*
X182008454Y-33234333D01*
X181992206Y-33189398D01*
X181981139Y-33131934D01*
X181975714Y-33069686D01*
X181976164Y-33030369D01*
X182064099Y-33030369D01*
X182064774Y-33081448D01*
X182086300Y-33139112D01*
X182128845Y-33201728D01*
X182154666Y-33230848D01*
X182203892Y-33279163D01*
X182247820Y-33312798D01*
X182294530Y-33337075D01*
X182341908Y-33354154D01*
X182396508Y-33367491D01*
X182444098Y-33368079D01*
X182496931Y-33356415D01*
X182536879Y-33336820D01*
X182583448Y-33302118D01*
X182630825Y-33257806D01*
X182673198Y-33209380D01*
X182704757Y-33162340D01*
X182707389Y-33157348D01*
X182723375Y-33117009D01*
X182732289Y-33077036D01*
X182732955Y-33066507D01*
X182727049Y-33032258D01*
X182708029Y-33004378D01*
X182673937Y-32982102D01*
X182622817Y-32964662D01*
X182552713Y-32951292D01*
X182461668Y-32941225D01*
X182402069Y-32936826D01*
X182335636Y-32933215D01*
X182275082Y-32931135D01*
X182225724Y-32930681D01*
X182192883Y-32931948D01*
X182185489Y-32932974D01*
X182124626Y-32954498D01*
X182084106Y-32987508D01*
X182064099Y-33030369D01*
X181976164Y-33030369D01*
X181976392Y-33010399D01*
X181983635Y-32961815D01*
X181991012Y-32941618D01*
X182020860Y-32908026D01*
X182072288Y-32878745D01*
X182143031Y-32854834D01*
X182205252Y-32841433D01*
X182249753Y-32837049D01*
X182311640Y-32835457D01*
X182384803Y-32836357D01*
X182463129Y-32839449D01*
X182540507Y-32844433D01*
X182610826Y-32851008D01*
X182667974Y-32858874D01*
X182699492Y-32865717D01*
X182755743Y-32891495D01*
X182800181Y-32930678D01*
X182827026Y-32978013D01*
X182828504Y-32982932D01*
X182833640Y-33011457D01*
X182831537Y-33041535D01*
X182821131Y-33081203D01*
X182811802Y-33109105D01*
X182774992Y-33192774D01*
X182724618Y-33267627D01*
X182657685Y-33337070D01*
X182571198Y-33404510D01*
X182525399Y-33434923D01*
X182480926Y-33467165D01*
X182458835Y-33495476D01*
X182458767Y-33523797D01*
X182480362Y-33556065D01*
X182511597Y-33586141D01*
X182577505Y-33631684D01*
X182655815Y-33666066D01*
X182739932Y-33687774D01*
X182823263Y-33695298D01*
X182899213Y-33687127D01*
X182922696Y-33680327D01*
X182997909Y-33646701D01*
X183076106Y-33599150D01*
X183147293Y-33544015D01*
X183168403Y-33524395D01*
X183200037Y-33495436D01*
X183226599Y-33474874D01*
X183242076Y-33467242D01*
X183267158Y-33477662D01*
X183283879Y-33502471D01*
X183286436Y-33517498D01*
X183276138Y-33538751D01*
X183247440Y-33567841D01*
X183203639Y-33602192D01*
X183148031Y-33639228D01*
X183083912Y-33676374D01*
X183081254Y-33677806D01*
X183044106Y-33699154D01*
X183008587Y-33723134D01*
X182971679Y-33752435D01*
X182930365Y-33789749D01*
X182881629Y-33837767D01*
X182822454Y-33899179D01*
X182767712Y-33957464D01*
X182697394Y-34025495D01*
X182629950Y-34073604D01*
X182559941Y-34104452D01*
X182481931Y-34120700D01*
X182426133Y-34124640D01*
X182371189Y-34124867D01*
X182319808Y-34122595D01*
X182280802Y-34118287D01*
X182272332Y-34116544D01*
X182189272Y-34084022D01*
X182115443Y-34032332D01*
X182054768Y-33965500D01*
X182011173Y-33887550D01*
X181993331Y-33830446D01*
X181985903Y-33807079D01*
X181981096Y-33801030D01*
X182077387Y-33801030D01*
X182083529Y-33829304D01*
X182114405Y-33894684D01*
X182166320Y-33953416D01*
X182236622Y-34003082D01*
X182311914Y-34037488D01*
X182376729Y-34051614D01*
X182451068Y-34053255D01*
X182524647Y-34043028D01*
X182587181Y-34021552D01*
X182588568Y-34020849D01*
X182626030Y-33997491D01*
X182668460Y-33964601D01*
X182711533Y-33926397D01*
X182750930Y-33887096D01*
X182782327Y-33850918D01*
X182801402Y-33822079D01*
X182805148Y-33809474D01*
X182799720Y-33787602D01*
X182780808Y-33774653D01*
X182744470Y-33768846D01*
X182713543Y-33768048D01*
X182647352Y-33760504D01*
X182578650Y-33739874D01*
X182513085Y-33709160D01*
X182456309Y-33671361D01*
X182413969Y-33629480D01*
X182395944Y-33599333D01*
X182381200Y-33563740D01*
X182345679Y-33608437D01*
X182291140Y-33663901D01*
X182226130Y-33709520D01*
X182159095Y-33739630D01*
X182143638Y-33743920D01*
X182102116Y-33757098D01*
X182081187Y-33774496D01*
X182077387Y-33801030D01*
X181981096Y-33801030D01*
X181972564Y-33790292D01*
X181948975Y-33777955D01*
G37*
G36*
X183275240Y-31747778D02*
G01*
X183347735Y-31774964D01*
X183428396Y-31822631D01*
X183467312Y-31850148D01*
X183502209Y-31878014D01*
X183527742Y-31902551D01*
X183538963Y-31918934D01*
X183539113Y-31920155D01*
X183531825Y-31939808D01*
X183513740Y-31967161D01*
X183507963Y-31974325D01*
X183477703Y-32000945D01*
X183444391Y-32009200D01*
X183403918Y-31999010D01*
X183353785Y-31971334D01*
X183315480Y-31949477D01*
X183279286Y-31937016D01*
X183234498Y-31930836D01*
X183209399Y-31929307D01*
X183160458Y-31928271D01*
X183124798Y-31932316D01*
X183091811Y-31943639D01*
X183057824Y-31960694D01*
X183005171Y-31983374D01*
X182966546Y-31987096D01*
X182941125Y-31971840D01*
X182933203Y-31957335D01*
X182931072Y-31934330D01*
X182943344Y-31907916D01*
X182972191Y-31874699D01*
X183006453Y-31842888D01*
X183076519Y-31788627D01*
X183142656Y-31754657D01*
X183207889Y-31741025D01*
X183275240Y-31747778D01*
G37*
G36*
X181552795Y-31862280D02*
G01*
X181601861Y-31882035D01*
X181654855Y-31910727D01*
X181704693Y-31944895D01*
X181713881Y-31952265D01*
X181742572Y-31979230D01*
X181755015Y-32002089D01*
X181755994Y-32026589D01*
X181748201Y-32059541D01*
X181731273Y-32075594D01*
X181702350Y-32075297D01*
X181658573Y-32059199D01*
X181637877Y-32049268D01*
X181595661Y-32030080D01*
X181558368Y-32016441D01*
X181534399Y-32011345D01*
X181511331Y-32016797D01*
X181474170Y-32031303D01*
X181429779Y-32052087D01*
X181415427Y-32059473D01*
X181373967Y-32081131D01*
X181341715Y-32097641D01*
X181323698Y-32106445D01*
X181321606Y-32107236D01*
X181310681Y-32101733D01*
X181298113Y-32094606D01*
X181280150Y-32072883D01*
X181280076Y-32042376D01*
X181294946Y-32006341D01*
X181321816Y-31968037D01*
X181357741Y-31930722D01*
X181399776Y-31897655D01*
X181444976Y-31872094D01*
X181490397Y-31857296D01*
X181514741Y-31854926D01*
X181552795Y-31862280D01*
G37*
G36*
X183402545Y-32331258D02*
G01*
X183484815Y-32341274D01*
X183551145Y-32357785D01*
X183632185Y-32388793D01*
X183690599Y-32417049D01*
X183727533Y-32443531D01*
X183744135Y-32469219D01*
X183741552Y-32495092D01*
X183731079Y-32511344D01*
X183716018Y-32523728D01*
X183695646Y-32527075D01*
X183665701Y-32520654D01*
X183621917Y-32503733D01*
X183581876Y-32485770D01*
X183499319Y-32452808D01*
X183413570Y-32427584D01*
X183333068Y-32412277D01*
X183282796Y-32408616D01*
X183213677Y-32415041D01*
X183136028Y-32432858D01*
X183060585Y-32459042D01*
X183003344Y-32487326D01*
X182956555Y-32513405D01*
X182923179Y-32525869D01*
X182897729Y-32526003D01*
X182877341Y-32516815D01*
X182866162Y-32506092D01*
X182868227Y-32490672D01*
X182877651Y-32472149D01*
X182913238Y-32430179D01*
X182971053Y-32393131D01*
X183051805Y-32360565D01*
X183063136Y-32356917D01*
X183134773Y-32340618D01*
X183220142Y-32330917D01*
X183311860Y-32327801D01*
X183402545Y-32331258D01*
G37*
M02*
