G04 #@! TF.GenerationSoftware,KiCad,Pcbnew,6.0.8-f2edbf62ab~116~ubuntu20.04.1*
G04 #@! TF.CreationDate,2022-10-17T13:25:48+07:00*
G04 #@! TF.ProjectId,IN-8,494e2d38-2e6b-4696-9361-645f70636258,rev?*
G04 #@! TF.SameCoordinates,Original*
G04 #@! TF.FileFunction,Copper,L2,Bot*
G04 #@! TF.FilePolarity,Positive*
%FSLAX46Y46*%
G04 Gerber Fmt 4.6, Leading zero omitted, Abs format (unit mm)*
G04 Created by KiCad (PCBNEW 6.0.8-f2edbf62ab~116~ubuntu20.04.1) date 2022-10-17 13:25:48*
%MOMM*%
%LPD*%
G01*
G04 APERTURE LIST*
G04 Aperture macros list*
%AMRoundRect*
0 Rectangle with rounded corners*
0 $1 Rounding radius*
0 $2 $3 $4 $5 $6 $7 $8 $9 X,Y pos of 4 corners*
0 Add a 4 corners polygon primitive as box body*
4,1,4,$2,$3,$4,$5,$6,$7,$8,$9,$2,$3,0*
0 Add four circle primitives for the rounded corners*
1,1,$1+$1,$2,$3*
1,1,$1+$1,$4,$5*
1,1,$1+$1,$6,$7*
1,1,$1+$1,$8,$9*
0 Add four rect primitives between the rounded corners*
20,1,$1+$1,$2,$3,$4,$5,0*
20,1,$1+$1,$4,$5,$6,$7,0*
20,1,$1+$1,$6,$7,$8,$9,0*
20,1,$1+$1,$8,$9,$2,$3,0*%
G04 Aperture macros list end*
G04 #@! TA.AperFunction,ComponentPad*
%ADD10RoundRect,0.325000X-0.325000X-1.675000X0.325000X-1.675000X0.325000X1.675000X-0.325000X1.675000X0*%
G04 #@! TD*
G04 #@! TA.AperFunction,ComponentPad*
%ADD11R,1.600000X1.600000*%
G04 #@! TD*
G04 #@! TA.AperFunction,ComponentPad*
%ADD12C,1.600000*%
G04 #@! TD*
G04 #@! TA.AperFunction,ComponentPad*
%ADD13R,1.800000X1.800000*%
G04 #@! TD*
G04 #@! TA.AperFunction,ComponentPad*
%ADD14C,1.800000*%
G04 #@! TD*
G04 #@! TA.AperFunction,ComponentPad*
%ADD15O,2.300000X1.300000*%
G04 #@! TD*
G04 #@! TA.AperFunction,ComponentPad*
%ADD16O,2.600000X1.300000*%
G04 #@! TD*
G04 #@! TA.AperFunction,ComponentPad*
%ADD17C,1.308000*%
G04 #@! TD*
G04 #@! TA.AperFunction,ComponentPad*
%ADD18C,2.600000*%
G04 #@! TD*
G04 #@! TA.AperFunction,ComponentPad*
%ADD19C,2.200000*%
G04 #@! TD*
G04 #@! TA.AperFunction,ComponentPad*
%ADD20C,1.700000*%
G04 #@! TD*
G04 #@! TA.AperFunction,ComponentPad*
%ADD21RoundRect,0.375000X-1.125000X0.375000X-1.125000X-0.375000X1.125000X-0.375000X1.125000X0.375000X0*%
G04 #@! TD*
G04 #@! TA.AperFunction,SMDPad,CuDef*
%ADD22RoundRect,0.250000X-0.450000X0.262500X-0.450000X-0.262500X0.450000X-0.262500X0.450000X0.262500X0*%
G04 #@! TD*
G04 #@! TA.AperFunction,SMDPad,CuDef*
%ADD23RoundRect,0.250000X0.450000X-0.262500X0.450000X0.262500X-0.450000X0.262500X-0.450000X-0.262500X0*%
G04 #@! TD*
G04 #@! TA.AperFunction,SMDPad,CuDef*
%ADD24RoundRect,0.500000X0.500000X1.500000X-0.500000X1.500000X-0.500000X-1.500000X0.500000X-1.500000X0*%
G04 #@! TD*
G04 #@! TA.AperFunction,SMDPad,CuDef*
%ADD25RoundRect,0.150000X-0.150000X0.587500X-0.150000X-0.587500X0.150000X-0.587500X0.150000X0.587500X0*%
G04 #@! TD*
G04 #@! TA.AperFunction,SMDPad,CuDef*
%ADD26RoundRect,0.150000X0.587500X0.150000X-0.587500X0.150000X-0.587500X-0.150000X0.587500X-0.150000X0*%
G04 #@! TD*
G04 #@! TA.AperFunction,SMDPad,CuDef*
%ADD27RoundRect,0.250000X0.262500X0.450000X-0.262500X0.450000X-0.262500X-0.450000X0.262500X-0.450000X0*%
G04 #@! TD*
G04 #@! TA.AperFunction,SMDPad,CuDef*
%ADD28RoundRect,0.150000X-0.587500X-0.150000X0.587500X-0.150000X0.587500X0.150000X-0.587500X0.150000X0*%
G04 #@! TD*
G04 #@! TA.AperFunction,SMDPad,CuDef*
%ADD29RoundRect,0.250000X-0.475000X0.250000X-0.475000X-0.250000X0.475000X-0.250000X0.475000X0.250000X0*%
G04 #@! TD*
G04 #@! TA.AperFunction,SMDPad,CuDef*
%ADD30RoundRect,0.250000X-0.250000X-0.475000X0.250000X-0.475000X0.250000X0.475000X-0.250000X0.475000X0*%
G04 #@! TD*
G04 #@! TA.AperFunction,SMDPad,CuDef*
%ADD31RoundRect,0.150000X0.825000X0.150000X-0.825000X0.150000X-0.825000X-0.150000X0.825000X-0.150000X0*%
G04 #@! TD*
G04 #@! TA.AperFunction,SMDPad,CuDef*
%ADD32R,2.200000X1.200000*%
G04 #@! TD*
G04 #@! TA.AperFunction,SMDPad,CuDef*
%ADD33R,6.400000X5.800000*%
G04 #@! TD*
G04 #@! TA.AperFunction,SMDPad,CuDef*
%ADD34R,1.600000X0.550000*%
G04 #@! TD*
G04 #@! TA.AperFunction,SMDPad,CuDef*
%ADD35R,0.550000X1.600000*%
G04 #@! TD*
G04 #@! TA.AperFunction,SMDPad,CuDef*
%ADD36RoundRect,0.042000X0.943000X0.258000X-0.943000X0.258000X-0.943000X-0.258000X0.943000X-0.258000X0*%
G04 #@! TD*
G04 #@! TA.AperFunction,SMDPad,CuDef*
%ADD37R,2.413000X3.302000*%
G04 #@! TD*
G04 #@! TA.AperFunction,SMDPad,CuDef*
%ADD38R,1.900000X0.400000*%
G04 #@! TD*
G04 #@! TA.AperFunction,ViaPad*
%ADD39C,0.800000*%
G04 #@! TD*
G04 #@! TA.AperFunction,Conductor*
%ADD40C,0.250000*%
G04 #@! TD*
G04 #@! TA.AperFunction,Conductor*
%ADD41C,0.500000*%
G04 #@! TD*
G04 #@! TA.AperFunction,Conductor*
%ADD42C,0.400000*%
G04 #@! TD*
G04 APERTURE END LIST*
D10*
X171060500Y-70480500D03*
D11*
X153917250Y-19273388D03*
D12*
X153917250Y-21273388D03*
D10*
X148660500Y-70480500D03*
X155060500Y-70480500D03*
X151860500Y-70480500D03*
D13*
X186260500Y-54680500D03*
D14*
X183720500Y-54680500D03*
D10*
X158260500Y-70480500D03*
X164660500Y-70480500D03*
X142260500Y-70480500D03*
X145460500Y-70480500D03*
X161460500Y-70480500D03*
D15*
X135511250Y-42560500D03*
D16*
X131686250Y-51200500D03*
X131686250Y-42560500D03*
D15*
X135511250Y-51200500D03*
D11*
X165855250Y-19273388D03*
D12*
X165855250Y-21273388D03*
D11*
X136772250Y-57058500D03*
D12*
X134272250Y-57058500D03*
D17*
X174060500Y-83777764D03*
X174810500Y-77527764D03*
X169060500Y-76277764D03*
X167310500Y-77527764D03*
X166560500Y-79527764D03*
X166810500Y-81777764D03*
X168060500Y-83777764D03*
X170060500Y-84777764D03*
X172060500Y-84777764D03*
X175310500Y-81777764D03*
X175560500Y-79527764D03*
X173060500Y-76277764D03*
D10*
X174260500Y-70480500D03*
D18*
X135629250Y-35468500D03*
X135629250Y-38468500D03*
D19*
X184460500Y-50430500D03*
X184460500Y-43430500D03*
D20*
X186960500Y-44680500D03*
X186960500Y-49180500D03*
D13*
X186260500Y-39080500D03*
D14*
X183720500Y-39080500D03*
D21*
X175634250Y-23022500D03*
D17*
X151660500Y-83777764D03*
X152410500Y-77527764D03*
X146660500Y-76277764D03*
X144910500Y-77527764D03*
X144160500Y-79527764D03*
X144410500Y-81777764D03*
X145660500Y-83777764D03*
X147660500Y-84777764D03*
X149660500Y-84777764D03*
X152910500Y-81777764D03*
X153160500Y-79527764D03*
X150660500Y-76277764D03*
D21*
X175634250Y-25308500D03*
D10*
X177460500Y-70480500D03*
X167860500Y-70480500D03*
D22*
X172260500Y-53568000D03*
X172260500Y-55393000D03*
D23*
X171060500Y-66993000D03*
X171060500Y-65168000D03*
D24*
X164260500Y-38280500D03*
D22*
X181603250Y-38112000D03*
X181603250Y-39937000D03*
X157260500Y-61368000D03*
X157260500Y-63193000D03*
D24*
X159460500Y-38280500D03*
D22*
X173060500Y-61368000D03*
X173060500Y-63193000D03*
D25*
X153710500Y-64943000D03*
X155610500Y-64943000D03*
X154660500Y-66818000D03*
D26*
X170198000Y-56930500D03*
X170198000Y-58830500D03*
X168323000Y-57880500D03*
D25*
X157110500Y-64943000D03*
X159010500Y-64943000D03*
X158060500Y-66818000D03*
D22*
X167460500Y-61368000D03*
X167460500Y-63193000D03*
D26*
X147798000Y-56930500D03*
X147798000Y-58830500D03*
X145923000Y-57880500D03*
D25*
X141260500Y-64880500D03*
X143160500Y-64880500D03*
X142210500Y-66755500D03*
D27*
X159173000Y-35080500D03*
X157348000Y-35080500D03*
D28*
X168323000Y-55430500D03*
X168323000Y-53530500D03*
X170198000Y-54480500D03*
D22*
X164060500Y-61368000D03*
X164060500Y-63193000D03*
D25*
X167310500Y-64943000D03*
X169210500Y-64943000D03*
X168260500Y-66818000D03*
X176310500Y-64943000D03*
X178210500Y-64943000D03*
X177260500Y-66818000D03*
D22*
X144810500Y-61305500D03*
X144810500Y-63130500D03*
D23*
X181603250Y-55558000D03*
X181603250Y-53733000D03*
D25*
X172910500Y-64943000D03*
X174810500Y-64943000D03*
X173860500Y-66818000D03*
D22*
X143860500Y-53568000D03*
X143860500Y-55393000D03*
D25*
X160510500Y-64943000D03*
X162410500Y-64943000D03*
X161460500Y-66818000D03*
D27*
X144923750Y-41437500D03*
X143098750Y-41437500D03*
D23*
X157854250Y-21291500D03*
X157854250Y-19466500D03*
D24*
X166660500Y-38280500D03*
D22*
X149860500Y-53568000D03*
X149860500Y-55393000D03*
D29*
X150260500Y-45330500D03*
X150260500Y-47230500D03*
D23*
X171860500Y-40193000D03*
X171860500Y-38368000D03*
D30*
X164510500Y-35080500D03*
X166410500Y-35080500D03*
D22*
X171860500Y-41968000D03*
X171860500Y-43793000D03*
D25*
X163910500Y-64943000D03*
X165810500Y-64943000D03*
X164860500Y-66818000D03*
D22*
X176460500Y-61368000D03*
X176460500Y-63193000D03*
D31*
X179135500Y-39175500D03*
X179135500Y-40445500D03*
X179135500Y-41715500D03*
X179135500Y-42985500D03*
X174185500Y-42985500D03*
X174185500Y-41715500D03*
X174185500Y-40445500D03*
X174185500Y-39175500D03*
D22*
X183860500Y-45968000D03*
X183860500Y-47793000D03*
X172260500Y-56968000D03*
X172260500Y-58793000D03*
D32*
X143113250Y-39399500D03*
D33*
X149413250Y-37119500D03*
D32*
X143113250Y-34839500D03*
D22*
X153860500Y-61368000D03*
X153860500Y-63193000D03*
D23*
X148460500Y-66993000D03*
X148460500Y-65168000D03*
D28*
X145923000Y-55430500D03*
X145923000Y-53530500D03*
X147798000Y-54480500D03*
D34*
X160712000Y-44080500D03*
X160712000Y-44880500D03*
X160712000Y-45680500D03*
X160712000Y-46480500D03*
X160712000Y-47280500D03*
X160712000Y-48080500D03*
X160712000Y-48880500D03*
X160712000Y-49680500D03*
D35*
X159262000Y-51130500D03*
X158462000Y-51130500D03*
X157662000Y-51130500D03*
X156862000Y-51130500D03*
X156062000Y-51130500D03*
X155262000Y-51130500D03*
X154462000Y-51130500D03*
X153662000Y-51130500D03*
D34*
X152212000Y-49680500D03*
X152212000Y-48880500D03*
X152212000Y-48080500D03*
X152212000Y-47280500D03*
X152212000Y-46480500D03*
X152212000Y-45680500D03*
X152212000Y-44880500D03*
X152212000Y-44080500D03*
D35*
X153662000Y-42630500D03*
X154462000Y-42630500D03*
X155262000Y-42630500D03*
X156062000Y-42630500D03*
X156862000Y-42630500D03*
X157662000Y-42630500D03*
X158462000Y-42630500D03*
X159262000Y-42630500D03*
D24*
X157060500Y-38280500D03*
D36*
X162335500Y-27175500D03*
X162335500Y-28445500D03*
X162335500Y-29715500D03*
X162335500Y-30985500D03*
X157385500Y-30985500D03*
X157385500Y-29715500D03*
X157385500Y-28445500D03*
X157385500Y-27175500D03*
D37*
X159860500Y-29080500D03*
D38*
X163495452Y-51280500D03*
X163495452Y-50080500D03*
X163495452Y-48880500D03*
D22*
X150460500Y-61368000D03*
X150460500Y-63193000D03*
X149860500Y-56968000D03*
X149860500Y-58793000D03*
D29*
X163823250Y-19278500D03*
X163823250Y-21178500D03*
D22*
X160660500Y-61368000D03*
X160660500Y-63193000D03*
X166260500Y-53568000D03*
X166260500Y-55393000D03*
X164660500Y-27480500D03*
X164660500Y-29305500D03*
D25*
X150310500Y-64943000D03*
X152210500Y-64943000D03*
X151260500Y-66818000D03*
D29*
X155949250Y-19344500D03*
X155949250Y-21244500D03*
D22*
X141610500Y-61305500D03*
X141610500Y-63130500D03*
D25*
X144660500Y-64880500D03*
X146560500Y-64880500D03*
X145610500Y-66755500D03*
D24*
X161860500Y-38280500D03*
D39*
X146170250Y-41437500D03*
X156088424Y-49717627D03*
X154060500Y-45680500D03*
X163860500Y-30980500D03*
X159835255Y-26681146D03*
X140836250Y-58455500D03*
X147660500Y-53280500D03*
X158660500Y-45280500D03*
X141090250Y-40040500D03*
X158578750Y-23657500D03*
X169660500Y-44880500D03*
X159886250Y-31912500D03*
X170060500Y-53280500D03*
X135883250Y-32293500D03*
X138042250Y-32293500D03*
X155060500Y-44280500D03*
X163260500Y-44280500D03*
X181460500Y-47280500D03*
X157460500Y-48880500D03*
X156918760Y-22251101D03*
X168260500Y-46880500D03*
X156457250Y-31023500D03*
X156965250Y-23781000D03*
X162553250Y-19339500D03*
X149860500Y-60080500D03*
X172260500Y-60080500D03*
X148460500Y-63080500D03*
X148460500Y-61480500D03*
X171060500Y-61480500D03*
X171060500Y-63080500D03*
X170260500Y-40280500D03*
X156060500Y-41080500D03*
X155060500Y-41080500D03*
X170260500Y-41280500D03*
X156457250Y-29753500D03*
X156457250Y-28483500D03*
X181460500Y-46280500D03*
X157460500Y-45280500D03*
D40*
X173860500Y-70080500D02*
X174260500Y-70480500D01*
X174260500Y-68080500D02*
X174260500Y-70480500D01*
X173860500Y-66818000D02*
X173860500Y-67680500D01*
X173860500Y-67680500D02*
X174260500Y-68080500D01*
X151273248Y-77280500D02*
X152275984Y-76277764D01*
X147663236Y-77280500D02*
X151273248Y-77280500D01*
X146660500Y-76277764D02*
X147663236Y-77280500D01*
X146660500Y-76277764D02*
X145460500Y-75077764D01*
X152275984Y-76277764D02*
X169060500Y-76277764D01*
X145610500Y-70330500D02*
X145460500Y-70480500D01*
X145460500Y-75077764D02*
X145460500Y-70480500D01*
X145610500Y-66755500D02*
X145610500Y-70330500D01*
X145660500Y-70280500D02*
X145460500Y-70480500D01*
X142907764Y-77527764D02*
X142260500Y-76880500D01*
X154013236Y-77527764D02*
X153034236Y-78506764D01*
X142260500Y-76880500D02*
X142260500Y-70480500D01*
X144910500Y-77527764D02*
X142907764Y-77527764D01*
X144910500Y-77527764D02*
X145889500Y-78506764D01*
X167310500Y-77527764D02*
X154013236Y-77527764D01*
X145889500Y-78506764D02*
X153034236Y-78506764D01*
X142210500Y-70430500D02*
X142260500Y-70480500D01*
X142210500Y-66755500D02*
X142210500Y-70430500D01*
X151307764Y-79527764D02*
X152578764Y-80798764D01*
X151260500Y-66818000D02*
X151260500Y-67680500D01*
X151660500Y-67880500D02*
X151860500Y-68080500D01*
X152578764Y-80798764D02*
X154342236Y-80798764D01*
X151860500Y-68080500D02*
X151860500Y-70480500D01*
X166560500Y-79527764D02*
X155613236Y-79527764D01*
X155613236Y-79527764D02*
X154342236Y-80798764D01*
X151460500Y-67880500D02*
X151660500Y-67880500D01*
X144160500Y-79527764D02*
X151307764Y-79527764D01*
X151260500Y-67680500D02*
X151460500Y-67880500D01*
X154660500Y-67480500D02*
X155060500Y-67880500D01*
X144410500Y-81777764D02*
X151157764Y-81777764D01*
X154660500Y-66818000D02*
X154660500Y-67480500D01*
X152260500Y-82880500D02*
X153660500Y-82880500D01*
X154763236Y-81777764D02*
X153660500Y-82880500D01*
X166810500Y-81777764D02*
X154763236Y-81777764D01*
X151157764Y-81777764D02*
X152260500Y-82880500D01*
X155060500Y-67880500D02*
X155060500Y-70480500D01*
X154660500Y-70080500D02*
X155060500Y-70480500D01*
X158060500Y-66818000D02*
X158060500Y-70280500D01*
X145660500Y-83777764D02*
X150157764Y-83777764D01*
X150157764Y-83777764D02*
X151460500Y-85080500D01*
X153763236Y-83777764D02*
X152460500Y-85080500D01*
X158060500Y-70280500D02*
X158260500Y-70480500D01*
X168060500Y-83777764D02*
X153763236Y-83777764D01*
X151460500Y-85080500D02*
X152460500Y-85080500D01*
X161460500Y-66818000D02*
X161460500Y-70480500D01*
X170660500Y-75280500D02*
X170260500Y-74880500D01*
X161460500Y-74480500D02*
X161460500Y-70480500D01*
X148963236Y-86080500D02*
X168757764Y-86080500D01*
X168757764Y-86080500D02*
X170060500Y-84777764D01*
X170660500Y-81880500D02*
X170660500Y-75280500D01*
X170060500Y-82480500D02*
X170660500Y-81880500D01*
X170060500Y-84777764D02*
X170060500Y-82480500D01*
X161860500Y-74880500D02*
X161460500Y-74480500D01*
X147660500Y-84777764D02*
X148963236Y-86080500D01*
X170260500Y-74880500D02*
X161860500Y-74880500D01*
X172060500Y-84777764D02*
X172060500Y-82680500D01*
X164860500Y-70280500D02*
X164660500Y-70480500D01*
X165060500Y-74080500D02*
X164660500Y-73680500D01*
X164660500Y-73680500D02*
X164660500Y-70480500D01*
X171260500Y-81880500D02*
X171260500Y-74480500D01*
X171260500Y-74480500D02*
X170860500Y-74080500D01*
X172060500Y-82680500D02*
X171260500Y-81880500D01*
X164860500Y-66818000D02*
X164860500Y-70280500D01*
X170860500Y-74080500D02*
X165060500Y-74080500D01*
X172357764Y-81777764D02*
X171860500Y-81280500D01*
X168260500Y-73480500D02*
X167860500Y-73080500D01*
X168260500Y-66818000D02*
X168260500Y-67680500D01*
X171460500Y-73480500D02*
X168260500Y-73480500D01*
X171860500Y-81280500D02*
X171860500Y-73880500D01*
X167860500Y-73080500D02*
X167860500Y-70480500D01*
X167860500Y-68080500D02*
X167860500Y-70480500D01*
X171860500Y-73880500D02*
X171460500Y-73480500D01*
X175310500Y-81777764D02*
X172357764Y-81777764D01*
X168260500Y-67680500D02*
X167860500Y-68080500D01*
X177260500Y-70280500D02*
X177460500Y-70480500D01*
X177260500Y-66818000D02*
X177260500Y-70280500D01*
X148460500Y-70280500D02*
X148660500Y-70480500D01*
X149057764Y-76277764D02*
X148660500Y-75880500D01*
X150660500Y-76277764D02*
X149057764Y-76277764D01*
X148660500Y-75880500D02*
X148660500Y-70480500D01*
X148460500Y-66993000D02*
X148460500Y-70280500D01*
X172660500Y-72880500D02*
X173060500Y-73280500D01*
X171260500Y-70280500D02*
X171060500Y-70480500D01*
X171060500Y-72480500D02*
X171460500Y-72880500D01*
X173060500Y-73280500D02*
X173060500Y-76277764D01*
X171060500Y-70480500D02*
X171060500Y-72480500D01*
X171460500Y-72880500D02*
X172660500Y-72880500D01*
X171060500Y-66993000D02*
X171060500Y-70480500D01*
X152212000Y-47280500D02*
X150110500Y-47280500D01*
X150110500Y-47280500D02*
X150060500Y-47230500D01*
X155949250Y-19344500D02*
X157732250Y-19344500D01*
D41*
X153917250Y-19273388D02*
X155878138Y-19273388D01*
D40*
X155878138Y-19273388D02*
X155949250Y-19344500D01*
X157732250Y-19344500D02*
X157854250Y-19466500D01*
X181603250Y-55558000D02*
X182843000Y-55558000D01*
X182843000Y-55558000D02*
X183720500Y-54680500D01*
X181603250Y-38112000D02*
X182752000Y-38112000D01*
X182752000Y-38112000D02*
X183720500Y-39080500D01*
D41*
X135629250Y-38468500D02*
X138423250Y-38468500D01*
X138804250Y-37500500D02*
X139185250Y-37119500D01*
X138804250Y-38087500D02*
X138804250Y-37500500D01*
X139185250Y-37119500D02*
X149413250Y-37119500D01*
X138423250Y-38468500D02*
X138804250Y-38087500D01*
D40*
X143098750Y-39414000D02*
X143113250Y-39399500D01*
X143098750Y-41437500D02*
X143098750Y-39414000D01*
X144923750Y-41437500D02*
X146170250Y-41437500D01*
X156062000Y-49744051D02*
X156088424Y-49717627D01*
X156062000Y-51130500D02*
X156062000Y-49744051D01*
X152212000Y-45680500D02*
X154060500Y-45680500D01*
X163800500Y-28445500D02*
X164660500Y-29305500D01*
X162335500Y-28445500D02*
X163800500Y-28445500D01*
X156862000Y-42630500D02*
X156862000Y-38479000D01*
X156862000Y-38479000D02*
X157060500Y-38280500D01*
X157060500Y-38280500D02*
X157060500Y-35368000D01*
X157060500Y-35368000D02*
X157348000Y-35080500D01*
X157879854Y-26681146D02*
X157385500Y-27175500D01*
X157854250Y-21291500D02*
X157854250Y-26655542D01*
X159835255Y-26681146D02*
X157879854Y-26681146D01*
X157385500Y-27175500D02*
X158265500Y-27175500D01*
X162340500Y-30980500D02*
X162335500Y-30985500D01*
X157854250Y-26655542D02*
X157879854Y-26681146D01*
X163860500Y-30980500D02*
X162340500Y-30980500D01*
X156749250Y-27175500D02*
X157385500Y-27175500D01*
X144660500Y-63280500D02*
X144810500Y-63130500D01*
X144660500Y-64880500D02*
X144660500Y-63280500D01*
X160260500Y-32680500D02*
X166060500Y-32680500D01*
X155610500Y-62630500D02*
X155260500Y-62280500D01*
X162410500Y-62830500D02*
X161860500Y-62280500D01*
X159886250Y-23276500D02*
X159886250Y-23403500D01*
X143160500Y-62780500D02*
X142660500Y-62280500D01*
D41*
X139312250Y-55407500D02*
X139693250Y-55026500D01*
D40*
X174185500Y-42985500D02*
X174155500Y-42955500D01*
X174810500Y-64943000D02*
X174810500Y-62630500D01*
D41*
X134272250Y-55748500D02*
X134613250Y-55407500D01*
X160775250Y-26197500D02*
X160775250Y-27467500D01*
D40*
X168260500Y-41680500D02*
X169260500Y-41680500D01*
X159010500Y-64943000D02*
X159010500Y-62630500D01*
X163823250Y-21178500D02*
X163757250Y-21244500D01*
D41*
X131686250Y-42560500D02*
X135511250Y-42560500D01*
D40*
X163495452Y-50080500D02*
X164895452Y-50080500D01*
X163918138Y-21273388D02*
X163823250Y-21178500D01*
X159262000Y-45680500D02*
X160712000Y-45680500D01*
X159632250Y-23657500D02*
X159886250Y-23403500D01*
D42*
X134272250Y-61924500D02*
X134587850Y-62240100D01*
D40*
X155920362Y-21273388D02*
X155949250Y-21244500D01*
X161695452Y-45680500D02*
X161895452Y-45880500D01*
D41*
X153917250Y-21273388D02*
X155920362Y-21273388D01*
D40*
X178210500Y-62630500D02*
X178210500Y-64943000D01*
X177860500Y-62280500D02*
X178210500Y-62630500D01*
D41*
X156838250Y-20355500D02*
X159251250Y-20355500D01*
D40*
X161895452Y-45880500D02*
X161895452Y-47080500D01*
X152210500Y-64943000D02*
X152210500Y-62630500D01*
X160712000Y-45680500D02*
X161695452Y-45680500D01*
X164895452Y-50080500D02*
X165095452Y-49880500D01*
D41*
X139947250Y-40040500D02*
X141090250Y-40040500D01*
D40*
X159860500Y-27680500D02*
X159860500Y-29080500D01*
X161695452Y-47280500D02*
X161895452Y-47080500D01*
X168323000Y-53530500D02*
X169010500Y-53530500D01*
D41*
X169284250Y-21625500D02*
X168932138Y-21273388D01*
D40*
X160712000Y-47280500D02*
X161695452Y-47280500D01*
X159886250Y-31912500D02*
X159860500Y-31938250D01*
D41*
X159251250Y-20355500D02*
X160140250Y-21244500D01*
D40*
X169210500Y-62630500D02*
X168860500Y-62280500D01*
D41*
X160775250Y-27467500D02*
X160775250Y-28165750D01*
D40*
X152330500Y-46482000D02*
X158460500Y-46482000D01*
X160695500Y-29715500D02*
X160660500Y-29680500D01*
X155610500Y-64943000D02*
X155610500Y-62630500D01*
X186260500Y-39080500D02*
X186260500Y-40880500D01*
X166460500Y-35030500D02*
X166410500Y-35080500D01*
X146560500Y-62580500D02*
X146260500Y-62280500D01*
D41*
X163757250Y-21244500D02*
X160140250Y-21244500D01*
D40*
X166060500Y-32680500D02*
X166460500Y-33080500D01*
D41*
X168932138Y-21273388D02*
X165855250Y-21273388D01*
D40*
X165810500Y-62630500D02*
X165460500Y-62280500D01*
D41*
X134613250Y-55407500D02*
X139312250Y-55407500D01*
X135883250Y-32293500D02*
X142741250Y-32293500D01*
D40*
X166660500Y-38280500D02*
X166660500Y-35330500D01*
X185860500Y-41280500D02*
X184860500Y-41280500D01*
D41*
X159886250Y-23403500D02*
X159886250Y-25308500D01*
D40*
X165810500Y-64943000D02*
X165810500Y-62630500D01*
X159860500Y-32280500D02*
X160260500Y-32680500D01*
D41*
X139693250Y-40294500D02*
X139947250Y-40040500D01*
D42*
X134272250Y-57058500D02*
X134272250Y-61924500D01*
D41*
X165855250Y-21273388D02*
X163918138Y-21273388D01*
D42*
X139845650Y-62240100D02*
X177874250Y-62240100D01*
D40*
X162096952Y-47282000D02*
X161895452Y-47080500D01*
X184860500Y-41280500D02*
X184460500Y-41680500D01*
X166660500Y-38280500D02*
X166660500Y-41280500D01*
X162335500Y-29715500D02*
X160695500Y-29715500D01*
X159060500Y-45680500D02*
X158660500Y-45280500D01*
X168260500Y-41680500D02*
X168660500Y-42080500D01*
X165095452Y-47483500D02*
X164893952Y-47282000D01*
X159860500Y-31886750D02*
X159860500Y-29080500D01*
X174155500Y-42955500D02*
X170535500Y-42955500D01*
X168660500Y-43880500D02*
X169660500Y-44880500D01*
X166660500Y-35330500D02*
X166410500Y-35080500D01*
X151210500Y-46480500D02*
X150060500Y-45330500D01*
X152212000Y-46480500D02*
X151210500Y-46480500D01*
X152210500Y-62630500D02*
X151860500Y-62280500D01*
X169660500Y-42080500D02*
X169260500Y-41680500D01*
X164893952Y-47282000D02*
X162096952Y-47282000D01*
X145923000Y-53530500D02*
X146610500Y-53530500D01*
X146560500Y-64880500D02*
X146560500Y-62580500D01*
X169210500Y-64943000D02*
X169210500Y-62630500D01*
X159886250Y-31912500D02*
X159860500Y-31886750D01*
D41*
X159886250Y-21498500D02*
X159886250Y-23276500D01*
D40*
X183860500Y-45968000D02*
X184460500Y-45368000D01*
X146610500Y-53530500D02*
X146860500Y-53280500D01*
D42*
X134587850Y-62240100D02*
X139845650Y-62240100D01*
D40*
X162335500Y-27175500D02*
X161067250Y-27175500D01*
D41*
X160140250Y-21244500D02*
X159886250Y-21498500D01*
X159886250Y-25308500D02*
X160775250Y-26197500D01*
D40*
X162335500Y-27175500D02*
X164453000Y-27175500D01*
X161067250Y-27175500D02*
X160775250Y-27467500D01*
X166660500Y-41280500D02*
X167060500Y-41680500D01*
X143160500Y-64880500D02*
X143160500Y-62780500D01*
X169010500Y-53530500D02*
X169260500Y-53280500D01*
D41*
X160775250Y-28165750D02*
X159860500Y-29080500D01*
X155949250Y-21244500D02*
X156838250Y-20355500D01*
D40*
X184460500Y-45368000D02*
X184460500Y-43430500D01*
X162410500Y-64943000D02*
X162410500Y-62830500D01*
X146860500Y-53280500D02*
X147660500Y-53280500D01*
X164895452Y-47280500D02*
X164893952Y-47282000D01*
X140328250Y-61757500D02*
X139845650Y-62240100D01*
X158460500Y-46482000D02*
X159262000Y-45680500D01*
X168660500Y-42080500D02*
X168660500Y-43880500D01*
X166210500Y-37830500D02*
X166660500Y-38280500D01*
D41*
X139693250Y-55026500D02*
X139693250Y-40294500D01*
D40*
X186260500Y-40880500D02*
X185860500Y-41280500D01*
X165095452Y-49880500D02*
X165095452Y-47483500D01*
D41*
X143113250Y-32683500D02*
X143113250Y-34839500D01*
D40*
X140836250Y-58455500D02*
X140328250Y-58963500D01*
X159860500Y-31938250D02*
X159860500Y-32280500D01*
D41*
X169284250Y-24927500D02*
X169284250Y-21625500D01*
D40*
X167060500Y-41680500D02*
X168260500Y-41680500D01*
X170535500Y-42955500D02*
X169660500Y-42080500D01*
X158578750Y-23657500D02*
X159632250Y-23657500D01*
X174810500Y-62630500D02*
X174460500Y-62280500D01*
X167210500Y-38830500D02*
X166660500Y-38280500D01*
X159262000Y-45680500D02*
X159060500Y-45680500D01*
D41*
X175634250Y-25308500D02*
X169665250Y-25308500D01*
D40*
X140328250Y-58963500D02*
X140328250Y-61757500D01*
D41*
X143122250Y-32674500D02*
X143113250Y-32683500D01*
D40*
X184460500Y-41680500D02*
X184460500Y-43430500D01*
D41*
X169665250Y-25308500D02*
X169284250Y-24927500D01*
D40*
X159010500Y-62630500D02*
X158660500Y-62280500D01*
X169260500Y-53280500D02*
X170060500Y-53280500D01*
D41*
X142741250Y-32293500D02*
X143122250Y-32674500D01*
X134272250Y-57058500D02*
X134272250Y-55748500D01*
X131686250Y-51200500D02*
X135511250Y-51200500D01*
D40*
X166460500Y-33080500D02*
X166460500Y-35030500D01*
X141260500Y-63480500D02*
X141610500Y-63130500D01*
X141260500Y-64880500D02*
X141260500Y-63480500D01*
X150310500Y-63343000D02*
X150460500Y-63193000D01*
X150310500Y-64943000D02*
X150310500Y-63343000D01*
X153710500Y-63343000D02*
X153860500Y-63193000D01*
X153710500Y-64943000D02*
X153710500Y-63343000D01*
X157110500Y-63343000D02*
X157260500Y-63193000D01*
X157110500Y-64943000D02*
X157110500Y-63343000D01*
X160510500Y-63343000D02*
X160660500Y-63193000D01*
X160510500Y-64943000D02*
X160510500Y-63343000D01*
X163910500Y-63343000D02*
X164060500Y-63193000D01*
X163910500Y-64943000D02*
X163910500Y-63343000D01*
X167310500Y-64943000D02*
X167310500Y-63343000D01*
X167310500Y-63343000D02*
X167460500Y-63193000D01*
X176310500Y-64943000D02*
X176310500Y-63343000D01*
X176310500Y-63343000D02*
X176460500Y-63193000D01*
X172910500Y-64943000D02*
X172910500Y-63343000D01*
X172910500Y-63343000D02*
X173060500Y-63193000D01*
X144060500Y-49080500D02*
X143376250Y-49764750D01*
X144810500Y-59830500D02*
X144810500Y-61305500D01*
X148660500Y-44480500D02*
X148660500Y-48680500D01*
X143376250Y-49764750D02*
X143376250Y-51964750D01*
X152212000Y-44080500D02*
X149060500Y-44080500D01*
X142260500Y-58880500D02*
X142660500Y-59280500D01*
X143376250Y-51964750D02*
X142260500Y-53080500D01*
X142660500Y-59280500D02*
X144260500Y-59280500D01*
X148660500Y-48680500D02*
X148260500Y-49080500D01*
X148260500Y-49080500D02*
X144060500Y-49080500D01*
X149060500Y-44080500D02*
X148660500Y-44480500D01*
X144260500Y-59280500D02*
X144810500Y-59830500D01*
X142260500Y-53080500D02*
X142260500Y-58880500D01*
X141610500Y-52983375D02*
X142868250Y-51725625D01*
X143860500Y-48480500D02*
X147460500Y-48480500D01*
X141610500Y-61305500D02*
X141610500Y-52983375D01*
X148060500Y-47880500D02*
X148060500Y-43480500D01*
X147460500Y-48480500D02*
X148060500Y-47880500D01*
X142868250Y-51725625D02*
X142868250Y-49472750D01*
X142868250Y-49472750D02*
X143860500Y-48480500D01*
X148060500Y-43480500D02*
X148460500Y-43080500D01*
X148460500Y-43080500D02*
X153212000Y-43080500D01*
X153212000Y-43080500D02*
X153662000Y-42630500D01*
X153660500Y-59080500D02*
X153660500Y-52255500D01*
X151860500Y-59480500D02*
X153260500Y-59480500D01*
X151373000Y-61368000D02*
X151660500Y-61080500D01*
X153662000Y-52254000D02*
X153662000Y-51130500D01*
X151660500Y-61080500D02*
X151660500Y-59680500D01*
X151660500Y-59680500D02*
X151860500Y-59480500D01*
X153260500Y-59480500D02*
X153660500Y-59080500D01*
X150460500Y-61368000D02*
X151373000Y-61368000D01*
X153660500Y-52255500D02*
X153662000Y-52254000D01*
X154260500Y-52880500D02*
X154260500Y-59280500D01*
X154462000Y-52229000D02*
X154460500Y-52230500D01*
X153860500Y-59680500D02*
X153860500Y-61368000D01*
X154460500Y-52280500D02*
X154460500Y-52680500D01*
X154260500Y-59280500D02*
X153860500Y-59680500D01*
X154462000Y-51130500D02*
X154462000Y-52229000D01*
X154460500Y-52680500D02*
X154260500Y-52880500D01*
X155260500Y-52880500D02*
X154860500Y-53280500D01*
X157060500Y-59480500D02*
X157260500Y-59680500D01*
X155060500Y-59480500D02*
X157060500Y-59480500D01*
X154860500Y-59280500D02*
X155060500Y-59480500D01*
X155260500Y-52280500D02*
X155262000Y-52279000D01*
X155260500Y-52280500D02*
X155260500Y-52880500D01*
X155262000Y-52279000D02*
X155262000Y-51130500D01*
X157260500Y-59680500D02*
X157260500Y-61368000D01*
X154860500Y-53280500D02*
X154860500Y-59280500D01*
X160660500Y-59280500D02*
X160660500Y-61368000D01*
X156862000Y-52282000D02*
X157060500Y-52480500D01*
X158787708Y-58880500D02*
X160260500Y-58880500D01*
X160260500Y-58880500D02*
X160660500Y-59280500D01*
X157060500Y-52480500D02*
X157060500Y-57153292D01*
X156862000Y-51130500D02*
X156862000Y-52282000D01*
X157060500Y-57153292D02*
X158787708Y-58880500D01*
X160973000Y-58280500D02*
X164060500Y-61368000D01*
X157662000Y-51130500D02*
X157662000Y-57118396D01*
X157662000Y-57118396D02*
X158824104Y-58280500D01*
X158824104Y-58280500D02*
X160973000Y-58280500D01*
X167460500Y-60280500D02*
X167460500Y-61368000D01*
X164460500Y-57680500D02*
X164860500Y-58080500D01*
X158860500Y-57680500D02*
X164460500Y-57680500D01*
X158260500Y-52480500D02*
X158260500Y-57080500D01*
X167260500Y-60080500D02*
X167460500Y-60280500D01*
X164860500Y-58080500D02*
X164860500Y-59680500D01*
X164860500Y-59680500D02*
X165260500Y-60080500D01*
X158462000Y-51130500D02*
X158462000Y-52279000D01*
X158260500Y-57080500D02*
X158860500Y-57680500D01*
X158462000Y-52279000D02*
X158260500Y-52480500D01*
X165260500Y-60080500D02*
X167260500Y-60080500D01*
X167987708Y-51880500D02*
X176060500Y-51880500D01*
X163660500Y-45880500D02*
X165860500Y-45880500D01*
X155060500Y-44280500D02*
X154462000Y-43682000D01*
X165860500Y-45880500D02*
X166260500Y-46280500D01*
X163260500Y-45480500D02*
X163660500Y-45880500D01*
X166260500Y-50153292D02*
X167987708Y-51880500D01*
X176060500Y-51880500D02*
X176460500Y-52280500D01*
X163260500Y-44280500D02*
X163260500Y-45480500D01*
X166260500Y-46280500D02*
X166260500Y-50153292D01*
X176460500Y-52280500D02*
X176460500Y-61368000D01*
X154462000Y-43682000D02*
X154462000Y-42630500D01*
X165660500Y-50189688D02*
X167951312Y-52480500D01*
X162460500Y-46480500D02*
X162660500Y-46680500D01*
X162660500Y-46680500D02*
X165260500Y-46680500D01*
X162460500Y-45080500D02*
X162460500Y-46480500D01*
X174573000Y-61368000D02*
X173060500Y-61368000D01*
X175860500Y-52880500D02*
X175860500Y-60080500D01*
X175860500Y-60080500D02*
X174573000Y-61368000D01*
X175460500Y-52480500D02*
X175860500Y-52880500D01*
X165660500Y-47080500D02*
X165660500Y-50189688D01*
X165260500Y-46680500D02*
X165660500Y-47080500D01*
X162260500Y-44880500D02*
X162460500Y-45080500D01*
X160712000Y-44880500D02*
X162260500Y-44880500D01*
X167951312Y-52480500D02*
X175460500Y-52480500D01*
X171860500Y-38368000D02*
X171860500Y-38080500D01*
X168260500Y-45880500D02*
X168060500Y-45680500D01*
X171460500Y-45880500D02*
X169260500Y-45880500D01*
X163823250Y-19278500D02*
X162614250Y-19278500D01*
X162614250Y-19278500D02*
X162553250Y-19339500D01*
X186960500Y-46380500D02*
X186960500Y-44680500D01*
X157385500Y-32459750D02*
X157727250Y-32801500D01*
X169223362Y-19278612D02*
X169223362Y-19273388D01*
X164260500Y-41880500D02*
X164260500Y-38280500D01*
X171948000Y-43880500D02*
X171860500Y-43793000D01*
X168060500Y-45680500D02*
X168060500Y-43680500D01*
X174185500Y-41715500D02*
X176425500Y-41715500D01*
X165855250Y-19273388D02*
X163828362Y-19273388D01*
X176660500Y-40680500D02*
X176895500Y-40445500D01*
X152330500Y-48882000D02*
X157460500Y-48880500D01*
X158060500Y-48882000D02*
X159062000Y-47880500D01*
X166660500Y-42280500D02*
X164660500Y-42280500D01*
X157727250Y-32801500D02*
X158781500Y-32801500D01*
X159062000Y-46880500D02*
X159462000Y-46480500D01*
X157460500Y-48880500D02*
X158060500Y-48882000D01*
X163828362Y-19273388D02*
X163823250Y-19278500D01*
X168060500Y-43680500D02*
X166660500Y-42280500D01*
X186960500Y-46380500D02*
X186460500Y-46880500D01*
X176460500Y-37880500D02*
X176660500Y-38080500D01*
X158781500Y-32801500D02*
X159173000Y-33193000D01*
X181860500Y-47280500D02*
X182260500Y-46880500D01*
X159062000Y-47880500D02*
X159062000Y-47680500D01*
X156965250Y-22297591D02*
X156918760Y-22251101D01*
D41*
X175634250Y-23022500D02*
X171316250Y-23022500D01*
D40*
X182260500Y-46880500D02*
X186460500Y-46880500D01*
X168260500Y-46880500D02*
X168260500Y-45880500D01*
X172060500Y-37880500D02*
X176460500Y-37880500D01*
X164660500Y-42280500D02*
X164260500Y-41880500D01*
X181460500Y-47280500D02*
X181860500Y-47280500D01*
X176660500Y-41480500D02*
X176660500Y-40680500D01*
X156965250Y-23781000D02*
X156965250Y-22297591D01*
X164260500Y-35330500D02*
X164510500Y-35080500D01*
X171460500Y-45880500D02*
X171860500Y-45480500D01*
X159062000Y-47680500D02*
X159062000Y-46880500D01*
X176660500Y-38080500D02*
X176660500Y-40680500D01*
X157385500Y-30985500D02*
X157385500Y-32459750D01*
X176660500Y-43080500D02*
X175860500Y-43880500D01*
D41*
X169223362Y-19273388D02*
X165855250Y-19273388D01*
D40*
X169260500Y-45880500D02*
X168260500Y-46880500D01*
X164260500Y-38280500D02*
X164260500Y-35330500D01*
X176895500Y-40445500D02*
X179135500Y-40445500D01*
X159260500Y-34993000D02*
X159173000Y-35080500D01*
X159173000Y-35080500D02*
X164510500Y-35080500D01*
X176660500Y-41480500D02*
X176660500Y-43080500D01*
D41*
X171316250Y-23022500D02*
X169984250Y-21690500D01*
D40*
X171860500Y-38080500D02*
X172060500Y-37880500D01*
X160830500Y-48082000D02*
X159463500Y-48082000D01*
X159173000Y-33193000D02*
X159173000Y-35080500D01*
X159462000Y-46480500D02*
X159463500Y-46482000D01*
D41*
X169984250Y-20039500D02*
X169223362Y-19278612D01*
X169984250Y-21690500D02*
X169984250Y-20039500D01*
D40*
X175860500Y-43880500D02*
X171948000Y-43880500D01*
X159463500Y-48082000D02*
X159062000Y-47680500D01*
X164310500Y-38230500D02*
X164260500Y-38280500D01*
X159463500Y-46482000D02*
X160830500Y-46482000D01*
X171860500Y-45480500D02*
X171860500Y-43793000D01*
X176425500Y-41715500D02*
X176660500Y-41480500D01*
X152212000Y-49680500D02*
X144260500Y-49680500D01*
X144260500Y-49680500D02*
X143860500Y-50080500D01*
X143860500Y-50080500D02*
X143860500Y-53568000D01*
X160712000Y-48880500D02*
X163495452Y-48880500D01*
X149823000Y-56930500D02*
X149860500Y-56968000D01*
X149860500Y-56968000D02*
X149860500Y-55393000D01*
X147798000Y-56930500D02*
X149823000Y-56930500D01*
X172223000Y-58830500D02*
X172260500Y-58793000D01*
X147835500Y-58793000D02*
X147798000Y-58830500D01*
X149860500Y-58793000D02*
X147835500Y-58793000D01*
X172260500Y-58793000D02*
X172260500Y-60080500D01*
X170198000Y-58830500D02*
X172223000Y-58830500D01*
X149860500Y-58793000D02*
X149860500Y-60080500D01*
X148060500Y-59680500D02*
X148460500Y-60080500D01*
X148460500Y-60080500D02*
X148460500Y-61480500D01*
X145923000Y-57880500D02*
X145923000Y-59343000D01*
X145923000Y-59343000D02*
X146260500Y-59680500D01*
X146260500Y-59680500D02*
X148060500Y-59680500D01*
X148460500Y-65168000D02*
X148460500Y-63080500D01*
X145923000Y-55430500D02*
X143898000Y-55430500D01*
X143898000Y-55430500D02*
X143860500Y-55393000D01*
X148710500Y-53568000D02*
X147798000Y-54480500D01*
X149860500Y-53568000D02*
X148710500Y-53568000D01*
X168323000Y-55430500D02*
X166298000Y-55430500D01*
X166298000Y-55430500D02*
X166260500Y-55393000D01*
X172260500Y-53568000D02*
X171110500Y-53568000D01*
X171110500Y-53568000D02*
X170198000Y-54480500D01*
X172223000Y-56930500D02*
X172260500Y-56968000D01*
X170198000Y-56930500D02*
X172223000Y-56930500D01*
X172260500Y-56968000D02*
X172260500Y-55393000D01*
X168323000Y-57880500D02*
X168323000Y-59480500D01*
X171060500Y-60280500D02*
X171060500Y-61480500D01*
X168723000Y-59880500D02*
X170660500Y-59880500D01*
X171060500Y-63080500D02*
X171060500Y-65168000D01*
X170660500Y-59880500D02*
X171060500Y-60280500D01*
X168323000Y-59480500D02*
X168723000Y-59880500D01*
X159262000Y-53082000D02*
X159748000Y-53568000D01*
X159262000Y-51130500D02*
X159262000Y-53082000D01*
X159748000Y-53568000D02*
X166260500Y-53568000D01*
X161695452Y-49680500D02*
X161895452Y-49880500D01*
X160712000Y-49680500D02*
X161695452Y-49680500D01*
X162295452Y-51280500D02*
X163495452Y-51280500D01*
X161895452Y-50880500D02*
X162295452Y-51280500D01*
X161895452Y-49880500D02*
X161895452Y-50880500D01*
X174185500Y-39175500D02*
X172878000Y-39175500D01*
X170348000Y-40193000D02*
X170260500Y-40280500D01*
X156062000Y-42630500D02*
X156062000Y-41082000D01*
X172878000Y-39175500D02*
X171860500Y-40193000D01*
X171860500Y-40193000D02*
X170348000Y-40193000D01*
X156062000Y-41082000D02*
X156060500Y-41080500D01*
X159460500Y-40430500D02*
X159460500Y-38280500D01*
X157662000Y-42630500D02*
X157662000Y-41279000D01*
X157662000Y-41279000D02*
X158110500Y-40830500D01*
X158110500Y-40830500D02*
X159060500Y-40830500D01*
X159060500Y-40830500D02*
X159460500Y-40430500D01*
X161460500Y-41280500D02*
X161860500Y-40880500D01*
X161860500Y-40880500D02*
X161860500Y-38280500D01*
X158462000Y-41679000D02*
X158860500Y-41280500D01*
X158462000Y-42630500D02*
X158462000Y-41679000D01*
X158860500Y-41280500D02*
X161460500Y-41280500D01*
X174185500Y-40445500D02*
X173383000Y-40445500D01*
X155262000Y-41282000D02*
X155060500Y-41080500D01*
X155262000Y-42630500D02*
X155262000Y-41282000D01*
X171860500Y-41968000D02*
X170948000Y-41968000D01*
X170948000Y-41968000D02*
X170260500Y-41280500D01*
X173383000Y-40445500D02*
X171860500Y-41968000D01*
X166478698Y-42880500D02*
X167460500Y-43862302D01*
X168060500Y-50680500D02*
X181860500Y-50680500D01*
X167460500Y-43862302D02*
X167460500Y-50080500D01*
X182748000Y-47793000D02*
X183860500Y-47793000D01*
X181860500Y-50680500D02*
X182260500Y-50280500D01*
X183860500Y-47793000D02*
X186573000Y-47793000D01*
X186960500Y-48180500D02*
X186960500Y-49180500D01*
X159262000Y-42630500D02*
X159810500Y-42630500D01*
X182260500Y-50280500D02*
X182260500Y-48280500D01*
X186573000Y-47793000D02*
X186960500Y-48180500D01*
X160060500Y-42880500D02*
X166478698Y-42880500D01*
X167460500Y-50080500D02*
X168060500Y-50680500D01*
X182260500Y-48280500D02*
X182748000Y-47793000D01*
X159810500Y-42630500D02*
X160060500Y-42880500D01*
X160712000Y-44080500D02*
X161660500Y-44080500D01*
X177660500Y-52880500D02*
X181373000Y-52880500D01*
X161660500Y-44080500D02*
X162260500Y-43480500D01*
X176660500Y-51280500D02*
X177060500Y-51680500D01*
X166860500Y-44080500D02*
X166860500Y-50116896D01*
X166260500Y-43480500D02*
X166860500Y-44080500D01*
X181373000Y-52880500D02*
X181460500Y-52968000D01*
X162260500Y-43480500D02*
X166260500Y-43480500D01*
X181460500Y-53590250D02*
X181603250Y-53733000D01*
X177060500Y-52280500D02*
X177660500Y-52880500D01*
X181460500Y-52968000D02*
X181460500Y-53590250D01*
X166860500Y-50116896D02*
X168024104Y-51280500D01*
X177060500Y-51680500D02*
X177060500Y-52280500D01*
X168024104Y-51280500D02*
X176660500Y-51280500D01*
X157460500Y-45280500D02*
X157185500Y-45005500D01*
X181460500Y-46280500D02*
X182460500Y-45280500D01*
X152337000Y-45005500D02*
X152212000Y-44880500D01*
X157185500Y-45005500D02*
X152337000Y-45005500D01*
X182460500Y-45280500D02*
X182460500Y-40794250D01*
X182460500Y-40794250D02*
X181603250Y-39937000D01*
M02*
