G04 #@! TF.GenerationSoftware,KiCad,Pcbnew,6.0.8-f2edbf62ab~116~ubuntu20.04.1*
G04 #@! TF.CreationDate,2022-10-17T13:25:48+07:00*
G04 #@! TF.ProjectId,IN-8,494e2d38-2e6b-4696-9361-645f70636258,rev?*
G04 #@! TF.SameCoordinates,Original*
G04 #@! TF.FileFunction,Soldermask,Top*
G04 #@! TF.FilePolarity,Negative*
%FSLAX46Y46*%
G04 Gerber Fmt 4.6, Leading zero omitted, Abs format (unit mm)*
G04 Created by KiCad (PCBNEW 6.0.8-f2edbf62ab~116~ubuntu20.04.1) date 2022-10-17 13:25:48*
%MOMM*%
%LPD*%
G01*
G04 APERTURE LIST*
G04 Aperture macros list*
%AMRoundRect*
0 Rectangle with rounded corners*
0 $1 Rounding radius*
0 $2 $3 $4 $5 $6 $7 $8 $9 X,Y pos of 4 corners*
0 Add a 4 corners polygon primitive as box body*
4,1,4,$2,$3,$4,$5,$6,$7,$8,$9,$2,$3,0*
0 Add four circle primitives for the rounded corners*
1,1,$1+$1,$2,$3*
1,1,$1+$1,$4,$5*
1,1,$1+$1,$6,$7*
1,1,$1+$1,$8,$9*
0 Add four rect primitives between the rounded corners*
20,1,$1+$1,$2,$3,$4,$5,0*
20,1,$1+$1,$4,$5,$6,$7,0*
20,1,$1+$1,$6,$7,$8,$9,0*
20,1,$1+$1,$8,$9,$2,$3,0*%
G04 Aperture macros list end*
%ADD10C,0.635000*%
%ADD11C,0.444500*%
%ADD12RoundRect,0.250000X-0.262500X-0.450000X0.262500X-0.450000X0.262500X0.450000X-0.262500X0.450000X0*%
%ADD13RoundRect,0.325000X-0.325000X-1.675000X0.325000X-1.675000X0.325000X1.675000X-0.325000X1.675000X0*%
%ADD14RoundRect,0.250000X-0.450000X0.262500X-0.450000X-0.262500X0.450000X-0.262500X0.450000X0.262500X0*%
%ADD15R,1.600000X1.600000*%
%ADD16C,1.600000*%
%ADD17C,1.200000*%
%ADD18R,1.800000X1.800000*%
%ADD19C,1.800000*%
%ADD20R,1.800000X2.500000*%
%ADD21RoundRect,0.243750X-0.456250X0.243750X-0.456250X-0.243750X0.456250X-0.243750X0.456250X0.243750X0*%
%ADD22R,2.000000X1.000000*%
%ADD23O,0.600000X0.850000*%
%ADD24C,0.600000*%
%ADD25R,1.000000X0.520000*%
%ADD26R,1.000000X0.270000*%
%ADD27O,2.300000X1.300000*%
%ADD28O,2.600000X1.300000*%
%ADD29C,1.308000*%
%ADD30C,2.600000*%
%ADD31C,2.200000*%
%ADD32C,1.700000*%
%ADD33RoundRect,0.375000X-1.125000X0.375000X-1.125000X-0.375000X1.125000X-0.375000X1.125000X0.375000X0*%
%ADD34RoundRect,0.250000X-1.450000X0.312500X-1.450000X-0.312500X1.450000X-0.312500X1.450000X0.312500X0*%
G04 APERTURE END LIST*
D10*
X184778000Y-50430500D02*
G75*
G03*
X184778000Y-50430500I-317500J0D01*
G01*
D11*
X187182750Y-49180500D02*
G75*
G03*
X187182750Y-49180500I-222250J0D01*
G01*
X187182750Y-44680500D02*
G75*
G03*
X187182750Y-44680500I-222250J0D01*
G01*
D10*
X184778000Y-43430500D02*
G75*
G03*
X184778000Y-43430500I-317500J0D01*
G01*
D12*
X157148000Y-25080500D03*
X158973000Y-25080500D03*
D13*
X171060500Y-70480500D03*
D12*
X160748000Y-25080500D03*
X162573000Y-25080500D03*
D14*
X158751250Y-27340500D03*
X158751250Y-29165500D03*
D15*
X153917250Y-19273388D03*
D16*
X153917250Y-21273388D03*
D17*
X159860500Y-70480500D03*
X175860500Y-70480500D03*
D13*
X148660500Y-70480500D03*
D17*
X163060500Y-70480500D03*
D13*
X155060500Y-70480500D03*
X151860500Y-70480500D03*
D18*
X186260500Y-54680500D03*
D19*
X183720500Y-54680500D03*
D13*
X158260500Y-70480500D03*
X164660500Y-70480500D03*
X142260500Y-70480500D03*
D17*
X156660500Y-70480500D03*
D13*
X145460500Y-70480500D03*
D17*
X166260500Y-70480500D03*
D14*
X161029250Y-27340500D03*
X161029250Y-29165500D03*
D20*
X139693250Y-48898500D03*
X139693250Y-44898500D03*
D13*
X161460500Y-70480500D03*
D17*
X147060500Y-70480500D03*
D21*
X161029250Y-30906500D03*
X161029250Y-32781500D03*
D22*
X131686250Y-45480500D03*
D23*
X134786250Y-49880500D03*
D24*
X134786250Y-43880500D03*
D22*
X131686250Y-48280500D03*
D25*
X135886250Y-43780500D03*
X135886250Y-44530500D03*
D26*
X135886250Y-45130500D03*
X135886250Y-46630500D03*
X135886250Y-47630500D03*
X135886250Y-48630500D03*
D25*
X135886250Y-49230500D03*
X135886250Y-49980500D03*
X135886250Y-49980500D03*
X135886250Y-49230500D03*
D26*
X135886250Y-48130500D03*
X135886250Y-47130500D03*
X135886250Y-46130500D03*
X135886250Y-45630500D03*
D25*
X135886250Y-44530500D03*
X135886250Y-43780500D03*
D27*
X135511250Y-42560500D03*
D28*
X131686250Y-51200500D03*
X131686250Y-42560500D03*
D27*
X135511250Y-51200500D03*
D15*
X165855250Y-19273388D03*
D16*
X165855250Y-21273388D03*
D17*
X143860500Y-70480500D03*
D21*
X158743250Y-30906500D03*
X158743250Y-32781500D03*
D15*
X136772250Y-57058500D03*
D16*
X134272250Y-57058500D03*
D29*
X174060500Y-83777764D03*
X174810500Y-77527764D03*
X169060500Y-76277764D03*
X167310500Y-77527764D03*
X166560500Y-79527764D03*
X166810500Y-81777764D03*
X168060500Y-83777764D03*
X170060500Y-84777764D03*
X172060500Y-84777764D03*
X175310500Y-81777764D03*
X175560500Y-79527764D03*
X173060500Y-76277764D03*
D17*
X150460500Y-70480500D03*
D13*
X174260500Y-70480500D03*
D30*
X135629250Y-35468500D03*
X135629250Y-38468500D03*
D31*
X184460500Y-50430500D03*
X184460500Y-43430500D03*
D32*
X186960500Y-44680500D03*
X186960500Y-49180500D03*
D18*
X186260500Y-39080500D03*
D19*
X183720500Y-39080500D03*
D33*
X175634250Y-23022500D03*
D17*
X153460500Y-70480500D03*
D34*
X135629250Y-34831000D03*
X135629250Y-39106000D03*
D17*
X169460500Y-70480500D03*
D29*
X151660500Y-83777764D03*
X152410500Y-77527764D03*
X146660500Y-76277764D03*
X144910500Y-77527764D03*
X144160500Y-79527764D03*
X144410500Y-81777764D03*
X145660500Y-83777764D03*
X147660500Y-84777764D03*
X149660500Y-84777764D03*
X152910500Y-81777764D03*
X153160500Y-79527764D03*
X150660500Y-76277764D03*
D33*
X175634250Y-25308500D03*
D13*
X177460500Y-70480500D03*
X167860500Y-70480500D03*
D17*
X172660500Y-70480500D03*
M02*
